<?xml version="1.0" encoding="utf-8" standalone="no"?>
<!DOCTYPE svg PUBLIC "-//W3C//DTD SVG 1.1//EN"
  "http://www.w3.org/Graphics/SVG/1.1/DTD/svg11.dtd">
<svg xmlns:xlink="http://www.w3.org/1999/xlink" width="341.218376pt" height="226.194375pt" viewBox="0 0 341.218376 226.194375" xmlns="http://www.w3.org/2000/svg" version="1.1">
 <metadata>
  <rdf:RDF xmlns:dc="http://purl.org/dc/elements/1.1/" xmlns:cc="http://creativecommons.org/ns#" xmlns:rdf="http://www.w3.org/1999/02/22-rdf-syntax-ns#">
   <cc:Work>
    <dc:type rdf:resource="http://purl.org/dc/dcmitype/StillImage"/>
    <dc:date>2024-07-12T13:36:58.809621</dc:date>
    <dc:format>image/svg+xml</dc:format>
    <dc:creator>
     <cc:Agent>
      <dc:title>Matplotlib v3.7.4, https://matplotlib.org/</dc:title>
     </cc:Agent>
    </dc:creator>
   </cc:Work>
  </rdf:RDF>
 </metadata>
 <defs>
  <style type="text/css">*{stroke-linejoin: round; stroke-linecap: butt}</style>
 </defs>
 <g id="figure_1">
  <g id="patch_1">
   <path d="M 0 226.194375 
L 341.218376 226.194375 
L 341.218376 0 
L 0 0 
z
" style="fill: #ffffff"/>
  </g>
  <g id="axes_1">
   <g id="patch_2">
    <path d="M 46.965625 188.638125 
L 325.965625 188.638125 
L 325.965625 22.318125 
L 46.965625 22.318125 
z
" style="fill: #ffffff"/>
   </g>
   <g id="PolyCollection_1">
    <path d="M 59.647443 102.800809 
L 59.647443 127.278996 
L 62.3173 114.335861 
L 64.987156 104.732575 
L 67.657013 94.870609 
L 70.326869 87.521828 
L 72.996725 78.846338 
L 75.666582 74.906376 
L 78.336438 71.045817 
L 81.006295 70.915583 
L 83.676151 70.071457 
L 86.346008 69.752074 
L 89.015864 70.204787 
L 91.685721 70.251298 
L 94.355577 69.992262 
L 97.025434 69.365944 
L 99.69529 69.211325 
L 102.365147 68.942892 
L 105.035003 69.469075 
L 107.704859 68.789787 
L 110.374716 68.478548 
L 113.044572 69.371277 
L 115.714429 69.223515 
L 118.384285 68.504251 
L 121.054142 68.307453 
L 123.723998 68.650971 
L 126.393855 67.711622 
L 129.063711 67.483894 
L 131.733568 67.383838 
L 134.403424 67.190526 
L 137.073281 66.892236 
L 139.743137 66.923892 
L 142.412993 67.013035 
L 145.08285 67.037512 
L 147.752706 67.197337 
L 150.422563 67.274383 
L 153.092419 67.254236 
L 155.762276 67.323326 
L 158.432132 67.144919 
L 161.101989 67.148682 
L 163.771845 67.039462 
L 166.441702 67.018086 
L 169.111558 66.844875 
L 171.781414 66.951275 
L 174.451271 66.898331 
L 177.121127 66.923124 
L 179.790984 70.676249 
L 182.46084 71.10917 
L 185.130697 71.390283 
L 187.800553 71.253276 
L 190.47041 71.360765 
L 193.140266 67.752162 
L 195.810123 67.390778 
L 198.479979 67.334992 
L 201.149836 67.467631 
L 203.819692 67.452284 
L 206.489548 67.313478 
L 209.159405 68.108332 
L 211.829261 67.850702 
L 214.499118 67.783671 
L 217.168974 68.043484 
L 219.838831 68.10102 
L 222.508687 67.308124 
L 225.178544 67.980069 
L 227.8484 68.095185 
L 230.518257 67.707416 
L 233.188113 67.645997 
L 235.857969 67.550142 
L 238.527826 66.876745 
L 241.197682 67.222433 
L 243.867539 66.990995 
L 246.537395 67.202131 
L 249.207252 70.102205 
L 251.877108 70.194895 
L 254.546965 69.867151 
L 257.216821 70.179991 
L 259.886678 70.025987 
L 262.556534 67.206122 
L 265.226391 67.166614 
L 267.896247 67.033344 
L 270.566103 67.03049 
L 273.23596 67.113826 
L 275.905816 67.08794 
L 278.575673 67.4615 
L 281.245529 67.552313 
L 283.915386 67.474094 
L 286.585242 67.393816 
L 289.255099 67.385282 
L 291.924955 67.028953 
L 294.594812 66.917357 
L 297.264668 67.102506 
L 299.934525 66.944559 
L 302.604381 67.058149 
L 305.274237 67.127813 
L 307.944094 67.140667 
L 310.61395 66.989542 
L 313.283807 67.173051 
L 313.283807 37.843633 
L 313.283807 37.843633 
L 310.61395 37.743951 
L 307.944094 37.68826 
L 305.274237 37.689704 
L 302.604381 37.635926 
L 299.934525 37.74018 
L 297.264668 37.932849 
L 294.594812 37.919869 
L 291.924955 37.925491 
L 289.255099 38.512092 
L 286.585242 38.402937 
L 283.915386 38.430541 
L 281.245529 39.267243 
L 278.575673 39.278182 
L 275.905816 38.874785 
L 273.23596 39.007609 
L 270.566103 38.711284 
L 267.896247 37.915913 
L 265.226391 37.806502 
L 262.556534 37.649776 
L 259.886678 36.914936 
L 257.216821 37.305528 
L 254.546965 37.389119 
L 251.877108 37.322781 
L 249.207252 37.453853 
L 246.537395 38.128862 
L 243.867539 37.845194 
L 241.197682 37.754832 
L 238.527826 37.888906 
L 235.857969 38.290178 
L 233.188113 38.326064 
L 230.518257 38.329996 
L 227.8484 38.780386 
L 225.178544 38.74509 
L 222.508687 38.188841 
L 219.838831 38.770402 
L 217.168974 38.772959 
L 214.499118 38.549379 
L 211.829261 38.674254 
L 209.159405 39.91141 
L 206.489548 39.287202 
L 203.819692 39.51146 
L 201.149836 39.587398 
L 198.479979 39.448257 
L 195.810123 38.637298 
L 193.140266 39.353695 
L 190.47041 41.275078 
L 187.800553 41.055808 
L 185.130697 41.24141 
L 182.46084 40.834776 
L 179.790984 40.215848 
L 177.121127 38.180695 
L 174.451271 38.180592 
L 171.781414 38.035326 
L 169.111558 38.196704 
L 166.441702 38.158346 
L 163.771845 38.787373 
L 161.101989 38.747654 
L 158.432132 38.800171 
L 155.762276 38.703712 
L 153.092419 38.819482 
L 150.422563 38.121962 
L 147.752706 38.128469 
L 145.08285 38.039336 
L 142.412993 38.424803 
L 139.743137 38.269137 
L 137.073281 38.310129 
L 134.403424 38.869708 
L 131.733568 39.024937 
L 129.063711 38.713266 
L 126.393855 38.891133 
L 123.723998 38.890563 
L 121.054142 38.543223 
L 118.384285 40.097431 
L 115.714429 40.088735 
L 113.044572 40.676437 
L 110.374716 41.618958 
L 107.704859 42.726781 
L 105.035003 43.000795 
L 102.365147 44.063276 
L 99.69529 44.848766 
L 97.025434 44.564481 
L 94.355577 44.879017 
L 91.685721 44.783879 
L 89.015864 45.107356 
L 86.346008 44.456354 
L 83.676151 45.510391 
L 81.006295 47.86434 
L 78.336438 50.497543 
L 75.666582 53.854698 
L 72.996725 59.531784 
L 70.326869 65.629889 
L 67.657013 71.579626 
L 64.987156 78.6852 
L 62.3173 88.745463 
L 59.647443 102.800809 
z
" clip-path="url(#pe90699d039)" style="fill: #1f77b4; fill-opacity: 0.2"/>
   </g>
   <g id="PolyCollection_2">
    <path d="M 59.647443 144.936899 
L 59.647443 181.078125 
L 62.3173 163.532404 
L 64.987156 151.933838 
L 67.657013 146.688825 
L 70.326869 141.341681 
L 72.996725 137.854866 
L 75.666582 135.407663 
L 78.336438 133.8306 
L 81.006295 131.168522 
L 83.676151 130.198994 
L 86.346008 127.207092 
L 89.015864 126.677046 
L 91.685721 124.198364 
L 94.355577 123.771716 
L 97.025434 121.242074 
L 99.69529 121.411907 
L 102.365147 120.002651 
L 105.035003 119.41878 
L 107.704859 117.588347 
L 110.374716 116.804679 
L 113.044572 115.969462 
L 115.714429 116.097784 
L 118.384285 115.399913 
L 121.054142 115.207939 
L 123.723998 115.520029 
L 126.393855 115.309239 
L 129.063711 114.438841 
L 131.733568 115.183699 
L 134.403424 115.35422 
L 137.073281 115.1241 
L 139.743137 115.067781 
L 142.412993 115.060182 
L 145.08285 114.276234 
L 147.752706 114.109004 
L 150.422563 113.70136 
L 153.092419 113.750434 
L 155.762276 113.740417 
L 158.432132 113.588944 
L 161.101989 113.464411 
L 163.771845 113.563602 
L 166.441702 113.555848 
L 169.111558 113.650788 
L 171.781414 114.265735 
L 174.451271 114.395502 
L 177.121127 114.388013 
L 179.790984 114.536643 
L 182.46084 114.475604 
L 185.130697 113.76689 
L 187.800553 113.786882 
L 190.47041 113.829779 
L 193.140266 113.812991 
L 195.810123 114.694367 
L 198.479979 115.098509 
L 201.149836 115.017475 
L 203.819692 118.765571 
L 206.489548 120.069754 
L 209.159405 119.167372 
L 211.829261 117.877884 
L 214.499118 116.666966 
L 217.168974 110.993528 
L 219.838831 107.892873 
L 222.508687 105.744715 
L 225.178544 104.790484 
L 227.8484 103.614274 
L 230.518257 103.646656 
L 233.188113 103.672228 
L 235.857969 103.500705 
L 238.527826 103.555937 
L 241.197682 103.52806 
L 243.867539 103.060422 
L 246.537395 102.191259 
L 249.207252 105.489866 
L 251.877108 108.572141 
L 254.546965 110.212692 
L 257.216821 109.847281 
L 259.886678 109.705843 
L 262.556534 106.949654 
L 265.226391 103.272403 
L 267.896247 101.295294 
L 270.566103 101.370166 
L 273.23596 101.270574 
L 275.905816 100.367416 
L 278.575673 100.291993 
L 281.245529 100.162882 
L 283.915386 99.769832 
L 286.585242 99.830731 
L 289.255099 99.781113 
L 291.924955 99.803272 
L 294.594812 99.891745 
L 297.264668 100.101717 
L 299.934525 99.943451 
L 302.604381 100.379895 
L 305.274237 100.451749 
L 307.944094 100.583392 
L 310.61395 100.345726 
L 313.283807 100.255614 
L 313.283807 64.870993 
L 313.283807 64.870993 
L 310.61395 66.719436 
L 307.944094 68.32987 
L 305.274237 69.07229 
L 302.604381 68.946637 
L 299.934525 68.295134 
L 297.264668 68.493708 
L 294.594812 69.202426 
L 291.924955 69.269323 
L 289.255099 69.370319 
L 286.585242 69.244354 
L 283.915386 69.204839 
L 281.245529 68.527147 
L 278.575673 68.680189 
L 275.905816 68.686092 
L 273.23596 69.010298 
L 270.566103 69.061741 
L 267.896247 68.987238 
L 265.226391 69.116315 
L 262.556534 68.780913 
L 259.886678 68.217216 
L 257.216821 68.272455 
L 254.546965 68.537739 
L 251.877108 68.605703 
L 249.207252 69.395904 
L 246.537395 70.109494 
L 243.867539 70.524955 
L 241.197682 70.745272 
L 238.527826 71.558044 
L 235.857969 71.460581 
L 233.188113 71.57702 
L 230.518257 71.456537 
L 227.8484 72.0748 
L 225.178544 71.423892 
L 222.508687 71.694535 
L 219.838831 71.964592 
L 217.168974 72.449765 
L 214.499118 72.044283 
L 211.829261 71.108049 
L 209.159405 69.75715 
L 206.489548 68.215776 
L 203.819692 66.89013 
L 201.149836 65.513006 
L 198.479979 65.434463 
L 195.810123 65.649396 
L 193.140266 65.864394 
L 190.47041 65.779558 
L 187.800553 66.14859 
L 185.130697 66.286422 
L 182.46084 66.403419 
L 179.790984 66.528269 
L 177.121127 66.435409 
L 174.451271 66.164855 
L 171.781414 65.993382 
L 169.111558 65.780958 
L 166.441702 65.616152 
L 163.771845 65.59429 
L 161.101989 65.653648 
L 158.432132 65.892593 
L 155.762276 66.011655 
L 153.092419 66.158482 
L 150.422563 66.735347 
L 147.752706 68.504428 
L 145.08285 68.391969 
L 142.412993 68.660284 
L 139.743137 68.68422 
L 137.073281 69.183908 
L 134.403424 67.62684 
L 131.733568 69.279493 
L 129.063711 70.274139 
L 126.393855 72.26925 
L 123.723998 73.558848 
L 121.054142 75.475058 
L 118.384285 77.138653 
L 115.714429 78.081417 
L 113.044572 79.964895 
L 110.374716 81.230885 
L 107.704859 82.586597 
L 105.035003 82.039959 
L 102.365147 83.130748 
L 99.69529 84.067507 
L 97.025434 84.984214 
L 94.355577 86.564044 
L 91.685721 88.79378 
L 89.015864 91.754005 
L 86.346008 91.98992 
L 83.676151 94.521571 
L 81.006295 96.327927 
L 78.336438 100.061586 
L 75.666582 103.214728 
L 72.996725 106.652068 
L 70.326869 112.570064 
L 67.657013 117.956339 
L 64.987156 124.760903 
L 62.3173 132.679831 
L 59.647443 144.936899 
z
" clip-path="url(#pe90699d039)" style="fill: #ff7f0e; fill-opacity: 0.2"/>
   </g>
   <g id="PolyCollection_3">
    <path d="M 59.647443 68.699233 
L 59.647443 130.970326 
L 62.3173 109.24446 
L 64.987156 91.493192 
L 67.657013 80.787534 
L 70.326869 74.560736 
L 72.996725 69.393375 
L 75.666582 61.747119 
L 78.336438 58.787664 
L 81.006295 55.52 
L 83.676151 49.476795 
L 86.346008 48.642861 
L 89.015864 46.049464 
L 91.685721 44.099637 
L 94.355577 43.371007 
L 97.025434 42.346973 
L 99.69529 39.201443 
L 102.365147 41.654671 
L 105.035003 41.510266 
L 107.704859 42.185474 
L 110.374716 41.841988 
L 113.044572 42.170276 
L 115.714429 39.053246 
L 118.384285 36.982398 
L 121.054142 35.945521 
L 123.723998 36.481762 
L 126.393855 35.805665 
L 129.063711 35.237233 
L 131.733568 35.863471 
L 134.403424 36.339957 
L 137.073281 35.766886 
L 139.743137 35.857326 
L 142.412993 36.484516 
L 145.08285 35.692992 
L 147.752706 35.939246 
L 150.422563 35.919328 
L 153.092419 36.230217 
L 155.762276 35.682829 
L 158.432132 36.007152 
L 161.101989 35.203551 
L 163.771845 35.204534 
L 166.441702 34.891633 
L 169.111558 34.784687 
L 171.781414 35.338624 
L 174.451271 35.200543 
L 177.121127 36.057179 
L 179.790984 35.931974 
L 182.46084 35.944004 
L 185.130697 35.375982 
L 187.800553 35.70463 
L 190.47041 34.792412 
L 193.140266 34.811848 
L 195.810123 34.770159 
L 198.479979 34.542845 
L 201.149836 35.013541 
L 203.819692 35.024188 
L 206.489548 34.995462 
L 209.159405 35.010573 
L 211.829261 34.923896 
L 214.499118 34.123027 
L 217.168974 34.13492 
L 219.838831 34.092057 
L 222.508687 34.077821 
L 225.178544 34.765897 
L 227.8484 35.624861 
L 230.518257 35.613234 
L 233.188113 35.641251 
L 235.857969 35.643242 
L 238.527826 34.976411 
L 241.197682 34.083336 
L 243.867539 34.065079 
L 246.537395 34.016625 
L 249.207252 34.025908 
L 251.877108 33.987228 
L 254.546965 34.059655 
L 257.216821 34.380197 
L 259.886678 34.506492 
L 262.556534 34.491646 
L 265.226391 34.49698 
L 267.896247 34.424114 
L 270.566103 34.130269 
L 273.23596 34.088965 
L 275.905816 34.104451 
L 278.575673 34.448138 
L 281.245529 34.482835 
L 283.915386 34.497806 
L 286.585242 34.490839 
L 289.255099 34.515209 
L 291.924955 34.313232 
L 294.594812 34.315226 
L 297.264668 34.838182 
L 299.934525 36.190151 
L 302.604381 36.200319 
L 305.274237 36.087782 
L 307.944094 36.103655 
L 310.61395 35.571422 
L 313.283807 34.906919 
L 313.283807 30.360058 
L 313.283807 30.360058 
L 310.61395 29.878125 
L 307.944094 30.034677 
L 305.274237 30.035612 
L 302.604381 30.038426 
L 299.934525 30.035316 
L 297.264668 30.58481 
L 294.594812 30.433918 
L 291.924955 30.441722 
L 289.255099 30.370033 
L 286.585242 30.376976 
L 283.915386 30.276234 
L 281.245529 30.276268 
L 278.575673 30.28109 
L 275.905816 30.36918 
L 273.23596 30.372218 
L 270.566103 30.35166 
L 267.896247 30.428763 
L 265.226391 30.404859 
L 262.556534 30.400234 
L 259.886678 30.441819 
L 257.216821 30.488448 
L 254.546965 30.416466 
L 251.877108 30.435781 
L 249.207252 30.438594 
L 246.537395 30.392276 
L 243.867539 30.377017 
L 241.197682 30.368718 
L 238.527826 30.330399 
L 235.857969 30.338245 
L 233.188113 30.340237 
L 230.518257 30.351656 
L 227.8484 30.352478 
L 225.178544 30.377432 
L 222.508687 30.372573 
L 219.838831 30.364147 
L 217.168974 30.403439 
L 214.499118 30.402055 
L 211.829261 30.367977 
L 209.159405 30.405779 
L 206.489548 30.410102 
L 203.819692 30.444446 
L 201.149836 30.454262 
L 198.479979 30.701726 
L 195.810123 30.752415 
L 193.140266 30.761349 
L 190.47041 30.765846 
L 187.800553 30.709215 
L 185.130697 30.488496 
L 182.46084 30.362789 
L 179.790984 30.395565 
L 177.121127 30.268701 
L 174.451271 30.370163 
L 171.781414 30.344114 
L 169.111558 30.468183 
L 166.441702 30.433435 
L 163.771845 30.342106 
L 161.101989 30.291638 
L 158.432132 30.286363 
L 155.762276 30.199075 
L 153.092419 30.11392 
L 150.422563 30.257176 
L 147.752706 30.282071 
L 145.08285 30.416294 
L 142.412993 30.402349 
L 139.743137 30.520005 
L 137.073281 30.618744 
L 134.403424 30.625746 
L 131.733568 30.666555 
L 129.063711 30.733466 
L 126.393855 30.570836 
L 123.723998 30.66568 
L 121.054142 30.784501 
L 118.384285 30.824783 
L 115.714429 31.130657 
L 113.044572 30.442629 
L 110.374716 30.45391 
L 107.704859 30.587593 
L 105.035003 30.696836 
L 102.365147 30.588116 
L 99.69529 31.984101 
L 97.025434 32.296601 
L 94.355577 32.68001 
L 91.685721 32.891612 
L 89.015864 33.274524 
L 86.346008 33.311786 
L 83.676151 34.174917 
L 81.006295 34.16231 
L 78.336438 34.826526 
L 75.666582 37.129217 
L 72.996725 41.450383 
L 70.326869 45.594059 
L 67.657013 50.704818 
L 64.987156 57.288479 
L 62.3173 60.948447 
L 59.647443 68.699233 
z
" clip-path="url(#pe90699d039)" style="fill: #2ca02c; fill-opacity: 0.2"/>
   </g>
   <g id="matplotlib.axis_1">
    <g id="xtick_1">
     <g id="line2d_1">
      <defs>
       <path id="m04b5f142ab" d="M 0 0 
L 0 3.5 
" style="stroke: #000000; stroke-width: 0.8"/>
      </defs>
      <g>
       <use xlink:href="#m04b5f142ab" x="54.30773" y="188.638125" style="stroke: #000000; stroke-width: 0.8"/>
      </g>
     </g>
     <g id="text_1">
      <!-- 0 -->
      <g transform="translate(51.12648 203.236563) scale(0.1 -0.1)">
       <defs>
        <path id="DejaVuSans-30" d="M 2034 4250 
Q 1547 4250 1301 3770 
Q 1056 3291 1056 2328 
Q 1056 1369 1301 889 
Q 1547 409 2034 409 
Q 2525 409 2770 889 
Q 3016 1369 3016 2328 
Q 3016 3291 2770 3770 
Q 2525 4250 2034 4250 
z
M 2034 4750 
Q 2819 4750 3233 4129 
Q 3647 3509 3647 2328 
Q 3647 1150 3233 529 
Q 2819 -91 2034 -91 
Q 1250 -91 836 529 
Q 422 1150 422 2328 
Q 422 3509 836 4129 
Q 1250 4750 2034 4750 
z
" transform="scale(0.015625)"/>
       </defs>
       <use xlink:href="#DejaVuSans-30"/>
      </g>
     </g>
    </g>
    <g id="xtick_2">
     <g id="line2d_2">
      <g>
       <use xlink:href="#m04b5f142ab" x="87.680936" y="188.638125" style="stroke: #000000; stroke-width: 0.8"/>
      </g>
     </g>
     <g id="text_2">
      <!-- 200 -->
      <g transform="translate(78.137186 203.236563) scale(0.1 -0.1)">
       <defs>
        <path id="DejaVuSans-32" d="M 1228 531 
L 3431 531 
L 3431 0 
L 469 0 
L 469 531 
Q 828 903 1448 1529 
Q 2069 2156 2228 2338 
Q 2531 2678 2651 2914 
Q 2772 3150 2772 3378 
Q 2772 3750 2511 3984 
Q 2250 4219 1831 4219 
Q 1534 4219 1204 4116 
Q 875 4013 500 3803 
L 500 4441 
Q 881 4594 1212 4672 
Q 1544 4750 1819 4750 
Q 2544 4750 2975 4387 
Q 3406 4025 3406 3419 
Q 3406 3131 3298 2873 
Q 3191 2616 2906 2266 
Q 2828 2175 2409 1742 
Q 1991 1309 1228 531 
z
" transform="scale(0.015625)"/>
       </defs>
       <use xlink:href="#DejaVuSans-32"/>
       <use xlink:href="#DejaVuSans-30" x="63.623047"/>
       <use xlink:href="#DejaVuSans-30" x="127.246094"/>
      </g>
     </g>
    </g>
    <g id="xtick_3">
     <g id="line2d_3">
      <g>
       <use xlink:href="#m04b5f142ab" x="121.054142" y="188.638125" style="stroke: #000000; stroke-width: 0.8"/>
      </g>
     </g>
     <g id="text_3">
      <!-- 400 -->
      <g transform="translate(111.510392 203.236563) scale(0.1 -0.1)">
       <defs>
        <path id="DejaVuSans-34" d="M 2419 4116 
L 825 1625 
L 2419 1625 
L 2419 4116 
z
M 2253 4666 
L 3047 4666 
L 3047 1625 
L 3713 1625 
L 3713 1100 
L 3047 1100 
L 3047 0 
L 2419 0 
L 2419 1100 
L 313 1100 
L 313 1709 
L 2253 4666 
z
" transform="scale(0.015625)"/>
       </defs>
       <use xlink:href="#DejaVuSans-34"/>
       <use xlink:href="#DejaVuSans-30" x="63.623047"/>
       <use xlink:href="#DejaVuSans-30" x="127.246094"/>
      </g>
     </g>
    </g>
    <g id="xtick_4">
     <g id="line2d_4">
      <g>
       <use xlink:href="#m04b5f142ab" x="154.427347" y="188.638125" style="stroke: #000000; stroke-width: 0.8"/>
      </g>
     </g>
     <g id="text_4">
      <!-- 600 -->
      <g transform="translate(144.883597 203.236563) scale(0.1 -0.1)">
       <defs>
        <path id="DejaVuSans-36" d="M 2113 2584 
Q 1688 2584 1439 2293 
Q 1191 2003 1191 1497 
Q 1191 994 1439 701 
Q 1688 409 2113 409 
Q 2538 409 2786 701 
Q 3034 994 3034 1497 
Q 3034 2003 2786 2293 
Q 2538 2584 2113 2584 
z
M 3366 4563 
L 3366 3988 
Q 3128 4100 2886 4159 
Q 2644 4219 2406 4219 
Q 1781 4219 1451 3797 
Q 1122 3375 1075 2522 
Q 1259 2794 1537 2939 
Q 1816 3084 2150 3084 
Q 2853 3084 3261 2657 
Q 3669 2231 3669 1497 
Q 3669 778 3244 343 
Q 2819 -91 2113 -91 
Q 1303 -91 875 529 
Q 447 1150 447 2328 
Q 447 3434 972 4092 
Q 1497 4750 2381 4750 
Q 2619 4750 2861 4703 
Q 3103 4656 3366 4563 
z
" transform="scale(0.015625)"/>
       </defs>
       <use xlink:href="#DejaVuSans-36"/>
       <use xlink:href="#DejaVuSans-30" x="63.623047"/>
       <use xlink:href="#DejaVuSans-30" x="127.246094"/>
      </g>
     </g>
    </g>
    <g id="xtick_5">
     <g id="line2d_5">
      <g>
       <use xlink:href="#m04b5f142ab" x="187.800553" y="188.638125" style="stroke: #000000; stroke-width: 0.8"/>
      </g>
     </g>
     <g id="text_5">
      <!-- 800 -->
      <g transform="translate(178.256803 203.236563) scale(0.1 -0.1)">
       <defs>
        <path id="DejaVuSans-38" d="M 2034 2216 
Q 1584 2216 1326 1975 
Q 1069 1734 1069 1313 
Q 1069 891 1326 650 
Q 1584 409 2034 409 
Q 2484 409 2743 651 
Q 3003 894 3003 1313 
Q 3003 1734 2745 1975 
Q 2488 2216 2034 2216 
z
M 1403 2484 
Q 997 2584 770 2862 
Q 544 3141 544 3541 
Q 544 4100 942 4425 
Q 1341 4750 2034 4750 
Q 2731 4750 3128 4425 
Q 3525 4100 3525 3541 
Q 3525 3141 3298 2862 
Q 3072 2584 2669 2484 
Q 3125 2378 3379 2068 
Q 3634 1759 3634 1313 
Q 3634 634 3220 271 
Q 2806 -91 2034 -91 
Q 1263 -91 848 271 
Q 434 634 434 1313 
Q 434 1759 690 2068 
Q 947 2378 1403 2484 
z
M 1172 3481 
Q 1172 3119 1398 2916 
Q 1625 2713 2034 2713 
Q 2441 2713 2670 2916 
Q 2900 3119 2900 3481 
Q 2900 3844 2670 4047 
Q 2441 4250 2034 4250 
Q 1625 4250 1398 4047 
Q 1172 3844 1172 3481 
z
" transform="scale(0.015625)"/>
       </defs>
       <use xlink:href="#DejaVuSans-38"/>
       <use xlink:href="#DejaVuSans-30" x="63.623047"/>
       <use xlink:href="#DejaVuSans-30" x="127.246094"/>
      </g>
     </g>
    </g>
    <g id="xtick_6">
     <g id="line2d_6">
      <g>
       <use xlink:href="#m04b5f142ab" x="221.173759" y="188.638125" style="stroke: #000000; stroke-width: 0.8"/>
      </g>
     </g>
     <g id="text_6">
      <!-- 1000 -->
      <g transform="translate(208.448759 203.236563) scale(0.1 -0.1)">
       <defs>
        <path id="DejaVuSans-31" d="M 794 531 
L 1825 531 
L 1825 4091 
L 703 3866 
L 703 4441 
L 1819 4666 
L 2450 4666 
L 2450 531 
L 3481 531 
L 3481 0 
L 794 0 
L 794 531 
z
" transform="scale(0.015625)"/>
       </defs>
       <use xlink:href="#DejaVuSans-31"/>
       <use xlink:href="#DejaVuSans-30" x="63.623047"/>
       <use xlink:href="#DejaVuSans-30" x="127.246094"/>
       <use xlink:href="#DejaVuSans-30" x="190.869141"/>
      </g>
     </g>
    </g>
    <g id="xtick_7">
     <g id="line2d_7">
      <g>
       <use xlink:href="#m04b5f142ab" x="254.546965" y="188.638125" style="stroke: #000000; stroke-width: 0.8"/>
      </g>
     </g>
     <g id="text_7">
      <!-- 1200 -->
      <g transform="translate(241.821965 203.236563) scale(0.1 -0.1)">
       <use xlink:href="#DejaVuSans-31"/>
       <use xlink:href="#DejaVuSans-32" x="63.623047"/>
       <use xlink:href="#DejaVuSans-30" x="127.246094"/>
       <use xlink:href="#DejaVuSans-30" x="190.869141"/>
      </g>
     </g>
    </g>
    <g id="xtick_8">
     <g id="line2d_8">
      <g>
       <use xlink:href="#m04b5f142ab" x="287.92017" y="188.638125" style="stroke: #000000; stroke-width: 0.8"/>
      </g>
     </g>
     <g id="text_8">
      <!-- 1400 -->
      <g transform="translate(275.19517 203.236563) scale(0.1 -0.1)">
       <use xlink:href="#DejaVuSans-31"/>
       <use xlink:href="#DejaVuSans-34" x="63.623047"/>
       <use xlink:href="#DejaVuSans-30" x="127.246094"/>
       <use xlink:href="#DejaVuSans-30" x="190.869141"/>
      </g>
     </g>
    </g>
    <g id="xtick_9">
     <g id="line2d_9">
      <g>
       <use xlink:href="#m04b5f142ab" x="321.293376" y="188.638125" style="stroke: #000000; stroke-width: 0.8"/>
      </g>
     </g>
     <g id="text_9">
      <!-- 1600 -->
      <g transform="translate(308.568376 203.236563) scale(0.1 -0.1)">
       <use xlink:href="#DejaVuSans-31"/>
       <use xlink:href="#DejaVuSans-36" x="63.623047"/>
       <use xlink:href="#DejaVuSans-30" x="127.246094"/>
       <use xlink:href="#DejaVuSans-30" x="190.869141"/>
      </g>
     </g>
    </g>
    <g id="text_10">
     <!-- Episode -->
     <g transform="translate(166.828125 216.914688) scale(0.1 -0.1)">
      <defs>
       <path id="DejaVuSans-45" d="M 628 4666 
L 3578 4666 
L 3578 4134 
L 1259 4134 
L 1259 2753 
L 3481 2753 
L 3481 2222 
L 1259 2222 
L 1259 531 
L 3634 531 
L 3634 0 
L 628 0 
L 628 4666 
z
" transform="scale(0.015625)"/>
       <path id="DejaVuSans-70" d="M 1159 525 
L 1159 -1331 
L 581 -1331 
L 581 3500 
L 1159 3500 
L 1159 2969 
Q 1341 3281 1617 3432 
Q 1894 3584 2278 3584 
Q 2916 3584 3314 3078 
Q 3713 2572 3713 1747 
Q 3713 922 3314 415 
Q 2916 -91 2278 -91 
Q 1894 -91 1617 61 
Q 1341 213 1159 525 
z
M 3116 1747 
Q 3116 2381 2855 2742 
Q 2594 3103 2138 3103 
Q 1681 3103 1420 2742 
Q 1159 2381 1159 1747 
Q 1159 1113 1420 752 
Q 1681 391 2138 391 
Q 2594 391 2855 752 
Q 3116 1113 3116 1747 
z
" transform="scale(0.015625)"/>
       <path id="DejaVuSans-69" d="M 603 3500 
L 1178 3500 
L 1178 0 
L 603 0 
L 603 3500 
z
M 603 4863 
L 1178 4863 
L 1178 4134 
L 603 4134 
L 603 4863 
z
" transform="scale(0.015625)"/>
       <path id="DejaVuSans-73" d="M 2834 3397 
L 2834 2853 
Q 2591 2978 2328 3040 
Q 2066 3103 1784 3103 
Q 1356 3103 1142 2972 
Q 928 2841 928 2578 
Q 928 2378 1081 2264 
Q 1234 2150 1697 2047 
L 1894 2003 
Q 2506 1872 2764 1633 
Q 3022 1394 3022 966 
Q 3022 478 2636 193 
Q 2250 -91 1575 -91 
Q 1294 -91 989 -36 
Q 684 19 347 128 
L 347 722 
Q 666 556 975 473 
Q 1284 391 1588 391 
Q 1994 391 2212 530 
Q 2431 669 2431 922 
Q 2431 1156 2273 1281 
Q 2116 1406 1581 1522 
L 1381 1569 
Q 847 1681 609 1914 
Q 372 2147 372 2553 
Q 372 3047 722 3315 
Q 1072 3584 1716 3584 
Q 2034 3584 2315 3537 
Q 2597 3491 2834 3397 
z
" transform="scale(0.015625)"/>
       <path id="DejaVuSans-6f" d="M 1959 3097 
Q 1497 3097 1228 2736 
Q 959 2375 959 1747 
Q 959 1119 1226 758 
Q 1494 397 1959 397 
Q 2419 397 2687 759 
Q 2956 1122 2956 1747 
Q 2956 2369 2687 2733 
Q 2419 3097 1959 3097 
z
M 1959 3584 
Q 2709 3584 3137 3096 
Q 3566 2609 3566 1747 
Q 3566 888 3137 398 
Q 2709 -91 1959 -91 
Q 1206 -91 779 398 
Q 353 888 353 1747 
Q 353 2609 779 3096 
Q 1206 3584 1959 3584 
z
" transform="scale(0.015625)"/>
       <path id="DejaVuSans-64" d="M 2906 2969 
L 2906 4863 
L 3481 4863 
L 3481 0 
L 2906 0 
L 2906 525 
Q 2725 213 2448 61 
Q 2172 -91 1784 -91 
Q 1150 -91 751 415 
Q 353 922 353 1747 
Q 353 2572 751 3078 
Q 1150 3584 1784 3584 
Q 2172 3584 2448 3432 
Q 2725 3281 2906 2969 
z
M 947 1747 
Q 947 1113 1208 752 
Q 1469 391 1925 391 
Q 2381 391 2643 752 
Q 2906 1113 2906 1747 
Q 2906 2381 2643 2742 
Q 2381 3103 1925 3103 
Q 1469 3103 1208 2742 
Q 947 2381 947 1747 
z
" transform="scale(0.015625)"/>
       <path id="DejaVuSans-65" d="M 3597 1894 
L 3597 1613 
L 953 1613 
Q 991 1019 1311 708 
Q 1631 397 2203 397 
Q 2534 397 2845 478 
Q 3156 559 3463 722 
L 3463 178 
Q 3153 47 2828 -22 
Q 2503 -91 2169 -91 
Q 1331 -91 842 396 
Q 353 884 353 1716 
Q 353 2575 817 3079 
Q 1281 3584 2069 3584 
Q 2775 3584 3186 3129 
Q 3597 2675 3597 1894 
z
M 3022 2063 
Q 3016 2534 2758 2815 
Q 2500 3097 2075 3097 
Q 1594 3097 1305 2825 
Q 1016 2553 972 2059 
L 3022 2063 
z
" transform="scale(0.015625)"/>
      </defs>
      <use xlink:href="#DejaVuSans-45"/>
      <use xlink:href="#DejaVuSans-70" x="63.183594"/>
      <use xlink:href="#DejaVuSans-69" x="126.660156"/>
      <use xlink:href="#DejaVuSans-73" x="154.443359"/>
      <use xlink:href="#DejaVuSans-6f" x="206.542969"/>
      <use xlink:href="#DejaVuSans-64" x="267.724609"/>
      <use xlink:href="#DejaVuSans-65" x="331.201172"/>
     </g>
    </g>
   </g>
   <g id="matplotlib.axis_2">
    <g id="ytick_1">
     <g id="line2d_10">
      <defs>
       <path id="mca9c7b00a1" d="M 0 0 
L -3.5 0 
" style="stroke: #000000; stroke-width: 0.8"/>
      </defs>
      <g>
       <use xlink:href="#mca9c7b00a1" x="46.965625" y="184.671441" style="stroke: #000000; stroke-width: 0.8"/>
      </g>
     </g>
     <g id="text_11">
      <!-- 180 -->
      <g transform="translate(20.878125 188.470659) scale(0.1 -0.1)">
       <use xlink:href="#DejaVuSans-31"/>
       <use xlink:href="#DejaVuSans-38" x="63.623047"/>
       <use xlink:href="#DejaVuSans-30" x="127.246094"/>
      </g>
     </g>
    </g>
    <g id="ytick_2">
     <g id="line2d_11">
      <g>
       <use xlink:href="#mca9c7b00a1" x="46.965625" y="159.775619" style="stroke: #000000; stroke-width: 0.8"/>
      </g>
     </g>
     <g id="text_12">
      <!-- 190 -->
      <g transform="translate(20.878125 163.574838) scale(0.1 -0.1)">
       <defs>
        <path id="DejaVuSans-39" d="M 703 97 
L 703 672 
Q 941 559 1184 500 
Q 1428 441 1663 441 
Q 2288 441 2617 861 
Q 2947 1281 2994 2138 
Q 2813 1869 2534 1725 
Q 2256 1581 1919 1581 
Q 1219 1581 811 2004 
Q 403 2428 403 3163 
Q 403 3881 828 4315 
Q 1253 4750 1959 4750 
Q 2769 4750 3195 4129 
Q 3622 3509 3622 2328 
Q 3622 1225 3098 567 
Q 2575 -91 1691 -91 
Q 1453 -91 1209 -44 
Q 966 3 703 97 
z
M 1959 2075 
Q 2384 2075 2632 2365 
Q 2881 2656 2881 3163 
Q 2881 3666 2632 3958 
Q 2384 4250 1959 4250 
Q 1534 4250 1286 3958 
Q 1038 3666 1038 3163 
Q 1038 2656 1286 2365 
Q 1534 2075 1959 2075 
z
" transform="scale(0.015625)"/>
       </defs>
       <use xlink:href="#DejaVuSans-31"/>
       <use xlink:href="#DejaVuSans-39" x="63.623047"/>
       <use xlink:href="#DejaVuSans-30" x="127.246094"/>
      </g>
     </g>
    </g>
    <g id="ytick_3">
     <g id="line2d_12">
      <g>
       <use xlink:href="#mca9c7b00a1" x="46.965625" y="134.879798" style="stroke: #000000; stroke-width: 0.8"/>
      </g>
     </g>
     <g id="text_13">
      <!-- 200 -->
      <g transform="translate(20.878125 138.679017) scale(0.1 -0.1)">
       <use xlink:href="#DejaVuSans-32"/>
       <use xlink:href="#DejaVuSans-30" x="63.623047"/>
       <use xlink:href="#DejaVuSans-30" x="127.246094"/>
      </g>
     </g>
    </g>
    <g id="ytick_4">
     <g id="line2d_13">
      <g>
       <use xlink:href="#mca9c7b00a1" x="46.965625" y="109.983976" style="stroke: #000000; stroke-width: 0.8"/>
      </g>
     </g>
     <g id="text_14">
      <!-- 210 -->
      <g transform="translate(20.878125 113.783195) scale(0.1 -0.1)">
       <use xlink:href="#DejaVuSans-32"/>
       <use xlink:href="#DejaVuSans-31" x="63.623047"/>
       <use xlink:href="#DejaVuSans-30" x="127.246094"/>
      </g>
     </g>
    </g>
    <g id="ytick_5">
     <g id="line2d_14">
      <g>
       <use xlink:href="#mca9c7b00a1" x="46.965625" y="85.088155" style="stroke: #000000; stroke-width: 0.8"/>
      </g>
     </g>
     <g id="text_15">
      <!-- 220 -->
      <g transform="translate(20.878125 88.887374) scale(0.1 -0.1)">
       <use xlink:href="#DejaVuSans-32"/>
       <use xlink:href="#DejaVuSans-32" x="63.623047"/>
       <use xlink:href="#DejaVuSans-30" x="127.246094"/>
      </g>
     </g>
    </g>
    <g id="ytick_6">
     <g id="line2d_15">
      <g>
       <use xlink:href="#mca9c7b00a1" x="46.965625" y="60.192333" style="stroke: #000000; stroke-width: 0.8"/>
      </g>
     </g>
     <g id="text_16">
      <!-- 230 -->
      <g transform="translate(20.878125 63.991552) scale(0.1 -0.1)">
       <defs>
        <path id="DejaVuSans-33" d="M 2597 2516 
Q 3050 2419 3304 2112 
Q 3559 1806 3559 1356 
Q 3559 666 3084 287 
Q 2609 -91 1734 -91 
Q 1441 -91 1130 -33 
Q 819 25 488 141 
L 488 750 
Q 750 597 1062 519 
Q 1375 441 1716 441 
Q 2309 441 2620 675 
Q 2931 909 2931 1356 
Q 2931 1769 2642 2001 
Q 2353 2234 1838 2234 
L 1294 2234 
L 1294 2753 
L 1863 2753 
Q 2328 2753 2575 2939 
Q 2822 3125 2822 3475 
Q 2822 3834 2567 4026 
Q 2313 4219 1838 4219 
Q 1578 4219 1281 4162 
Q 984 4106 628 3988 
L 628 4550 
Q 988 4650 1302 4700 
Q 1616 4750 1894 4750 
Q 2613 4750 3031 4423 
Q 3450 4097 3450 3541 
Q 3450 3153 3228 2886 
Q 3006 2619 2597 2516 
z
" transform="scale(0.015625)"/>
       </defs>
       <use xlink:href="#DejaVuSans-32"/>
       <use xlink:href="#DejaVuSans-33" x="63.623047"/>
       <use xlink:href="#DejaVuSans-30" x="127.246094"/>
      </g>
     </g>
    </g>
    <g id="ytick_7">
     <g id="line2d_16">
      <g>
       <use xlink:href="#mca9c7b00a1" x="46.965625" y="35.296512" style="stroke: #000000; stroke-width: 0.8"/>
      </g>
     </g>
     <g id="text_17">
      <!-- 240 -->
      <g transform="translate(20.878125 39.095731) scale(0.1 -0.1)">
       <use xlink:href="#DejaVuSans-32"/>
       <use xlink:href="#DejaVuSans-34" x="63.623047"/>
       <use xlink:href="#DejaVuSans-30" x="127.246094"/>
      </g>
     </g>
    </g>
    <g id="text_18">
     <!-- Performance -->
     <g transform="translate(14.798437 137.160156) rotate(-90) scale(0.1 -0.1)">
      <defs>
       <path id="DejaVuSans-50" d="M 1259 4147 
L 1259 2394 
L 2053 2394 
Q 2494 2394 2734 2622 
Q 2975 2850 2975 3272 
Q 2975 3691 2734 3919 
Q 2494 4147 2053 4147 
L 1259 4147 
z
M 628 4666 
L 2053 4666 
Q 2838 4666 3239 4311 
Q 3641 3956 3641 3272 
Q 3641 2581 3239 2228 
Q 2838 1875 2053 1875 
L 1259 1875 
L 1259 0 
L 628 0 
L 628 4666 
z
" transform="scale(0.015625)"/>
       <path id="DejaVuSans-72" d="M 2631 2963 
Q 2534 3019 2420 3045 
Q 2306 3072 2169 3072 
Q 1681 3072 1420 2755 
Q 1159 2438 1159 1844 
L 1159 0 
L 581 0 
L 581 3500 
L 1159 3500 
L 1159 2956 
Q 1341 3275 1631 3429 
Q 1922 3584 2338 3584 
Q 2397 3584 2469 3576 
Q 2541 3569 2628 3553 
L 2631 2963 
z
" transform="scale(0.015625)"/>
       <path id="DejaVuSans-66" d="M 2375 4863 
L 2375 4384 
L 1825 4384 
Q 1516 4384 1395 4259 
Q 1275 4134 1275 3809 
L 1275 3500 
L 2222 3500 
L 2222 3053 
L 1275 3053 
L 1275 0 
L 697 0 
L 697 3053 
L 147 3053 
L 147 3500 
L 697 3500 
L 697 3744 
Q 697 4328 969 4595 
Q 1241 4863 1831 4863 
L 2375 4863 
z
" transform="scale(0.015625)"/>
       <path id="DejaVuSans-6d" d="M 3328 2828 
Q 3544 3216 3844 3400 
Q 4144 3584 4550 3584 
Q 5097 3584 5394 3201 
Q 5691 2819 5691 2113 
L 5691 0 
L 5113 0 
L 5113 2094 
Q 5113 2597 4934 2840 
Q 4756 3084 4391 3084 
Q 3944 3084 3684 2787 
Q 3425 2491 3425 1978 
L 3425 0 
L 2847 0 
L 2847 2094 
Q 2847 2600 2669 2842 
Q 2491 3084 2119 3084 
Q 1678 3084 1418 2786 
Q 1159 2488 1159 1978 
L 1159 0 
L 581 0 
L 581 3500 
L 1159 3500 
L 1159 2956 
Q 1356 3278 1631 3431 
Q 1906 3584 2284 3584 
Q 2666 3584 2933 3390 
Q 3200 3197 3328 2828 
z
" transform="scale(0.015625)"/>
       <path id="DejaVuSans-61" d="M 2194 1759 
Q 1497 1759 1228 1600 
Q 959 1441 959 1056 
Q 959 750 1161 570 
Q 1363 391 1709 391 
Q 2188 391 2477 730 
Q 2766 1069 2766 1631 
L 2766 1759 
L 2194 1759 
z
M 3341 1997 
L 3341 0 
L 2766 0 
L 2766 531 
Q 2569 213 2275 61 
Q 1981 -91 1556 -91 
Q 1019 -91 701 211 
Q 384 513 384 1019 
Q 384 1609 779 1909 
Q 1175 2209 1959 2209 
L 2766 2209 
L 2766 2266 
Q 2766 2663 2505 2880 
Q 2244 3097 1772 3097 
Q 1472 3097 1187 3025 
Q 903 2953 641 2809 
L 641 3341 
Q 956 3463 1253 3523 
Q 1550 3584 1831 3584 
Q 2591 3584 2966 3190 
Q 3341 2797 3341 1997 
z
" transform="scale(0.015625)"/>
       <path id="DejaVuSans-6e" d="M 3513 2113 
L 3513 0 
L 2938 0 
L 2938 2094 
Q 2938 2591 2744 2837 
Q 2550 3084 2163 3084 
Q 1697 3084 1428 2787 
Q 1159 2491 1159 1978 
L 1159 0 
L 581 0 
L 581 3500 
L 1159 3500 
L 1159 2956 
Q 1366 3272 1645 3428 
Q 1925 3584 2291 3584 
Q 2894 3584 3203 3211 
Q 3513 2838 3513 2113 
z
" transform="scale(0.015625)"/>
       <path id="DejaVuSans-63" d="M 3122 3366 
L 3122 2828 
Q 2878 2963 2633 3030 
Q 2388 3097 2138 3097 
Q 1578 3097 1268 2742 
Q 959 2388 959 1747 
Q 959 1106 1268 751 
Q 1578 397 2138 397 
Q 2388 397 2633 464 
Q 2878 531 3122 666 
L 3122 134 
Q 2881 22 2623 -34 
Q 2366 -91 2075 -91 
Q 1284 -91 818 406 
Q 353 903 353 1747 
Q 353 2603 823 3093 
Q 1294 3584 2113 3584 
Q 2378 3584 2631 3529 
Q 2884 3475 3122 3366 
z
" transform="scale(0.015625)"/>
      </defs>
      <use xlink:href="#DejaVuSans-50"/>
      <use xlink:href="#DejaVuSans-65" x="56.677734"/>
      <use xlink:href="#DejaVuSans-72" x="118.201172"/>
      <use xlink:href="#DejaVuSans-66" x="159.314453"/>
      <use xlink:href="#DejaVuSans-6f" x="194.519531"/>
      <use xlink:href="#DejaVuSans-72" x="255.701172"/>
      <use xlink:href="#DejaVuSans-6d" x="295.064453"/>
      <use xlink:href="#DejaVuSans-61" x="392.476562"/>
      <use xlink:href="#DejaVuSans-6e" x="453.755859"/>
      <use xlink:href="#DejaVuSans-63" x="517.134766"/>
      <use xlink:href="#DejaVuSans-65" x="572.115234"/>
     </g>
    </g>
   </g>
   <g id="line2d_17">
    <path d="M 59.647443 115.039903 
L 62.3173 101.540662 
L 64.987156 91.708887 
L 67.657013 83.225117 
L 70.326869 76.575858 
L 72.996725 69.189061 
L 75.666582 64.380537 
L 78.336438 60.77168 
L 81.006295 59.389962 
L 83.676151 57.790924 
L 86.346008 57.104214 
L 89.015864 57.656071 
L 91.685721 57.517588 
L 94.355577 57.43564 
L 97.025434 56.965212 
L 99.69529 57.030045 
L 102.365147 56.503084 
L 105.035003 56.234935 
L 107.704859 55.758284 
L 110.374716 55.048753 
L 113.044572 55.023857 
L 115.714429 54.656125 
L 118.384285 54.300841 
L 121.054142 53.425338 
L 123.723998 53.770767 
L 126.393855 53.301377 
L 129.063711 53.09858 
L 131.733568 53.204387 
L 134.403424 53.030117 
L 137.073281 52.601182 
L 139.743137 52.596514 
L 142.412993 52.718919 
L 145.08285 52.538424 
L 147.752706 52.662903 
L 150.422563 52.698172 
L 153.092419 53.036859 
L 155.762276 53.013519 
L 158.432132 52.972545 
L 161.101989 52.948168 
L 163.771845 52.913417 
L 166.441702 52.588216 
L 169.111558 52.52079 
L 171.781414 52.4933 
L 174.451271 52.539461 
L 177.121127 52.551909 
L 179.790984 55.446049 
L 182.46084 55.971973 
L 185.130697 56.315846 
L 187.800553 56.154542 
L 190.47041 56.317921 
L 193.140266 53.552929 
L 195.810123 53.014038 
L 198.479979 53.391625 
L 201.149836 53.527514 
L 203.819692 53.481872 
L 206.489548 53.30034 
L 209.159405 54.009871 
L 211.829261 53.262478 
L 214.499118 53.166525 
L 217.168974 53.408222 
L 219.838831 53.435711 
L 222.508687 52.748483 
L 225.178544 53.36258 
L 227.8484 53.437786 
L 230.518257 53.018706 
L 233.188113 52.98603 
L 235.857969 52.92016 
L 238.527826 52.382825 
L 241.197682 52.488633 
L 243.867539 52.418094 
L 246.537395 52.665497 
L 249.207252 53.778029 
L 251.877108 53.758838 
L 254.546965 53.628135 
L 257.216821 53.74276 
L 259.886678 53.470461 
L 262.556534 52.427949 
L 265.226391 52.486558 
L 267.896247 52.474629 
L 270.566103 52.870887 
L 273.23596 53.060718 
L 275.905816 52.981362 
L 278.575673 53.369841 
L 281.245529 53.409778 
L 283.915386 52.952317 
L 286.585242 52.898376 
L 289.255099 52.948687 
L 291.924955 52.477222 
L 294.594812 52.418613 
L 297.264668 52.517678 
L 299.934525 52.34237 
L 302.604381 52.347038 
L 305.274237 52.408758 
L 307.944094 52.414464 
L 310.61395 52.366747 
L 313.283807 52.508342 
" clip-path="url(#pe90699d039)" style="fill: none; stroke: #1f77b4; stroke-width: 2; stroke-linecap: square"/>
   </g>
   <g id="line2d_18">
    <path d="M 59.647443 163.007512 
L 62.3173 148.106118 
L 64.987156 138.347371 
L 67.657013 132.322582 
L 70.326869 126.955873 
L 72.996725 122.253467 
L 75.666582 119.311196 
L 78.336438 116.946093 
L 81.006295 113.748224 
L 83.676151 112.360282 
L 86.346008 109.598506 
L 89.015864 109.215525 
L 91.685721 106.496072 
L 94.355577 105.16788 
L 97.025434 103.113144 
L 99.69529 102.739707 
L 102.365147 101.566699 
L 105.035003 100.72937 
L 107.704859 100.087472 
L 110.374716 99.017782 
L 113.044572 97.967178 
L 115.714429 97.0896 
L 118.384285 96.269283 
L 121.054142 95.341499 
L 123.723998 94.539438 
L 126.393855 93.789244 
L 129.063711 92.35649 
L 131.733568 92.231596 
L 134.403424 91.49053 
L 137.073281 92.154004 
L 139.743137 91.876001 
L 142.412993 91.860233 
L 145.08285 91.334101 
L 147.752706 91.306716 
L 150.422563 90.218354 
L 153.092419 89.954458 
L 155.762276 89.876036 
L 158.432132 89.740769 
L 161.101989 89.559029 
L 163.771845 89.578946 
L 166.441702 89.586 
L 169.111558 89.715873 
L 171.781414 90.129559 
L 174.451271 90.280178 
L 177.121127 90.411711 
L 179.790984 90.532456 
L 182.46084 90.439512 
L 185.130697 90.026656 
L 187.800553 89.967736 
L 190.47041 89.804668 
L 193.140266 89.838692 
L 195.810123 90.171882 
L 198.479979 90.266486 
L 201.149836 90.265241 
L 203.819692 92.827851 
L 206.489548 94.142765 
L 209.159405 94.462261 
L 211.829261 94.492966 
L 214.499118 94.355624 
L 217.168974 91.721646 
L 219.838831 89.928732 
L 222.508687 88.719625 
L 225.178544 88.107188 
L 227.8484 87.844537 
L 230.518257 87.551596 
L 233.188113 87.624624 
L 235.857969 87.480643 
L 238.527826 87.55699 
L 241.197682 87.136666 
L 243.867539 86.792689 
L 246.537395 86.150376 
L 249.207252 87.442885 
L 251.877108 88.588922 
L 254.546965 89.375215 
L 257.216821 89.059868 
L 259.886678 88.96153 
L 262.556534 87.865284 
L 265.226391 86.194359 
L 267.896247 85.141266 
L 270.566103 85.215953 
L 273.23596 85.140436 
L 275.905816 84.526754 
L 278.575673 84.486091 
L 281.245529 84.345015 
L 283.915386 84.487336 
L 286.585242 84.537542 
L 289.255099 84.575716 
L 291.924955 84.536297 
L 294.594812 84.547086 
L 297.264668 84.297712 
L 299.934525 84.119292 
L 302.604381 84.663266 
L 305.274237 84.76202 
L 307.944094 84.456631 
L 310.61395 83.532581 
L 313.283807 82.563304 
" clip-path="url(#pe90699d039)" style="fill: none; stroke: #ff7f0e; stroke-width: 2; stroke-linecap: square"/>
   </g>
   <g id="line2d_19">
    <path d="M 59.647443 99.83478 
L 62.3173 85.096453 
L 64.987156 74.390835 
L 67.657013 65.746176 
L 70.326869 60.077398 
L 72.996725 55.421879 
L 75.666582 49.438168 
L 78.336438 46.807095 
L 81.006295 44.841155 
L 83.676151 41.825856 
L 86.346008 40.977323 
L 89.015864 39.661994 
L 91.685721 38.495625 
L 94.355577 38.025509 
L 97.025434 37.321787 
L 99.69529 35.592772 
L 102.365147 36.121393 
L 105.035003 36.103551 
L 107.704859 36.386534 
L 110.374716 36.147949 
L 113.044572 36.306452 
L 115.714429 35.091951 
L 118.384285 33.903591 
L 121.054142 33.365011 
L 123.723998 33.573721 
L 126.393855 33.188251 
L 129.063711 32.98535 
L 131.733568 33.265013 
L 134.403424 33.482851 
L 137.073281 33.192815 
L 139.743137 33.188666 
L 142.412993 33.443433 
L 145.08285 33.054643 
L 147.752706 33.110659 
L 150.422563 33.088252 
L 153.092419 33.172068 
L 155.762276 32.940952 
L 158.432132 33.146758 
L 161.101989 32.747595 
L 163.771845 32.77332 
L 166.441702 32.662534 
L 169.111558 32.626435 
L 171.781414 32.841369 
L 174.451271 32.785353 
L 177.121127 33.16294 
L 179.790984 33.16377 
L 182.46084 33.153396 
L 185.130697 32.932239 
L 187.800553 33.206923 
L 190.47041 32.779129 
L 193.140266 32.786598 
L 195.810123 32.761287 
L 198.479979 32.622286 
L 201.149836 32.733902 
L 203.819692 32.734317 
L 206.489548 32.702782 
L 209.159405 32.708176 
L 211.829261 32.645937 
L 214.499118 32.262541 
L 217.168974 32.26918 
L 219.838831 32.228102 
L 222.508687 32.225197 
L 225.178544 32.571664 
L 227.8484 32.988669 
L 230.518257 32.982445 
L 233.188113 32.990744 
L 235.857969 32.990744 
L 238.527826 32.653405 
L 241.197682 32.226027 
L 243.867539 32.221048 
L 246.537395 32.204451 
L 249.207252 32.232251 
L 251.877108 32.211505 
L 254.546965 32.23806 
L 257.216821 32.434322 
L 259.886678 32.474155 
L 262.556534 32.44594 
L 265.226391 32.450919 
L 267.896247 32.426439 
L 270.566103 32.240965 
L 273.23596 32.230591 
L 275.905816 32.236815 
L 278.575673 32.364614 
L 281.245529 32.379551 
L 283.915386 32.38702 
L 286.585242 32.433907 
L 289.255099 32.442621 
L 291.924955 32.377477 
L 294.594812 32.374572 
L 297.264668 32.711496 
L 299.934525 33.112733 
L 302.604381 33.119372 
L 305.274237 33.061697 
L 307.944094 33.069166 
L 310.61395 32.724773 
L 313.283807 32.633489 
" clip-path="url(#pe90699d039)" style="fill: none; stroke: #2ca02c; stroke-width: 2; stroke-linecap: square"/>
   </g>
   <g id="patch_3">
    <path d="M 46.965625 188.638125 
L 46.965625 22.318125 
" style="fill: none; stroke: #000000; stroke-width: 0.8; stroke-linejoin: miter; stroke-linecap: square"/>
   </g>
   <g id="patch_4">
    <path d="M 325.965625 188.638125 
L 325.965625 22.318125 
" style="fill: none; stroke: #000000; stroke-width: 0.8; stroke-linejoin: miter; stroke-linecap: square"/>
   </g>
   <g id="patch_5">
    <path d="M 46.965625 188.638125 
L 325.965625 188.638125 
" style="fill: none; stroke: #000000; stroke-width: 0.8; stroke-linejoin: miter; stroke-linecap: square"/>
   </g>
   <g id="patch_6">
    <path d="M 46.965625 22.318125 
L 325.965625 22.318125 
" style="fill: none; stroke: #000000; stroke-width: 0.8; stroke-linejoin: miter; stroke-linecap: square"/>
   </g>
   <g id="text_19">
    <!-- F1 -->
    <g transform="translate(179.197187 16.318125) scale(0.12 -0.12)">
     <defs>
      <path id="DejaVuSans-46" d="M 628 4666 
L 3309 4666 
L 3309 4134 
L 1259 4134 
L 1259 2759 
L 3109 2759 
L 3109 2228 
L 1259 2228 
L 1259 0 
L 628 0 
L 628 4666 
z
" transform="scale(0.015625)"/>
     </defs>
     <use xlink:href="#DejaVuSans-46"/>
     <use xlink:href="#DejaVuSans-31" x="57.519531"/>
    </g>
   </g>
   <g id="legend_1">
    <g id="patch_7">
     <path d="M 243.082812 183.638125 
L 318.965625 183.638125 
Q 320.965625 183.638125 320.965625 181.638125 
L 320.965625 138.60375 
Q 320.965625 136.60375 318.965625 136.60375 
L 243.082812 136.60375 
Q 241.082812 136.60375 241.082812 138.60375 
L 241.082812 181.638125 
Q 241.082812 183.638125 243.082812 183.638125 
z
" style="fill: #ffffff; opacity: 0.8; stroke: #cccccc; stroke-linejoin: miter"/>
    </g>
    <g id="line2d_20">
     <path d="M 245.082812 144.702188 
L 255.082812 144.702188 
L 265.082812 144.702188 
" style="fill: none; stroke: #1f77b4; stroke-width: 2; stroke-linecap: square"/>
    </g>
    <g id="text_20">
     <!-- FE5000 -->
     <g transform="translate(273.082812 148.202188) scale(0.1 -0.1)">
      <defs>
       <path id="DejaVuSans-35" d="M 691 4666 
L 3169 4666 
L 3169 4134 
L 1269 4134 
L 1269 2991 
Q 1406 3038 1543 3061 
Q 1681 3084 1819 3084 
Q 2600 3084 3056 2656 
Q 3513 2228 3513 1497 
Q 3513 744 3044 326 
Q 2575 -91 1722 -91 
Q 1428 -91 1123 -41 
Q 819 9 494 109 
L 494 744 
Q 775 591 1075 516 
Q 1375 441 1709 441 
Q 2250 441 2565 725 
Q 2881 1009 2881 1497 
Q 2881 1984 2565 2268 
Q 2250 2553 1709 2553 
Q 1456 2553 1204 2497 
Q 953 2441 691 2322 
L 691 4666 
z
" transform="scale(0.015625)"/>
      </defs>
      <use xlink:href="#DejaVuSans-46"/>
      <use xlink:href="#DejaVuSans-45" x="57.519531"/>
      <use xlink:href="#DejaVuSans-35" x="120.703125"/>
      <use xlink:href="#DejaVuSans-30" x="184.326172"/>
      <use xlink:href="#DejaVuSans-30" x="247.949219"/>
      <use xlink:href="#DejaVuSans-30" x="311.572266"/>
     </g>
    </g>
    <g id="line2d_21">
     <path d="M 245.082812 159.380313 
L 255.082812 159.380313 
L 265.082812 159.380313 
" style="fill: none; stroke: #ff7f0e; stroke-width: 2; stroke-linecap: square"/>
    </g>
    <g id="text_21">
     <!-- FE3000 -->
     <g transform="translate(273.082812 162.880313) scale(0.1 -0.1)">
      <use xlink:href="#DejaVuSans-46"/>
      <use xlink:href="#DejaVuSans-45" x="57.519531"/>
      <use xlink:href="#DejaVuSans-33" x="120.703125"/>
      <use xlink:href="#DejaVuSans-30" x="184.326172"/>
      <use xlink:href="#DejaVuSans-30" x="247.949219"/>
      <use xlink:href="#DejaVuSans-30" x="311.572266"/>
     </g>
    </g>
    <g id="line2d_22">
     <path d="M 245.082812 174.058438 
L 255.082812 174.058438 
L 265.082812 174.058438 
" style="fill: none; stroke: #2ca02c; stroke-width: 2; stroke-linecap: square"/>
    </g>
    <g id="text_22">
     <!-- FE10000 -->
     <g transform="translate(273.082812 177.558438) scale(0.1 -0.1)">
      <use xlink:href="#DejaVuSans-46"/>
      <use xlink:href="#DejaVuSans-45" x="57.519531"/>
      <use xlink:href="#DejaVuSans-31" x="120.703125"/>
      <use xlink:href="#DejaVuSans-30" x="184.326172"/>
      <use xlink:href="#DejaVuSans-30" x="247.949219"/>
      <use xlink:href="#DejaVuSans-30" x="311.572266"/>
      <use xlink:href="#DejaVuSans-30" x="375.195312"/>
     </g>
    </g>
   </g>
  </g>
 </g>
 <defs>
  <clipPath id="pe90699d039">
   <rect x="46.965625" y="22.318125" width="279" height="166.32"/>
  </clipPath>
 </defs>
</svg>
