<?xml version="1.0" encoding="utf-8" standalone="no"?>
<!DOCTYPE svg PUBLIC "-//W3C//DTD SVG 1.1//EN"
  "http://www.w3.org/Graphics/SVG/1.1/DTD/svg11.dtd">
<svg xmlns:xlink="http://www.w3.org/1999/xlink" width="334.855876pt" height="226.194375pt" viewBox="0 0 334.855876 226.194375" xmlns="http://www.w3.org/2000/svg" version="1.1">
 <metadata>
  <rdf:RDF xmlns:dc="http://purl.org/dc/elements/1.1/" xmlns:cc="http://creativecommons.org/ns#" xmlns:rdf="http://www.w3.org/1999/02/22-rdf-syntax-ns#">
   <cc:Work>
    <dc:type rdf:resource="http://purl.org/dc/dcmitype/StillImage"/>
    <dc:date>2024-07-12T13:36:59.110619</dc:date>
    <dc:format>image/svg+xml</dc:format>
    <dc:creator>
     <cc:Agent>
      <dc:title>Matplotlib v3.7.4, https://matplotlib.org/</dc:title>
     </cc:Agent>
    </dc:creator>
   </cc:Work>
  </rdf:RDF>
 </metadata>
 <defs>
  <style type="text/css">*{stroke-linejoin: round; stroke-linecap: butt}</style>
 </defs>
 <g id="figure_1">
  <g id="patch_1">
   <path d="M 0 226.194375 
L 334.855876 226.194375 
L 334.855876 0 
L 0 0 
z
" style="fill: #ffffff"/>
  </g>
  <g id="axes_1">
   <g id="patch_2">
    <path d="M 40.603125 188.638125 
L 319.603125 188.638125 
L 319.603125 22.318125 
L 40.603125 22.318125 
z
" style="fill: #ffffff"/>
   </g>
   <g id="PolyCollection_1">
    <path d="M 53.284943 166.164474 
L 53.284943 177.971484 
L 55.9548 170.824074 
L 58.624656 167.90546 
L 61.294513 164.517199 
L 63.964369 159.4835 
L 66.634225 156.690021 
L 69.304082 153.983469 
L 71.973938 151.578573 
L 74.643795 148.790543 
L 77.313651 145.723726 
L 79.983508 142.59727 
L 82.653364 141.520297 
L 85.323221 137.589612 
L 87.993077 135.75937 
L 90.662934 135.835946 
L 93.33279 134.945424 
L 96.002647 132.373076 
L 98.672503 129.568156 
L 101.342359 128.610619 
L 104.012216 128.108055 
L 106.682072 126.371757 
L 109.351929 124.273858 
L 112.021785 125.583766 
L 114.691642 124.400416 
L 117.361498 122.578246 
L 120.031355 119.266229 
L 122.701211 121.150439 
L 125.371068 120.773027 
L 128.040924 120.807733 
L 130.710781 119.607295 
L 133.380637 120.9926 
L 136.050493 121.967612 
L 138.72035 121.606337 
L 141.390206 122.571825 
L 144.060063 122.321256 
L 146.729919 122.704952 
L 149.399776 121.574087 
L 152.069632 121.429008 
L 154.739489 121.002721 
L 157.409345 121.538888 
L 160.079202 122.608603 
L 162.749058 121.844144 
L 165.418914 122.04524 
L 168.088771 122.037844 
L 170.758627 122.2013 
L 173.428484 120.886414 
L 176.09834 121.051205 
L 178.768197 120.706253 
L 181.438053 119.461564 
L 184.10791 120.211094 
L 186.777766 121.073446 
L 189.447623 121.181687 
L 192.117479 122.65573 
L 194.787336 122.788617 
L 197.457192 129.569972 
L 200.127048 127.709472 
L 202.796905 128.571583 
L 205.466761 127.171426 
L 208.136618 127.915954 
L 210.806474 121.081318 
L 213.476331 122.09738 
L 216.146187 121.397397 
L 218.816044 123.819747 
L 221.4859 125.379247 
L 224.155757 126.135198 
L 226.825613 126.560131 
L 229.495469 125.869001 
L 232.165326 122.995207 
L 234.835182 121.40041 
L 237.505039 119.550942 
L 240.174895 118.232954 
L 242.844752 119.345577 
L 245.514608 119.355548 
L 248.184465 119.776737 
L 250.854321 119.586661 
L 253.524178 120.457531 
L 256.194034 119.335634 
L 258.863891 119.762475 
L 261.533747 119.27542 
L 264.203603 119.932825 
L 266.87346 119.246335 
L 269.543316 119.738638 
L 272.213173 119.406902 
L 274.883029 119.935389 
L 277.552886 120.694014 
L 280.222742 123.820891 
L 282.892599 124.819346 
L 285.562455 127.704273 
L 288.232312 125.616533 
L 290.902168 125.16728 
L 293.572025 122.497207 
L 296.241881 121.322171 
L 298.911737 117.57366 
L 301.581594 118.47397 
L 304.25145 117.131379 
L 306.921307 116.917641 
L 306.921307 97.287146 
L 306.921307 97.287146 
L 304.25145 97.07984 
L 301.581594 97.628231 
L 298.911737 96.171244 
L 296.241881 96.999043 
L 293.572025 98.242407 
L 290.902168 100.692142 
L 288.232312 101.017934 
L 285.562455 102.625331 
L 282.892599 101.660755 
L 280.222742 100.340504 
L 277.552886 97.723678 
L 274.883029 97.511084 
L 272.213173 95.968493 
L 269.543316 96.376428 
L 266.87346 96.482816 
L 264.203603 96.101842 
L 261.533747 96.373332 
L 258.863891 97.783693 
L 256.194034 97.760299 
L 253.524178 100.581167 
L 250.854321 103.616378 
L 248.184465 104.921723 
L 245.514608 106.37845 
L 242.844752 107.398233 
L 240.174895 106.147126 
L 237.505039 106.774793 
L 234.835182 107.742506 
L 232.165326 107.028881 
L 229.495469 107.618674 
L 226.825613 108.104586 
L 224.155757 106.307291 
L 221.4859 105.963384 
L 218.816044 105.805562 
L 216.146187 105.574746 
L 213.476331 105.636946 
L 210.806474 106.723759 
L 208.136618 104.14062 
L 205.466761 103.775643 
L 202.796905 101.632599 
L 200.127048 99.426685 
L 197.457192 97.61764 
L 194.787336 98.188978 
L 192.117479 97.887711 
L 189.447623 97.371076 
L 186.777766 98.260794 
L 184.10791 98.955917 
L 181.438053 98.94648 
L 178.768197 99.020334 
L 176.09834 99.424701 
L 173.428484 99.033132 
L 170.758627 99.081812 
L 168.088771 98.981559 
L 165.418914 102.534229 
L 162.749058 103.770864 
L 160.079202 105.222201 
L 157.409345 106.552409 
L 154.739489 108.686907 
L 152.069632 105.391985 
L 149.399776 105.787187 
L 146.729919 104.540548 
L 144.060063 103.74077 
L 141.390206 102.994944 
L 138.72035 103.503766 
L 136.050493 105.692746 
L 133.380637 105.934519 
L 130.710781 106.027009 
L 128.040924 106.035771 
L 125.371068 108.106179 
L 122.701211 107.455411 
L 120.031355 109.11772 
L 117.361498 109.648774 
L 114.691642 110.283596 
L 112.021785 109.254613 
L 109.351929 108.647809 
L 106.682072 110.126057 
L 104.012216 111.374168 
L 101.342359 112.215875 
L 98.672503 113.368007 
L 96.002647 114.534797 
L 93.33279 113.354959 
L 90.662934 114.866758 
L 87.993077 116.32298 
L 85.323221 116.67959 
L 82.653364 122.631547 
L 79.983508 126.111588 
L 77.313651 127.638624 
L 74.643795 129.135253 
L 71.973938 134.232754 
L 69.304082 135.699873 
L 66.634225 139.299816 
L 63.964369 145.292337 
L 61.294513 151.874682 
L 58.624656 155.545451 
L 55.9548 159.644059 
L 53.284943 166.164474 
z
" clip-path="url(#pcd44687cd5)" style="fill: #1f77b4; fill-opacity: 0.2"/>
   </g>
   <g id="PolyCollection_2">
    <path d="M 53.284943 161.956046 
L 53.284943 181.078125 
L 55.9548 173.561146 
L 58.624656 168.164596 
L 61.294513 165.612138 
L 63.964369 162.727843 
L 66.634225 162.072523 
L 69.304082 160.984376 
L 71.973938 160.570522 
L 74.643795 159.043731 
L 77.313651 157.316698 
L 79.983508 155.127889 
L 82.653364 154.473491 
L 85.323221 152.995723 
L 87.993077 151.597871 
L 90.662934 152.744731 
L 93.33279 153.10529 
L 96.002647 152.859871 
L 98.672503 153.57374 
L 101.342359 155.60481 
L 104.012216 154.05658 
L 106.682072 153.7868 
L 109.351929 153.07555 
L 112.021785 152.145466 
L 114.691642 149.936758 
L 117.361498 149.136578 
L 120.031355 148.572424 
L 122.701211 148.004893 
L 125.371068 148.053089 
L 128.040924 147.443942 
L 130.710781 146.543602 
L 133.380637 145.672967 
L 136.050493 145.26601 
L 138.72035 144.753769 
L 141.390206 145.424035 
L 144.060063 145.759348 
L 146.729919 145.595657 
L 149.399776 146.070727 
L 152.069632 144.611551 
L 154.739489 146.722517 
L 157.409345 149.613343 
L 160.079202 150.176856 
L 162.749058 151.316131 
L 165.418914 152.660861 
L 168.088771 149.884946 
L 170.758627 146.948994 
L 173.428484 145.516788 
L 176.09834 143.993227 
L 178.768197 143.081461 
L 181.438053 142.51566 
L 184.10791 141.972588 
L 186.777766 143.222989 
L 189.447623 142.438507 
L 192.117479 141.645478 
L 194.787336 141.450173 
L 197.457192 141.433455 
L 200.127048 140.923749 
L 202.796905 141.049954 
L 205.466761 141.52265 
L 208.136618 142.064018 
L 210.806474 140.615275 
L 213.476331 139.588884 
L 216.146187 139.390713 
L 218.816044 138.888551 
L 221.4859 136.756856 
L 224.155757 137.126992 
L 226.825613 136.874974 
L 229.495469 136.142101 
L 232.165326 135.268475 
L 234.835182 134.882111 
L 237.505039 133.348103 
L 240.174895 132.58266 
L 242.844752 132.458001 
L 245.514608 132.999478 
L 248.184465 136.821804 
L 250.854321 138.270691 
L 253.524178 140.231014 
L 256.194034 142.720871 
L 258.863891 142.877704 
L 261.533747 139.318295 
L 264.203603 139.828766 
L 266.87346 137.91514 
L 269.543316 135.955709 
L 272.213173 134.976169 
L 274.883029 135.571319 
L 277.552886 135.329539 
L 280.222742 134.643035 
L 282.892599 133.182336 
L 285.562455 133.575907 
L 288.232312 133.783678 
L 290.902168 133.012186 
L 293.572025 132.959259 
L 296.241881 132.999411 
L 298.911737 133.723373 
L 301.581594 133.398008 
L 304.25145 133.533707 
L 306.921307 135.39122 
L 306.921307 121.365205 
L 306.921307 121.365205 
L 304.25145 120.989556 
L 301.581594 121.199865 
L 298.911737 121.327307 
L 296.241881 121.361767 
L 293.572025 121.620604 
L 290.902168 121.812091 
L 288.232312 121.724955 
L 285.562455 121.605984 
L 282.892599 121.515875 
L 280.222742 122.301202 
L 277.552886 123.155785 
L 274.883029 122.355715 
L 272.213173 122.390002 
L 269.543316 123.162517 
L 266.87346 122.468887 
L 264.203603 122.060329 
L 261.533747 122.079401 
L 258.863891 121.561004 
L 256.194034 121.527452 
L 253.524178 121.089499 
L 250.854321 120.906708 
L 248.184465 121.10523 
L 245.514608 121.125006 
L 242.844752 120.068795 
L 240.174895 120.600191 
L 237.505039 120.349302 
L 234.835182 120.572494 
L 232.165326 121.127763 
L 229.495469 120.827864 
L 226.825613 120.146446 
L 224.155757 120.704849 
L 221.4859 120.671061 
L 218.816044 120.993786 
L 216.146187 121.536168 
L 213.476331 122.284775 
L 210.806474 122.42642 
L 208.136618 122.889243 
L 205.466761 122.591889 
L 202.796905 123.324434 
L 200.127048 122.501289 
L 197.457192 121.780616 
L 194.787336 120.737364 
L 192.117479 120.750453 
L 189.447623 120.008878 
L 186.777766 120.140302 
L 184.10791 121.007361 
L 181.438053 122.612549 
L 178.768197 123.119593 
L 176.09834 124.217157 
L 173.428484 125.045105 
L 170.758627 124.994476 
L 168.088771 125.168999 
L 165.418914 124.898959 
L 162.749058 124.270377 
L 160.079202 123.691043 
L 157.409345 123.392679 
L 154.739489 122.203097 
L 152.069632 123.704316 
L 149.399776 123.199637 
L 146.729919 122.882295 
L 144.060063 123.997269 
L 141.390206 124.476657 
L 138.72035 123.418024 
L 136.050493 123.958045 
L 133.380637 125.210522 
L 130.710781 124.594591 
L 128.040924 125.399996 
L 125.371068 126.174998 
L 122.701211 127.285746 
L 120.031355 128.76871 
L 117.361498 129.418903 
L 114.691642 130.265294 
L 112.021785 130.773428 
L 109.351929 132.64766 
L 106.682072 131.838645 
L 104.012216 133.606497 
L 101.342359 132.938153 
L 98.672503 134.34404 
L 96.002647 132.86334 
L 93.33279 134.673561 
L 90.662934 135.950026 
L 87.993077 138.625109 
L 85.323221 139.617357 
L 82.653364 141.785201 
L 79.983508 143.757598 
L 77.313651 145.281292 
L 74.643795 145.270295 
L 71.973938 145.266582 
L 69.304082 145.64514 
L 66.634225 146.401666 
L 63.964369 146.155417 
L 61.294513 148.197971 
L 58.624656 150.991723 
L 55.9548 156.57317 
L 53.284943 161.956046 
z
" clip-path="url(#pcd44687cd5)" style="fill: #ff7f0e; fill-opacity: 0.2"/>
   </g>
   <g id="PolyCollection_3">
    <path d="M 53.284943 127.04608 
L 53.284943 167.396238 
L 55.9548 161.349449 
L 58.624656 156.513277 
L 61.294513 155.693086 
L 63.964369 151.982933 
L 66.634225 148.50918 
L 69.304082 144.99517 
L 71.973938 139.436806 
L 74.643795 134.163351 
L 77.313651 130.84134 
L 79.983508 125.592996 
L 82.653364 121.962853 
L 85.323221 119.398297 
L 87.993077 115.942719 
L 90.662934 113.022628 
L 93.33279 110.813775 
L 96.002647 106.034338 
L 98.672503 104.959788 
L 101.342359 105.167151 
L 104.012216 103.261916 
L 106.682072 101.092705 
L 109.351929 101.149224 
L 112.021785 98.635678 
L 114.691642 94.859048 
L 117.361498 93.688415 
L 120.031355 93.333378 
L 122.701211 95.464113 
L 125.371068 101.59472 
L 128.040924 103.206782 
L 130.710781 103.791125 
L 133.380637 108.249263 
L 136.050493 104.245746 
L 138.72035 97.031219 
L 141.390206 91.602074 
L 144.060063 88.119268 
L 146.729919 80.457065 
L 149.399776 79.357926 
L 152.069632 78.085307 
L 154.739489 79.518983 
L 157.409345 79.375705 
L 160.079202 78.918421 
L 162.749058 80.188092 
L 165.418914 80.453322 
L 168.088771 79.555625 
L 170.758627 79.751459 
L 173.428484 82.736215 
L 176.09834 81.365918 
L 178.768197 80.252796 
L 181.438053 79.288215 
L 184.10791 79.562555 
L 186.777766 77.927209 
L 189.447623 76.598087 
L 192.117479 77.26946 
L 194.787336 78.405424 
L 197.457192 78.766043 
L 200.127048 76.913476 
L 202.796905 77.213624 
L 205.466761 76.530109 
L 208.136618 74.571211 
L 210.806474 71.944512 
L 213.476331 70.361828 
L 216.146187 67.851682 
L 218.816044 65.139418 
L 221.4859 64.016667 
L 224.155757 62.384876 
L 226.825613 63.210744 
L 229.495469 63.897029 
L 232.165326 64.302823 
L 234.835182 63.464326 
L 237.505039 63.337 
L 240.174895 61.905354 
L 242.844752 62.788664 
L 245.514608 62.050259 
L 248.184465 64.821724 
L 250.854321 65.494204 
L 253.524178 67.044773 
L 256.194034 66.897937 
L 258.863891 66.418171 
L 261.533747 64.3012 
L 264.203603 64.518998 
L 266.87346 61.998624 
L 269.543316 62.003992 
L 272.213173 62.777093 
L 274.883029 62.376719 
L 277.552886 61.783548 
L 280.222742 64.499171 
L 282.892599 64.858079 
L 285.562455 69.46387 
L 288.232312 78.182651 
L 290.902168 77.897669 
L 293.572025 80.725984 
L 296.241881 80.621067 
L 298.911737 74.781188 
L 301.581594 66.702902 
L 304.25145 69.61619 
L 306.921307 66.032878 
L 306.921307 39.236445 
L 306.921307 39.236445 
L 304.25145 40.016547 
L 301.581594 39.469463 
L 298.911737 36.606176 
L 296.241881 34.514818 
L 293.572025 32.876532 
L 290.902168 30.646787 
L 288.232312 29.878125 
L 285.562455 33.304724 
L 282.892599 32.81129 
L 280.222742 34.381971 
L 277.552886 35.389278 
L 274.883029 36.447822 
L 272.213173 36.044875 
L 269.543316 37.754464 
L 266.87346 37.469109 
L 264.203603 37.961446 
L 261.533747 38.112352 
L 258.863891 37.430985 
L 256.194034 37.000102 
L 253.524178 38.692794 
L 250.854321 38.326651 
L 248.184465 39.05316 
L 245.514608 42.308305 
L 242.844752 43.468602 
L 240.174895 42.442919 
L 237.505039 45.150855 
L 234.835182 44.192525 
L 232.165326 43.58815 
L 229.495469 44.063409 
L 226.825613 43.450446 
L 224.155757 43.074832 
L 221.4859 43.308297 
L 218.816044 43.302127 
L 216.146187 44.847792 
L 213.476331 47.560364 
L 210.806474 46.569416 
L 208.136618 47.400517 
L 205.466761 47.229691 
L 202.796905 45.710027 
L 200.127048 45.024806 
L 197.457192 46.336742 
L 194.787336 49.295856 
L 192.117479 53.786708 
L 189.447623 56.758135 
L 186.777766 59.663788 
L 184.10791 61.573715 
L 181.438053 59.671494 
L 178.768197 57.608342 
L 176.09834 55.090489 
L 173.428484 53.128455 
L 170.758627 53.262586 
L 168.088771 53.139396 
L 165.418914 54.433697 
L 162.749058 55.825799 
L 160.079202 54.962646 
L 157.409345 53.885325 
L 154.739489 55.00013 
L 152.069632 52.039519 
L 149.399776 52.323424 
L 146.729919 51.864905 
L 144.060063 51.753773 
L 141.390206 52.963695 
L 138.72035 56.518653 
L 136.050493 54.488251 
L 133.380637 53.049783 
L 130.710781 53.810854 
L 128.040924 53.299198 
L 125.371068 50.087323 
L 122.701211 54.311509 
L 120.031355 58.433566 
L 117.361498 57.787806 
L 114.691642 59.701921 
L 112.021785 62.51672 
L 109.351929 60.389089 
L 106.682072 61.996987 
L 104.012216 63.967358 
L 101.342359 64.367323 
L 98.672503 67.854964 
L 96.002647 70.140448 
L 93.33279 70.830713 
L 90.662934 75.359938 
L 87.993077 79.550975 
L 85.323221 80.682641 
L 82.653364 83.590361 
L 79.983508 85.604869 
L 77.313651 86.69325 
L 74.643795 89.574181 
L 71.973938 91.892961 
L 69.304082 93.97057 
L 66.634225 95.522339 
L 63.964369 100.530999 
L 61.294513 102.380596 
L 58.624656 107.50607 
L 55.9548 117.049093 
L 53.284943 127.04608 
z
" clip-path="url(#pcd44687cd5)" style="fill: #2ca02c; fill-opacity: 0.2"/>
   </g>
   <g id="matplotlib.axis_1">
    <g id="xtick_1">
     <g id="line2d_1">
      <defs>
       <path id="m04218ad9ed" d="M 0 0 
L 0 3.5 
" style="stroke: #000000; stroke-width: 0.8"/>
      </defs>
      <g>
       <use xlink:href="#m04218ad9ed" x="47.94523" y="188.638125" style="stroke: #000000; stroke-width: 0.8"/>
      </g>
     </g>
     <g id="text_1">
      <!-- 0 -->
      <g transform="translate(44.76398 203.236563) scale(0.1 -0.1)">
       <defs>
        <path id="DejaVuSans-30" d="M 2034 4250 
Q 1547 4250 1301 3770 
Q 1056 3291 1056 2328 
Q 1056 1369 1301 889 
Q 1547 409 2034 409 
Q 2525 409 2770 889 
Q 3016 1369 3016 2328 
Q 3016 3291 2770 3770 
Q 2525 4250 2034 4250 
z
M 2034 4750 
Q 2819 4750 3233 4129 
Q 3647 3509 3647 2328 
Q 3647 1150 3233 529 
Q 2819 -91 2034 -91 
Q 1250 -91 836 529 
Q 422 1150 422 2328 
Q 422 3509 836 4129 
Q 1250 4750 2034 4750 
z
" transform="scale(0.015625)"/>
       </defs>
       <use xlink:href="#DejaVuSans-30"/>
      </g>
     </g>
    </g>
    <g id="xtick_2">
     <g id="line2d_2">
      <g>
       <use xlink:href="#m04218ad9ed" x="81.318436" y="188.638125" style="stroke: #000000; stroke-width: 0.8"/>
      </g>
     </g>
     <g id="text_2">
      <!-- 200 -->
      <g transform="translate(71.774686 203.236563) scale(0.1 -0.1)">
       <defs>
        <path id="DejaVuSans-32" d="M 1228 531 
L 3431 531 
L 3431 0 
L 469 0 
L 469 531 
Q 828 903 1448 1529 
Q 2069 2156 2228 2338 
Q 2531 2678 2651 2914 
Q 2772 3150 2772 3378 
Q 2772 3750 2511 3984 
Q 2250 4219 1831 4219 
Q 1534 4219 1204 4116 
Q 875 4013 500 3803 
L 500 4441 
Q 881 4594 1212 4672 
Q 1544 4750 1819 4750 
Q 2544 4750 2975 4387 
Q 3406 4025 3406 3419 
Q 3406 3131 3298 2873 
Q 3191 2616 2906 2266 
Q 2828 2175 2409 1742 
Q 1991 1309 1228 531 
z
" transform="scale(0.015625)"/>
       </defs>
       <use xlink:href="#DejaVuSans-32"/>
       <use xlink:href="#DejaVuSans-30" x="63.623047"/>
       <use xlink:href="#DejaVuSans-30" x="127.246094"/>
      </g>
     </g>
    </g>
    <g id="xtick_3">
     <g id="line2d_3">
      <g>
       <use xlink:href="#m04218ad9ed" x="114.691642" y="188.638125" style="stroke: #000000; stroke-width: 0.8"/>
      </g>
     </g>
     <g id="text_3">
      <!-- 400 -->
      <g transform="translate(105.147892 203.236563) scale(0.1 -0.1)">
       <defs>
        <path id="DejaVuSans-34" d="M 2419 4116 
L 825 1625 
L 2419 1625 
L 2419 4116 
z
M 2253 4666 
L 3047 4666 
L 3047 1625 
L 3713 1625 
L 3713 1100 
L 3047 1100 
L 3047 0 
L 2419 0 
L 2419 1100 
L 313 1100 
L 313 1709 
L 2253 4666 
z
" transform="scale(0.015625)"/>
       </defs>
       <use xlink:href="#DejaVuSans-34"/>
       <use xlink:href="#DejaVuSans-30" x="63.623047"/>
       <use xlink:href="#DejaVuSans-30" x="127.246094"/>
      </g>
     </g>
    </g>
    <g id="xtick_4">
     <g id="line2d_4">
      <g>
       <use xlink:href="#m04218ad9ed" x="148.064847" y="188.638125" style="stroke: #000000; stroke-width: 0.8"/>
      </g>
     </g>
     <g id="text_4">
      <!-- 600 -->
      <g transform="translate(138.521097 203.236563) scale(0.1 -0.1)">
       <defs>
        <path id="DejaVuSans-36" d="M 2113 2584 
Q 1688 2584 1439 2293 
Q 1191 2003 1191 1497 
Q 1191 994 1439 701 
Q 1688 409 2113 409 
Q 2538 409 2786 701 
Q 3034 994 3034 1497 
Q 3034 2003 2786 2293 
Q 2538 2584 2113 2584 
z
M 3366 4563 
L 3366 3988 
Q 3128 4100 2886 4159 
Q 2644 4219 2406 4219 
Q 1781 4219 1451 3797 
Q 1122 3375 1075 2522 
Q 1259 2794 1537 2939 
Q 1816 3084 2150 3084 
Q 2853 3084 3261 2657 
Q 3669 2231 3669 1497 
Q 3669 778 3244 343 
Q 2819 -91 2113 -91 
Q 1303 -91 875 529 
Q 447 1150 447 2328 
Q 447 3434 972 4092 
Q 1497 4750 2381 4750 
Q 2619 4750 2861 4703 
Q 3103 4656 3366 4563 
z
" transform="scale(0.015625)"/>
       </defs>
       <use xlink:href="#DejaVuSans-36"/>
       <use xlink:href="#DejaVuSans-30" x="63.623047"/>
       <use xlink:href="#DejaVuSans-30" x="127.246094"/>
      </g>
     </g>
    </g>
    <g id="xtick_5">
     <g id="line2d_5">
      <g>
       <use xlink:href="#m04218ad9ed" x="181.438053" y="188.638125" style="stroke: #000000; stroke-width: 0.8"/>
      </g>
     </g>
     <g id="text_5">
      <!-- 800 -->
      <g transform="translate(171.894303 203.236563) scale(0.1 -0.1)">
       <defs>
        <path id="DejaVuSans-38" d="M 2034 2216 
Q 1584 2216 1326 1975 
Q 1069 1734 1069 1313 
Q 1069 891 1326 650 
Q 1584 409 2034 409 
Q 2484 409 2743 651 
Q 3003 894 3003 1313 
Q 3003 1734 2745 1975 
Q 2488 2216 2034 2216 
z
M 1403 2484 
Q 997 2584 770 2862 
Q 544 3141 544 3541 
Q 544 4100 942 4425 
Q 1341 4750 2034 4750 
Q 2731 4750 3128 4425 
Q 3525 4100 3525 3541 
Q 3525 3141 3298 2862 
Q 3072 2584 2669 2484 
Q 3125 2378 3379 2068 
Q 3634 1759 3634 1313 
Q 3634 634 3220 271 
Q 2806 -91 2034 -91 
Q 1263 -91 848 271 
Q 434 634 434 1313 
Q 434 1759 690 2068 
Q 947 2378 1403 2484 
z
M 1172 3481 
Q 1172 3119 1398 2916 
Q 1625 2713 2034 2713 
Q 2441 2713 2670 2916 
Q 2900 3119 2900 3481 
Q 2900 3844 2670 4047 
Q 2441 4250 2034 4250 
Q 1625 4250 1398 4047 
Q 1172 3844 1172 3481 
z
" transform="scale(0.015625)"/>
       </defs>
       <use xlink:href="#DejaVuSans-38"/>
       <use xlink:href="#DejaVuSans-30" x="63.623047"/>
       <use xlink:href="#DejaVuSans-30" x="127.246094"/>
      </g>
     </g>
    </g>
    <g id="xtick_6">
     <g id="line2d_6">
      <g>
       <use xlink:href="#m04218ad9ed" x="214.811259" y="188.638125" style="stroke: #000000; stroke-width: 0.8"/>
      </g>
     </g>
     <g id="text_6">
      <!-- 1000 -->
      <g transform="translate(202.086259 203.236563) scale(0.1 -0.1)">
       <defs>
        <path id="DejaVuSans-31" d="M 794 531 
L 1825 531 
L 1825 4091 
L 703 3866 
L 703 4441 
L 1819 4666 
L 2450 4666 
L 2450 531 
L 3481 531 
L 3481 0 
L 794 0 
L 794 531 
z
" transform="scale(0.015625)"/>
       </defs>
       <use xlink:href="#DejaVuSans-31"/>
       <use xlink:href="#DejaVuSans-30" x="63.623047"/>
       <use xlink:href="#DejaVuSans-30" x="127.246094"/>
       <use xlink:href="#DejaVuSans-30" x="190.869141"/>
      </g>
     </g>
    </g>
    <g id="xtick_7">
     <g id="line2d_7">
      <g>
       <use xlink:href="#m04218ad9ed" x="248.184465" y="188.638125" style="stroke: #000000; stroke-width: 0.8"/>
      </g>
     </g>
     <g id="text_7">
      <!-- 1200 -->
      <g transform="translate(235.459465 203.236563) scale(0.1 -0.1)">
       <use xlink:href="#DejaVuSans-31"/>
       <use xlink:href="#DejaVuSans-32" x="63.623047"/>
       <use xlink:href="#DejaVuSans-30" x="127.246094"/>
       <use xlink:href="#DejaVuSans-30" x="190.869141"/>
      </g>
     </g>
    </g>
    <g id="xtick_8">
     <g id="line2d_8">
      <g>
       <use xlink:href="#m04218ad9ed" x="281.55767" y="188.638125" style="stroke: #000000; stroke-width: 0.8"/>
      </g>
     </g>
     <g id="text_8">
      <!-- 1400 -->
      <g transform="translate(268.83267 203.236563) scale(0.1 -0.1)">
       <use xlink:href="#DejaVuSans-31"/>
       <use xlink:href="#DejaVuSans-34" x="63.623047"/>
       <use xlink:href="#DejaVuSans-30" x="127.246094"/>
       <use xlink:href="#DejaVuSans-30" x="190.869141"/>
      </g>
     </g>
    </g>
    <g id="xtick_9">
     <g id="line2d_9">
      <g>
       <use xlink:href="#m04218ad9ed" x="314.930876" y="188.638125" style="stroke: #000000; stroke-width: 0.8"/>
      </g>
     </g>
     <g id="text_9">
      <!-- 1600 -->
      <g transform="translate(302.205876 203.236563) scale(0.1 -0.1)">
       <use xlink:href="#DejaVuSans-31"/>
       <use xlink:href="#DejaVuSans-36" x="63.623047"/>
       <use xlink:href="#DejaVuSans-30" x="127.246094"/>
       <use xlink:href="#DejaVuSans-30" x="190.869141"/>
      </g>
     </g>
    </g>
    <g id="text_10">
     <!-- Episode -->
     <g transform="translate(160.465625 216.914688) scale(0.1 -0.1)">
      <defs>
       <path id="DejaVuSans-45" d="M 628 4666 
L 3578 4666 
L 3578 4134 
L 1259 4134 
L 1259 2753 
L 3481 2753 
L 3481 2222 
L 1259 2222 
L 1259 531 
L 3634 531 
L 3634 0 
L 628 0 
L 628 4666 
z
" transform="scale(0.015625)"/>
       <path id="DejaVuSans-70" d="M 1159 525 
L 1159 -1331 
L 581 -1331 
L 581 3500 
L 1159 3500 
L 1159 2969 
Q 1341 3281 1617 3432 
Q 1894 3584 2278 3584 
Q 2916 3584 3314 3078 
Q 3713 2572 3713 1747 
Q 3713 922 3314 415 
Q 2916 -91 2278 -91 
Q 1894 -91 1617 61 
Q 1341 213 1159 525 
z
M 3116 1747 
Q 3116 2381 2855 2742 
Q 2594 3103 2138 3103 
Q 1681 3103 1420 2742 
Q 1159 2381 1159 1747 
Q 1159 1113 1420 752 
Q 1681 391 2138 391 
Q 2594 391 2855 752 
Q 3116 1113 3116 1747 
z
" transform="scale(0.015625)"/>
       <path id="DejaVuSans-69" d="M 603 3500 
L 1178 3500 
L 1178 0 
L 603 0 
L 603 3500 
z
M 603 4863 
L 1178 4863 
L 1178 4134 
L 603 4134 
L 603 4863 
z
" transform="scale(0.015625)"/>
       <path id="DejaVuSans-73" d="M 2834 3397 
L 2834 2853 
Q 2591 2978 2328 3040 
Q 2066 3103 1784 3103 
Q 1356 3103 1142 2972 
Q 928 2841 928 2578 
Q 928 2378 1081 2264 
Q 1234 2150 1697 2047 
L 1894 2003 
Q 2506 1872 2764 1633 
Q 3022 1394 3022 966 
Q 3022 478 2636 193 
Q 2250 -91 1575 -91 
Q 1294 -91 989 -36 
Q 684 19 347 128 
L 347 722 
Q 666 556 975 473 
Q 1284 391 1588 391 
Q 1994 391 2212 530 
Q 2431 669 2431 922 
Q 2431 1156 2273 1281 
Q 2116 1406 1581 1522 
L 1381 1569 
Q 847 1681 609 1914 
Q 372 2147 372 2553 
Q 372 3047 722 3315 
Q 1072 3584 1716 3584 
Q 2034 3584 2315 3537 
Q 2597 3491 2834 3397 
z
" transform="scale(0.015625)"/>
       <path id="DejaVuSans-6f" d="M 1959 3097 
Q 1497 3097 1228 2736 
Q 959 2375 959 1747 
Q 959 1119 1226 758 
Q 1494 397 1959 397 
Q 2419 397 2687 759 
Q 2956 1122 2956 1747 
Q 2956 2369 2687 2733 
Q 2419 3097 1959 3097 
z
M 1959 3584 
Q 2709 3584 3137 3096 
Q 3566 2609 3566 1747 
Q 3566 888 3137 398 
Q 2709 -91 1959 -91 
Q 1206 -91 779 398 
Q 353 888 353 1747 
Q 353 2609 779 3096 
Q 1206 3584 1959 3584 
z
" transform="scale(0.015625)"/>
       <path id="DejaVuSans-64" d="M 2906 2969 
L 2906 4863 
L 3481 4863 
L 3481 0 
L 2906 0 
L 2906 525 
Q 2725 213 2448 61 
Q 2172 -91 1784 -91 
Q 1150 -91 751 415 
Q 353 922 353 1747 
Q 353 2572 751 3078 
Q 1150 3584 1784 3584 
Q 2172 3584 2448 3432 
Q 2725 3281 2906 2969 
z
M 947 1747 
Q 947 1113 1208 752 
Q 1469 391 1925 391 
Q 2381 391 2643 752 
Q 2906 1113 2906 1747 
Q 2906 2381 2643 2742 
Q 2381 3103 1925 3103 
Q 1469 3103 1208 2742 
Q 947 2381 947 1747 
z
" transform="scale(0.015625)"/>
       <path id="DejaVuSans-65" d="M 3597 1894 
L 3597 1613 
L 953 1613 
Q 991 1019 1311 708 
Q 1631 397 2203 397 
Q 2534 397 2845 478 
Q 3156 559 3463 722 
L 3463 178 
Q 3153 47 2828 -22 
Q 2503 -91 2169 -91 
Q 1331 -91 842 396 
Q 353 884 353 1716 
Q 353 2575 817 3079 
Q 1281 3584 2069 3584 
Q 2775 3584 3186 3129 
Q 3597 2675 3597 1894 
z
M 3022 2063 
Q 3016 2534 2758 2815 
Q 2500 3097 2075 3097 
Q 1594 3097 1305 2825 
Q 1016 2553 972 2059 
L 3022 2063 
z
" transform="scale(0.015625)"/>
      </defs>
      <use xlink:href="#DejaVuSans-45"/>
      <use xlink:href="#DejaVuSans-70" x="63.183594"/>
      <use xlink:href="#DejaVuSans-69" x="126.660156"/>
      <use xlink:href="#DejaVuSans-73" x="154.443359"/>
      <use xlink:href="#DejaVuSans-6f" x="206.542969"/>
      <use xlink:href="#DejaVuSans-64" x="267.724609"/>
      <use xlink:href="#DejaVuSans-65" x="331.201172"/>
     </g>
    </g>
   </g>
   <g id="matplotlib.axis_2">
    <g id="ytick_1">
     <g id="line2d_10">
      <defs>
       <path id="mc7940a7407" d="M 0 0 
L -3.5 0 
" style="stroke: #000000; stroke-width: 0.8"/>
      </defs>
      <g>
       <use xlink:href="#mc7940a7407" x="40.603125" y="172.574493" style="stroke: #000000; stroke-width: 0.8"/>
      </g>
     </g>
     <g id="text_11">
      <!-- 15 -->
      <g transform="translate(20.878125 176.373711) scale(0.1 -0.1)">
       <defs>
        <path id="DejaVuSans-35" d="M 691 4666 
L 3169 4666 
L 3169 4134 
L 1269 4134 
L 1269 2991 
Q 1406 3038 1543 3061 
Q 1681 3084 1819 3084 
Q 2600 3084 3056 2656 
Q 3513 2228 3513 1497 
Q 3513 744 3044 326 
Q 2575 -91 1722 -91 
Q 1428 -91 1123 -41 
Q 819 9 494 109 
L 494 744 
Q 775 591 1075 516 
Q 1375 441 1709 441 
Q 2250 441 2565 725 
Q 2881 1009 2881 1497 
Q 2881 1984 2565 2268 
Q 2250 2553 1709 2553 
Q 1456 2553 1204 2497 
Q 953 2441 691 2322 
L 691 4666 
z
" transform="scale(0.015625)"/>
       </defs>
       <use xlink:href="#DejaVuSans-31"/>
       <use xlink:href="#DejaVuSans-35" x="63.623047"/>
      </g>
     </g>
    </g>
    <g id="ytick_2">
     <g id="line2d_11">
      <g>
       <use xlink:href="#mc7940a7407" x="40.603125" y="133.982986" style="stroke: #000000; stroke-width: 0.8"/>
      </g>
     </g>
     <g id="text_12">
      <!-- 20 -->
      <g transform="translate(20.878125 137.782204) scale(0.1 -0.1)">
       <use xlink:href="#DejaVuSans-32"/>
       <use xlink:href="#DejaVuSans-30" x="63.623047"/>
      </g>
     </g>
    </g>
    <g id="ytick_3">
     <g id="line2d_12">
      <g>
       <use xlink:href="#mc7940a7407" x="40.603125" y="95.391479" style="stroke: #000000; stroke-width: 0.8"/>
      </g>
     </g>
     <g id="text_13">
      <!-- 25 -->
      <g transform="translate(20.878125 99.190697) scale(0.1 -0.1)">
       <use xlink:href="#DejaVuSans-32"/>
       <use xlink:href="#DejaVuSans-35" x="63.623047"/>
      </g>
     </g>
    </g>
    <g id="ytick_4">
     <g id="line2d_13">
      <g>
       <use xlink:href="#mc7940a7407" x="40.603125" y="56.799972" style="stroke: #000000; stroke-width: 0.8"/>
      </g>
     </g>
     <g id="text_14">
      <!-- 30 -->
      <g transform="translate(20.878125 60.59919) scale(0.1 -0.1)">
       <defs>
        <path id="DejaVuSans-33" d="M 2597 2516 
Q 3050 2419 3304 2112 
Q 3559 1806 3559 1356 
Q 3559 666 3084 287 
Q 2609 -91 1734 -91 
Q 1441 -91 1130 -33 
Q 819 25 488 141 
L 488 750 
Q 750 597 1062 519 
Q 1375 441 1716 441 
Q 2309 441 2620 675 
Q 2931 909 2931 1356 
Q 2931 1769 2642 2001 
Q 2353 2234 1838 2234 
L 1294 2234 
L 1294 2753 
L 1863 2753 
Q 2328 2753 2575 2939 
Q 2822 3125 2822 3475 
Q 2822 3834 2567 4026 
Q 2313 4219 1838 4219 
Q 1578 4219 1281 4162 
Q 984 4106 628 3988 
L 628 4550 
Q 988 4650 1302 4700 
Q 1616 4750 1894 4750 
Q 2613 4750 3031 4423 
Q 3450 4097 3450 3541 
Q 3450 3153 3228 2886 
Q 3006 2619 2597 2516 
z
" transform="scale(0.015625)"/>
       </defs>
       <use xlink:href="#DejaVuSans-33"/>
       <use xlink:href="#DejaVuSans-30" x="63.623047"/>
      </g>
     </g>
    </g>
    <g id="text_15">
     <!-- Performance -->
     <g transform="translate(14.798438 137.160156) rotate(-90) scale(0.1 -0.1)">
      <defs>
       <path id="DejaVuSans-50" d="M 1259 4147 
L 1259 2394 
L 2053 2394 
Q 2494 2394 2734 2622 
Q 2975 2850 2975 3272 
Q 2975 3691 2734 3919 
Q 2494 4147 2053 4147 
L 1259 4147 
z
M 628 4666 
L 2053 4666 
Q 2838 4666 3239 4311 
Q 3641 3956 3641 3272 
Q 3641 2581 3239 2228 
Q 2838 1875 2053 1875 
L 1259 1875 
L 1259 0 
L 628 0 
L 628 4666 
z
" transform="scale(0.015625)"/>
       <path id="DejaVuSans-72" d="M 2631 2963 
Q 2534 3019 2420 3045 
Q 2306 3072 2169 3072 
Q 1681 3072 1420 2755 
Q 1159 2438 1159 1844 
L 1159 0 
L 581 0 
L 581 3500 
L 1159 3500 
L 1159 2956 
Q 1341 3275 1631 3429 
Q 1922 3584 2338 3584 
Q 2397 3584 2469 3576 
Q 2541 3569 2628 3553 
L 2631 2963 
z
" transform="scale(0.015625)"/>
       <path id="DejaVuSans-66" d="M 2375 4863 
L 2375 4384 
L 1825 4384 
Q 1516 4384 1395 4259 
Q 1275 4134 1275 3809 
L 1275 3500 
L 2222 3500 
L 2222 3053 
L 1275 3053 
L 1275 0 
L 697 0 
L 697 3053 
L 147 3053 
L 147 3500 
L 697 3500 
L 697 3744 
Q 697 4328 969 4595 
Q 1241 4863 1831 4863 
L 2375 4863 
z
" transform="scale(0.015625)"/>
       <path id="DejaVuSans-6d" d="M 3328 2828 
Q 3544 3216 3844 3400 
Q 4144 3584 4550 3584 
Q 5097 3584 5394 3201 
Q 5691 2819 5691 2113 
L 5691 0 
L 5113 0 
L 5113 2094 
Q 5113 2597 4934 2840 
Q 4756 3084 4391 3084 
Q 3944 3084 3684 2787 
Q 3425 2491 3425 1978 
L 3425 0 
L 2847 0 
L 2847 2094 
Q 2847 2600 2669 2842 
Q 2491 3084 2119 3084 
Q 1678 3084 1418 2786 
Q 1159 2488 1159 1978 
L 1159 0 
L 581 0 
L 581 3500 
L 1159 3500 
L 1159 2956 
Q 1356 3278 1631 3431 
Q 1906 3584 2284 3584 
Q 2666 3584 2933 3390 
Q 3200 3197 3328 2828 
z
" transform="scale(0.015625)"/>
       <path id="DejaVuSans-61" d="M 2194 1759 
Q 1497 1759 1228 1600 
Q 959 1441 959 1056 
Q 959 750 1161 570 
Q 1363 391 1709 391 
Q 2188 391 2477 730 
Q 2766 1069 2766 1631 
L 2766 1759 
L 2194 1759 
z
M 3341 1997 
L 3341 0 
L 2766 0 
L 2766 531 
Q 2569 213 2275 61 
Q 1981 -91 1556 -91 
Q 1019 -91 701 211 
Q 384 513 384 1019 
Q 384 1609 779 1909 
Q 1175 2209 1959 2209 
L 2766 2209 
L 2766 2266 
Q 2766 2663 2505 2880 
Q 2244 3097 1772 3097 
Q 1472 3097 1187 3025 
Q 903 2953 641 2809 
L 641 3341 
Q 956 3463 1253 3523 
Q 1550 3584 1831 3584 
Q 2591 3584 2966 3190 
Q 3341 2797 3341 1997 
z
" transform="scale(0.015625)"/>
       <path id="DejaVuSans-6e" d="M 3513 2113 
L 3513 0 
L 2938 0 
L 2938 2094 
Q 2938 2591 2744 2837 
Q 2550 3084 2163 3084 
Q 1697 3084 1428 2787 
Q 1159 2491 1159 1978 
L 1159 0 
L 581 0 
L 581 3500 
L 1159 3500 
L 1159 2956 
Q 1366 3272 1645 3428 
Q 1925 3584 2291 3584 
Q 2894 3584 3203 3211 
Q 3513 2838 3513 2113 
z
" transform="scale(0.015625)"/>
       <path id="DejaVuSans-63" d="M 3122 3366 
L 3122 2828 
Q 2878 2963 2633 3030 
Q 2388 3097 2138 3097 
Q 1578 3097 1268 2742 
Q 959 2388 959 1747 
Q 959 1106 1268 751 
Q 1578 397 2138 397 
Q 2388 397 2633 464 
Q 2878 531 3122 666 
L 3122 134 
Q 2881 22 2623 -34 
Q 2366 -91 2075 -91 
Q 1284 -91 818 406 
Q 353 903 353 1747 
Q 353 2603 823 3093 
Q 1294 3584 2113 3584 
Q 2378 3584 2631 3529 
Q 2884 3475 3122 3366 
z
" transform="scale(0.015625)"/>
      </defs>
      <use xlink:href="#DejaVuSans-50"/>
      <use xlink:href="#DejaVuSans-65" x="56.677734"/>
      <use xlink:href="#DejaVuSans-72" x="118.201172"/>
      <use xlink:href="#DejaVuSans-66" x="159.314453"/>
      <use xlink:href="#DejaVuSans-6f" x="194.519531"/>
      <use xlink:href="#DejaVuSans-72" x="255.701172"/>
      <use xlink:href="#DejaVuSans-6d" x="295.064453"/>
      <use xlink:href="#DejaVuSans-61" x="392.476562"/>
      <use xlink:href="#DejaVuSans-6e" x="453.755859"/>
      <use xlink:href="#DejaVuSans-63" x="517.134766"/>
      <use xlink:href="#DejaVuSans-65" x="572.115234"/>
     </g>
    </g>
   </g>
   <g id="line2d_14">
    <path d="M 53.284943 172.067979 
L 55.9548 165.234066 
L 58.624656 161.725455 
L 61.294513 158.19594 
L 63.964369 152.387919 
L 66.634225 147.994919 
L 69.304082 144.841671 
L 71.973938 142.905664 
L 74.643795 138.962898 
L 77.313651 136.681175 
L 79.983508 134.354429 
L 82.653364 132.075922 
L 85.323221 127.134601 
L 87.993077 126.041175 
L 90.662934 125.351352 
L 93.33279 124.150191 
L 96.002647 123.453936 
L 98.672503 121.468082 
L 101.342359 120.413247 
L 104.012216 119.741112 
L 106.682072 118.248907 
L 109.351929 116.460834 
L 112.021785 117.419189 
L 114.691642 117.342006 
L 117.361498 116.11351 
L 120.031355 114.191975 
L 122.701211 114.302925 
L 125.371068 114.439603 
L 128.040924 113.421752 
L 130.710781 112.817152 
L 133.380637 113.46356 
L 136.050493 113.830179 
L 138.72035 112.555051 
L 141.390206 112.783384 
L 144.060063 113.031013 
L 146.729919 113.62275 
L 149.399776 113.680637 
L 152.069632 113.410496 
L 154.739489 114.844814 
L 157.409345 114.045648 
L 160.079202 113.915402 
L 162.749058 112.807504 
L 165.418914 112.289735 
L 168.088771 110.509702 
L 170.758627 110.641556 
L 173.428484 109.959773 
L 176.09834 110.237953 
L 178.768197 109.863294 
L 181.438053 109.204022 
L 184.10791 109.583505 
L 186.777766 109.66712 
L 189.447623 109.276381 
L 192.117479 110.271721 
L 194.787336 110.488798 
L 197.457192 113.593806 
L 200.127048 113.568078 
L 202.796905 115.102091 
L 205.466761 115.473534 
L 208.136618 116.028287 
L 210.806474 113.902538 
L 213.476331 113.867163 
L 216.146187 113.486072 
L 218.816044 114.812655 
L 221.4859 115.671316 
L 224.155757 116.221245 
L 226.825613 117.332358 
L 229.495469 116.743838 
L 232.165326 115.012044 
L 234.835182 114.571458 
L 237.505039 113.162868 
L 240.174895 112.19004 
L 242.844752 113.371905 
L 245.514608 112.866999 
L 248.184465 112.34923 
L 250.854321 111.60152 
L 253.524178 110.519349 
L 256.194034 108.547967 
L 258.863891 108.773084 
L 261.533747 107.824376 
L 264.203603 108.017333 
L 266.87346 107.864575 
L 269.543316 108.057533 
L 272.213173 107.687698 
L 274.883029 108.723236 
L 277.552886 109.208846 
L 280.222742 112.080697 
L 282.892599 113.240051 
L 285.562455 115.164802 
L 288.232312 113.317234 
L 290.902168 112.929711 
L 293.572025 110.369807 
L 296.241881 109.160607 
L 298.911737 106.872452 
L 301.581594 108.051101 
L 304.25145 107.105609 
L 306.921307 107.102393 
" clip-path="url(#pcd44687cd5)" style="fill: none; stroke: #1f77b4; stroke-width: 2; stroke-linecap: square"/>
   </g>
   <g id="line2d_15">
    <path d="M 53.284943 171.517085 
L 55.9548 165.067158 
L 58.624656 159.578159 
L 61.294513 156.905054 
L 63.964369 154.44163 
L 66.634225 154.237095 
L 69.304082 153.314758 
L 71.973938 152.918552 
L 74.643795 152.157013 
L 77.313651 151.298995 
L 79.983508 149.442743 
L 82.653364 148.129346 
L 85.323221 146.30654 
L 87.993077 145.11149 
L 90.662934 144.347378 
L 93.33279 143.889426 
L 96.002647 142.861605 
L 98.672503 143.95889 
L 101.342359 144.271481 
L 104.012216 143.831538 
L 106.682072 142.812722 
L 109.351929 142.861605 
L 112.021785 141.459447 
L 114.691642 140.101026 
L 117.361498 139.27774 
L 120.031355 138.670567 
L 122.701211 137.64532 
L 125.371068 137.114043 
L 128.040924 136.421969 
L 130.710781 135.569097 
L 133.380637 135.441745 
L 136.050493 134.612027 
L 138.72035 134.085896 
L 141.390206 134.950346 
L 144.060063 134.878309 
L 146.729919 134.238976 
L 149.399776 134.635182 
L 152.069632 134.157934 
L 154.739489 134.462807 
L 157.409345 136.503011 
L 160.079202 136.93395 
L 162.749058 137.793254 
L 165.418914 138.77991 
L 168.088771 137.526972 
L 170.758627 135.971735 
L 173.428484 135.280947 
L 176.09834 134.105192 
L 178.768197 133.100527 
L 181.438053 132.564105 
L 184.10791 131.489974 
L 186.777766 131.681645 
L 189.447623 131.223693 
L 192.117479 131.197965 
L 194.787336 131.093768 
L 197.457192 131.607035 
L 200.127048 131.712519 
L 202.796905 132.187194 
L 205.466761 132.057269 
L 208.136618 132.476631 
L 210.806474 131.520848 
L 213.476331 130.936829 
L 216.146187 130.46344 
L 218.816044 129.941169 
L 221.4859 128.713959 
L 224.155757 128.915921 
L 226.825613 128.51071 
L 229.495469 128.484982 
L 232.165326 128.198119 
L 234.835182 127.727302 
L 237.505039 126.848702 
L 240.174895 126.591426 
L 242.844752 126.263398 
L 245.514608 127.062242 
L 248.184465 128.963517 
L 250.854321 129.588699 
L 253.524178 130.660257 
L 256.194034 132.124161 
L 258.863891 132.219354 
L 261.533747 130.698848 
L 264.203603 130.944548 
L 266.87346 130.192013 
L 269.543316 129.559113 
L 272.213173 128.683085 
L 274.883029 128.963517 
L 277.552886 129.242662 
L 280.222742 128.472118 
L 282.892599 127.349106 
L 285.562455 127.590946 
L 288.232312 127.754316 
L 290.902168 127.412138 
L 293.572025 127.289932 
L 296.241881 127.180589 
L 298.911737 127.52534 
L 301.581594 127.298937 
L 304.25145 127.261632 
L 306.921307 128.378212 
" clip-path="url(#pcd44687cd5)" style="fill: none; stroke: #ff7f0e; stroke-width: 2; stroke-linecap: square"/>
   </g>
   <g id="line2d_16">
    <path d="M 53.284943 147.221159 
L 55.9548 139.199271 
L 58.624656 132.009673 
L 61.294513 129.036841 
L 63.964369 126.256966 
L 66.634225 122.015759 
L 69.304082 119.48287 
L 71.973938 115.664884 
L 74.643795 111.868766 
L 77.313651 108.767295 
L 79.983508 105.598932 
L 82.653364 102.776607 
L 85.323221 100.040469 
L 87.993077 97.746847 
L 90.662934 94.191283 
L 93.33279 90.822244 
L 96.002647 88.087393 
L 98.672503 86.407376 
L 101.342359 84.767237 
L 104.012216 83.614637 
L 106.682072 81.544846 
L 109.351929 80.769157 
L 112.021785 80.576199 
L 114.691642 77.280484 
L 117.361498 75.738111 
L 120.031355 75.883472 
L 122.701211 74.887811 
L 125.371068 75.841021 
L 128.040924 78.25299 
L 130.710781 78.80099 
L 133.380637 80.649523 
L 136.050493 79.366999 
L 138.72035 76.774936 
L 141.390206 72.282884 
L 144.060063 69.936521 
L 146.729919 66.160985 
L 149.399776 65.840675 
L 152.069632 65.062413 
L 154.739489 67.259556 
L 157.409345 66.630515 
L 160.079202 66.940533 
L 162.749058 68.006945 
L 165.418914 67.443509 
L 168.088771 66.347511 
L 170.758627 66.507022 
L 173.428484 67.932335 
L 176.09834 68.228203 
L 178.768197 68.930569 
L 181.438053 69.479854 
L 184.10791 70.568135 
L 186.777766 68.795498 
L 189.447623 66.678111 
L 192.117479 65.528084 
L 194.787336 63.85064 
L 197.457192 62.551393 
L 200.127048 60.969141 
L 202.796905 61.461826 
L 205.466761 61.8799 
L 208.136618 60.985864 
L 210.806474 59.256964 
L 213.476331 58.961096 
L 216.146187 56.349737 
L 218.816044 54.220773 
L 221.4859 53.662482 
L 224.155757 52.729854 
L 226.825613 53.330595 
L 229.495469 53.980219 
L 232.165326 53.945487 
L 234.835182 53.828426 
L 237.505039 54.243928 
L 240.174895 52.174136 
L 242.844752 53.128633 
L 245.514608 52.179282 
L 248.184465 51.937442 
L 250.854321 51.910428 
L 253.524178 52.868783 
L 256.194034 51.949019 
L 258.863891 51.924578 
L 261.533747 51.206776 
L 264.203603 51.240222 
L 266.87346 49.733867 
L 269.543316 49.879228 
L 272.213173 49.410984 
L 274.883029 49.412271 
L 277.552886 48.586413 
L 280.222742 49.440571 
L 282.892599 48.834685 
L 285.562455 51.384297 
L 288.232312 54.030388 
L 290.902168 54.272228 
L 293.572025 56.801258 
L 296.241881 57.567943 
L 298.911737 55.693682 
L 301.581594 53.086182 
L 304.25145 54.816368 
L 306.921307 52.634662 
" clip-path="url(#pcd44687cd5)" style="fill: none; stroke: #2ca02c; stroke-width: 2; stroke-linecap: square"/>
   </g>
   <g id="patch_3">
    <path d="M 40.603125 188.638125 
L 40.603125 22.318125 
" style="fill: none; stroke: #000000; stroke-width: 0.8; stroke-linejoin: miter; stroke-linecap: square"/>
   </g>
   <g id="patch_4">
    <path d="M 319.603125 188.638125 
L 319.603125 22.318125 
" style="fill: none; stroke: #000000; stroke-width: 0.8; stroke-linejoin: miter; stroke-linecap: square"/>
   </g>
   <g id="patch_5">
    <path d="M 40.603125 188.638125 
L 319.603125 188.638125 
" style="fill: none; stroke: #000000; stroke-width: 0.8; stroke-linejoin: miter; stroke-linecap: square"/>
   </g>
   <g id="patch_6">
    <path d="M 40.603125 22.318125 
L 319.603125 22.318125 
" style="fill: none; stroke: #000000; stroke-width: 0.8; stroke-linejoin: miter; stroke-linecap: square"/>
   </g>
   <g id="text_16">
    <!-- F14 -->
    <g transform="translate(169.017188 16.318125) scale(0.12 -0.12)">
     <defs>
      <path id="DejaVuSans-46" d="M 628 4666 
L 3309 4666 
L 3309 4134 
L 1259 4134 
L 1259 2759 
L 3109 2759 
L 3109 2228 
L 1259 2228 
L 1259 0 
L 628 0 
L 628 4666 
z
" transform="scale(0.015625)"/>
     </defs>
     <use xlink:href="#DejaVuSans-46"/>
     <use xlink:href="#DejaVuSans-31" x="57.519531"/>
     <use xlink:href="#DejaVuSans-34" x="121.142578"/>
    </g>
   </g>
   <g id="legend_1">
    <g id="patch_7">
     <path d="M 47.603125 74.3525 
L 123.485938 74.3525 
Q 125.485938 74.3525 125.485938 72.3525 
L 125.485938 29.318125 
Q 125.485938 27.318125 123.485938 27.318125 
L 47.603125 27.318125 
Q 45.603125 27.318125 45.603125 29.318125 
L 45.603125 72.3525 
Q 45.603125 74.3525 47.603125 74.3525 
z
" style="fill: #ffffff; opacity: 0.8; stroke: #cccccc; stroke-linejoin: miter"/>
    </g>
    <g id="line2d_17">
     <path d="M 49.603125 35.416563 
L 59.603125 35.416563 
L 69.603125 35.416563 
" style="fill: none; stroke: #1f77b4; stroke-width: 2; stroke-linecap: square"/>
    </g>
    <g id="text_17">
     <!-- FE5000 -->
     <g transform="translate(77.603125 38.916563) scale(0.1 -0.1)">
      <use xlink:href="#DejaVuSans-46"/>
      <use xlink:href="#DejaVuSans-45" x="57.519531"/>
      <use xlink:href="#DejaVuSans-35" x="120.703125"/>
      <use xlink:href="#DejaVuSans-30" x="184.326172"/>
      <use xlink:href="#DejaVuSans-30" x="247.949219"/>
      <use xlink:href="#DejaVuSans-30" x="311.572266"/>
     </g>
    </g>
    <g id="line2d_18">
     <path d="M 49.603125 50.094688 
L 59.603125 50.094688 
L 69.603125 50.094688 
" style="fill: none; stroke: #ff7f0e; stroke-width: 2; stroke-linecap: square"/>
    </g>
    <g id="text_18">
     <!-- FE3000 -->
     <g transform="translate(77.603125 53.594688) scale(0.1 -0.1)">
      <use xlink:href="#DejaVuSans-46"/>
      <use xlink:href="#DejaVuSans-45" x="57.519531"/>
      <use xlink:href="#DejaVuSans-33" x="120.703125"/>
      <use xlink:href="#DejaVuSans-30" x="184.326172"/>
      <use xlink:href="#DejaVuSans-30" x="247.949219"/>
      <use xlink:href="#DejaVuSans-30" x="311.572266"/>
     </g>
    </g>
    <g id="line2d_19">
     <path d="M 49.603125 64.772813 
L 59.603125 64.772813 
L 69.603125 64.772813 
" style="fill: none; stroke: #2ca02c; stroke-width: 2; stroke-linecap: square"/>
    </g>
    <g id="text_19">
     <!-- FE10000 -->
     <g transform="translate(77.603125 68.272813) scale(0.1 -0.1)">
      <use xlink:href="#DejaVuSans-46"/>
      <use xlink:href="#DejaVuSans-45" x="57.519531"/>
      <use xlink:href="#DejaVuSans-31" x="120.703125"/>
      <use xlink:href="#DejaVuSans-30" x="184.326172"/>
      <use xlink:href="#DejaVuSans-30" x="247.949219"/>
      <use xlink:href="#DejaVuSans-30" x="311.572266"/>
      <use xlink:href="#DejaVuSans-30" x="375.195312"/>
     </g>
    </g>
   </g>
  </g>
 </g>
 <defs>
  <clipPath id="pcd44687cd5">
   <rect x="40.603125" y="22.318125" width="279" height="166.32"/>
  </clipPath>
 </defs>
</svg>
