<?xml version="1.0" encoding="utf-8" standalone="no"?>
<!DOCTYPE svg PUBLIC "-//W3C//DTD SVG 1.1//EN"
  "http://www.w3.org/Graphics/SVG/1.1/DTD/svg11.dtd">
<svg xmlns:xlink="http://www.w3.org/1999/xlink" width="334.855876pt" height="226.194375pt" viewBox="0 0 334.855876 226.194375" xmlns="http://www.w3.org/2000/svg" version="1.1">
 <metadata>
  <rdf:RDF xmlns:dc="http://purl.org/dc/elements/1.1/" xmlns:cc="http://creativecommons.org/ns#" xmlns:rdf="http://www.w3.org/1999/02/22-rdf-syntax-ns#">
   <cc:Work>
    <dc:type rdf:resource="http://purl.org/dc/dcmitype/StillImage"/>
    <dc:date>2024-07-12T13:36:59.251618</dc:date>
    <dc:format>image/svg+xml</dc:format>
    <dc:creator>
     <cc:Agent>
      <dc:title>Matplotlib v3.7.4, https://matplotlib.org/</dc:title>
     </cc:Agent>
    </dc:creator>
   </cc:Work>
  </rdf:RDF>
 </metadata>
 <defs>
  <style type="text/css">*{stroke-linejoin: round; stroke-linecap: butt}</style>
 </defs>
 <g id="figure_1">
  <g id="patch_1">
   <path d="M 0 226.194375 
L 334.855876 226.194375 
L 334.855876 0 
L 0 0 
z
" style="fill: #ffffff"/>
  </g>
  <g id="axes_1">
   <g id="patch_2">
    <path d="M 40.603125 188.638125 
L 319.603125 188.638125 
L 319.603125 22.318125 
L 40.603125 22.318125 
z
" style="fill: #ffffff"/>
   </g>
   <g id="PolyCollection_1">
    <path d="M 53.284943 144.010686 
L 53.284943 166.823515 
L 55.9548 163.126411 
L 58.624656 162.217099 
L 61.294513 158.903134 
L 63.964369 155.581719 
L 66.634225 153.595222 
L 69.304082 151.291189 
L 71.973938 147.899543 
L 74.643795 145.313731 
L 77.313651 143.591612 
L 79.983508 140.0897 
L 82.653364 137.168413 
L 85.323221 134.362207 
L 87.993077 131.389223 
L 90.662934 128.439268 
L 93.33279 126.55109 
L 96.002647 124.417024 
L 98.672503 122.417253 
L 101.342359 123.24631 
L 104.012216 122.540768 
L 106.682072 122.000203 
L 109.351929 121.300029 
L 112.021785 121.403638 
L 114.691642 120.176091 
L 117.361498 119.753554 
L 120.031355 118.866233 
L 122.701211 117.968255 
L 125.371068 116.662587 
L 128.040924 116.506127 
L 130.710781 116.574562 
L 133.380637 116.334567 
L 136.050493 116.148625 
L 138.72035 115.947796 
L 141.390206 113.920156 
L 144.060063 111.918482 
L 146.729919 110.447901 
L 149.399776 112.196733 
L 152.069632 110.839754 
L 154.739489 110.848181 
L 157.409345 111.448133 
L 160.079202 111.372271 
L 162.749058 108.105072 
L 165.418914 107.81276 
L 168.088771 107.545041 
L 170.758627 106.698902 
L 173.428484 106.99844 
L 176.09834 107.288171 
L 178.768197 107.469331 
L 181.438053 107.318309 
L 184.10791 107.110822 
L 186.777766 106.571082 
L 189.447623 106.296621 
L 192.117479 106.617642 
L 194.787336 107.58037 
L 197.457192 110.25036 
L 200.127048 112.515988 
L 202.796905 113.720384 
L 205.466761 113.793462 
L 208.136618 113.020618 
L 210.806474 110.313432 
L 213.476331 107.761069 
L 216.146187 106.572331 
L 218.816044 106.333809 
L 221.4859 106.030772 
L 224.155757 106.870543 
L 226.825613 108.597209 
L 229.495469 110.631783 
L 232.165326 110.471995 
L 234.835182 110.437807 
L 237.505039 109.842765 
L 240.174895 111.190415 
L 242.844752 110.911945 
L 245.514608 111.478806 
L 248.184465 112.163702 
L 250.854321 112.385346 
L 253.524178 110.388477 
L 256.194034 108.59211 
L 258.863891 107.715366 
L 261.533747 106.905806 
L 264.203603 106.911267 
L 266.87346 106.128681 
L 269.543316 106.836672 
L 272.213173 109.765806 
L 274.883029 109.911955 
L 277.552886 110.56039 
L 280.222742 110.425629 
L 282.892599 109.562562 
L 285.562455 106.437059 
L 288.232312 106.408901 
L 290.902168 105.365717 
L 293.572025 106.173854 
L 296.241881 107.435361 
L 298.911737 107.758852 
L 301.581594 107.588914 
L 304.25145 107.726157 
L 306.921307 107.383663 
L 306.921307 101.067454 
L 306.921307 101.067454 
L 304.25145 100.611306 
L 301.581594 100.686907 
L 298.911737 100.472662 
L 296.241881 100.655531 
L 293.572025 100.485766 
L 290.902168 100.56382 
L 288.232312 100.826696 
L 285.562455 101.270491 
L 282.892599 100.071328 
L 280.222742 99.973018 
L 277.552886 99.406758 
L 274.883029 98.916724 
L 272.213173 98.700722 
L 269.543316 99.191109 
L 266.87346 99.67757 
L 264.203603 99.428581 
L 261.533747 99.911775 
L 258.863891 99.707085 
L 256.194034 99.157819 
L 253.524178 98.503772 
L 250.854321 98.964914 
L 248.184465 98.504634 
L 245.514608 98.67327 
L 242.844752 100.153217 
L 240.174895 100.462281 
L 237.505039 100.091634 
L 234.835182 100.122653 
L 232.165326 100.33311 
L 229.495469 99.614683 
L 226.825613 99.541841 
L 224.155757 99.486642 
L 221.4859 99.465338 
L 218.816044 99.919353 
L 216.146187 99.992899 
L 213.476331 100.354865 
L 210.806474 100.47819 
L 208.136618 101.097794 
L 205.466761 100.87203 
L 202.796905 101.116553 
L 200.127048 101.061122 
L 197.457192 101.334914 
L 194.787336 101.317658 
L 192.117479 100.764356 
L 189.447623 100.181924 
L 186.777766 100.406384 
L 184.10791 100.804773 
L 181.438053 100.331451 
L 178.768197 100.650455 
L 176.09834 101.187989 
L 173.428484 100.583898 
L 170.758627 100.02814 
L 168.088771 100.391744 
L 165.418914 100.401417 
L 162.749058 99.860608 
L 160.079202 100.205298 
L 157.409345 99.952212 
L 154.739489 99.454149 
L 152.069632 99.489545 
L 149.399776 99.714092 
L 146.729919 99.392108 
L 144.060063 100.695458 
L 141.390206 101.463862 
L 138.72035 102.325733 
L 136.050493 102.70088 
L 133.380637 103.065871 
L 130.710781 103.311314 
L 128.040924 103.882524 
L 125.371068 104.330935 
L 122.701211 105.059482 
L 120.031355 105.93759 
L 117.361498 106.360181 
L 114.691642 107.862059 
L 112.021785 108.337397 
L 109.351929 108.543102 
L 106.682072 109.07386 
L 104.012216 109.007175 
L 101.342359 109.775283 
L 98.672503 110.257599 
L 96.002647 112.931131 
L 93.33279 114.52646 
L 90.662934 116.743315 
L 87.993077 117.254994 
L 85.323221 118.3986 
L 82.653364 119.140713 
L 79.983508 121.28185 
L 77.313651 121.950466 
L 74.643795 124.225504 
L 71.973938 127.08931 
L 69.304082 128.945016 
L 66.634225 130.59576 
L 63.964369 132.760528 
L 61.294513 133.729074 
L 58.624656 135.648976 
L 55.9548 139.162542 
L 53.284943 144.010686 
z
" clip-path="url(#p8055c7cadb)" style="fill: #1f77b4; fill-opacity: 0.2"/>
   </g>
   <g id="PolyCollection_2">
    <path d="M 53.284943 166.679791 
L 53.284943 181.078125 
L 55.9548 177.754984 
L 58.624656 174.38055 
L 61.294513 172.036479 
L 63.964369 169.973642 
L 66.634225 167.822625 
L 69.304082 165.649882 
L 71.973938 164.221542 
L 74.643795 161.751294 
L 77.313651 160.216352 
L 79.983508 158.924257 
L 82.653364 157.30206 
L 85.323221 155.189499 
L 87.993077 154.193497 
L 90.662934 152.734169 
L 93.33279 151.356629 
L 96.002647 151.035911 
L 98.672503 150.794333 
L 101.342359 150.296143 
L 104.012216 150.412797 
L 106.682072 150.102551 
L 109.351929 149.19813 
L 112.021785 149.210834 
L 114.691642 149.339464 
L 117.361498 148.733546 
L 120.031355 148.008055 
L 122.701211 148.14609 
L 125.371068 147.132323 
L 128.040924 146.80868 
L 130.710781 146.861719 
L 133.380637 147.164192 
L 136.050493 146.749077 
L 138.72035 147.340234 
L 141.390206 147.189665 
L 144.060063 146.381217 
L 146.729919 143.716763 
L 149.399776 141.489235 
L 152.069632 138.755307 
L 154.739489 135.918719 
L 157.409345 134.271109 
L 160.079202 134.469376 
L 162.749058 134.415094 
L 165.418914 134.407404 
L 168.088771 134.434288 
L 170.758627 134.088638 
L 173.428484 133.970308 
L 176.09834 135.26868 
L 178.768197 135.058265 
L 181.438053 134.937018 
L 184.10791 135.337564 
L 186.777766 134.980695 
L 189.447623 133.125759 
L 192.117479 132.811314 
L 194.787336 132.920237 
L 197.457192 132.049095 
L 200.127048 132.375808 
L 202.796905 132.68299 
L 205.466761 134.779237 
L 208.136618 134.913975 
L 210.806474 135.322719 
L 213.476331 134.739643 
L 216.146187 134.789402 
L 218.816044 132.554316 
L 221.4859 132.660599 
L 224.155757 132.702814 
L 226.825613 132.877681 
L 229.495469 134.023482 
L 232.165326 133.94791 
L 234.835182 133.503107 
L 237.505039 133.416577 
L 240.174895 136.771224 
L 242.844752 136.023205 
L 245.514608 136.47556 
L 248.184465 137.116548 
L 250.854321 137.325239 
L 253.524178 134.678993 
L 256.194034 133.979182 
L 258.863891 133.934615 
L 261.533747 132.904203 
L 264.203603 131.817878 
L 266.87346 131.01366 
L 269.543316 130.377164 
L 272.213173 130.187857 
L 274.883029 129.663586 
L 277.552886 130.65811 
L 280.222742 129.7051 
L 282.892599 130.580189 
L 285.562455 129.4975 
L 288.232312 130.183058 
L 290.902168 129.295846 
L 293.572025 129.404705 
L 296.241881 129.067928 
L 298.911737 130.052865 
L 301.581594 129.515743 
L 304.25145 130.035708 
L 306.921307 130.046128 
L 306.921307 118.517568 
L 306.921307 118.517568 
L 304.25145 118.467886 
L 301.581594 118.5995 
L 298.911737 118.557063 
L 296.241881 117.840656 
L 293.572025 118.198902 
L 290.902168 118.431048 
L 288.232312 118.295879 
L 285.562455 118.422028 
L 282.892599 118.70627 
L 280.222742 118.13121 
L 277.552886 118.028872 
L 274.883029 118.468609 
L 272.213173 118.770353 
L 269.543316 119.550381 
L 266.87346 120.006505 
L 264.203603 120.404324 
L 261.533747 120.85599 
L 258.863891 120.599196 
L 256.194034 119.989056 
L 253.524178 119.931872 
L 250.854321 119.410765 
L 248.184465 118.798064 
L 245.514608 118.751734 
L 242.844752 119.216417 
L 240.174895 118.491514 
L 237.505039 118.691585 
L 234.835182 118.43862 
L 232.165326 118.332853 
L 229.495469 117.944443 
L 226.825613 118.674155 
L 224.155757 118.853645 
L 221.4859 119.071542 
L 218.816044 119.632441 
L 216.146187 120.086527 
L 213.476331 120.481486 
L 210.806474 120.467066 
L 208.136618 120.450474 
L 205.466761 120.092069 
L 202.796905 119.354283 
L 200.127048 118.642816 
L 197.457192 118.65515 
L 194.787336 119.540831 
L 192.117479 119.131954 
L 189.447623 119.720578 
L 186.777766 119.742668 
L 184.10791 119.396587 
L 181.438053 118.793894 
L 178.768197 118.994732 
L 176.09834 118.619421 
L 173.428484 119.102566 
L 170.758627 119.63611 
L 168.088771 120.011681 
L 165.418914 120.311335 
L 162.749058 120.710489 
L 160.079202 120.628468 
L 157.409345 120.806701 
L 154.739489 121.689532 
L 152.069632 122.073785 
L 149.399776 123.272675 
L 146.729919 124.171983 
L 144.060063 125.796334 
L 141.390206 125.685993 
L 138.72035 126.273597 
L 136.050493 125.228134 
L 133.380637 125.602049 
L 130.710781 124.676287 
L 128.040924 124.214608 
L 125.371068 124.448833 
L 122.701211 126.41396 
L 120.031355 126.363984 
L 117.361498 127.512437 
L 114.691642 129.124123 
L 112.021785 129.981679 
L 109.351929 129.940446 
L 106.682072 132.528095 
L 104.012216 132.239424 
L 101.342359 132.431591 
L 98.672503 132.576029 
L 96.002647 132.932387 
L 93.33279 131.258607 
L 90.662934 132.789071 
L 87.993077 132.749071 
L 85.323221 133.656294 
L 82.653364 134.058762 
L 79.983508 136.887183 
L 77.313651 136.824864 
L 74.643795 138.586276 
L 71.973938 140.930339 
L 69.304082 144.05741 
L 66.634225 144.242508 
L 63.964369 148.258864 
L 61.294513 151.404852 
L 58.624656 154.86292 
L 55.9548 159.363367 
L 53.284943 166.679791 
z
" clip-path="url(#p8055c7cadb)" style="fill: #ff7f0e; fill-opacity: 0.2"/>
   </g>
   <g id="PolyCollection_3">
    <path d="M 53.284943 120.785899 
L 53.284943 149.776608 
L 55.9548 144.518586 
L 58.624656 140.798412 
L 61.294513 136.032605 
L 63.964369 132.468432 
L 66.634225 130.120746 
L 69.304082 128.532081 
L 71.973938 127.328837 
L 74.643795 126.806038 
L 77.313651 125.283273 
L 79.983508 123.720439 
L 82.653364 122.70142 
L 85.323221 121.368461 
L 87.993077 119.083405 
L 90.662934 116.094007 
L 93.33279 114.994129 
L 96.002647 112.918058 
L 98.672503 110.600069 
L 101.342359 108.310509 
L 104.012216 106.763762 
L 106.682072 104.269749 
L 109.351929 102.20638 
L 112.021785 100.027926 
L 114.691642 100.150008 
L 117.361498 100.272517 
L 120.031355 99.29126 
L 122.701211 99.002026 
L 125.371068 100.286132 
L 128.040924 99.721478 
L 130.710781 99.438184 
L 133.380637 98.907435 
L 136.050493 97.340628 
L 138.72035 94.721726 
L 141.390206 93.586207 
L 144.060063 91.271704 
L 146.729919 90.668706 
L 149.399776 90.263993 
L 152.069632 89.384297 
L 154.739489 87.939097 
L 157.409345 86.81402 
L 160.079202 84.680139 
L 162.749058 84.474371 
L 165.418914 82.828744 
L 168.088771 81.613881 
L 170.758627 81.038534 
L 173.428484 80.535103 
L 176.09834 78.506215 
L 178.768197 78.141843 
L 181.438053 78.41197 
L 184.10791 77.793883 
L 186.777766 77.995946 
L 189.447623 77.3125 
L 192.117479 76.902624 
L 194.787336 75.167885 
L 197.457192 74.012152 
L 200.127048 73.088256 
L 202.796905 72.531963 
L 205.466761 71.744921 
L 208.136618 71.303492 
L 210.806474 71.362663 
L 213.476331 71.01295 
L 216.146187 70.775044 
L 218.816044 71.172371 
L 221.4859 70.861387 
L 224.155757 70.594873 
L 226.825613 70.666601 
L 229.495469 70.663542 
L 232.165326 70.372597 
L 234.835182 70.917344 
L 237.505039 72.077884 
L 240.174895 71.524902 
L 242.844752 71.855681 
L 245.514608 71.657503 
L 248.184465 72.360184 
L 250.854321 70.951978 
L 253.524178 71.311732 
L 256.194034 74.815655 
L 258.863891 79.505328 
L 261.533747 79.769844 
L 264.203603 81.007677 
L 266.87346 81.53023 
L 269.543316 78.203796 
L 272.213173 73.680009 
L 274.883029 72.509226 
L 277.552886 71.735608 
L 280.222742 71.022224 
L 282.892599 70.583423 
L 285.562455 70.854777 
L 288.232312 77.285752 
L 290.902168 81.701069 
L 293.572025 83.338593 
L 296.241881 86.247333 
L 298.911737 87.218273 
L 301.581594 84.825834 
L 304.25145 83.501184 
L 306.921307 82.406457 
L 306.921307 35.389524 
L 306.921307 35.389524 
L 304.25145 34.812597 
L 301.581594 33.813113 
L 298.911737 31.175644 
L 296.241881 29.878125 
L 293.572025 30.849736 
L 290.902168 32.451816 
L 288.232312 34.068545 
L 285.562455 35.413981 
L 282.892599 36.213923 
L 280.222742 36.382305 
L 277.552886 36.847841 
L 274.883029 37.433448 
L 272.213173 39.84566 
L 269.543316 42.433923 
L 266.87346 43.70759 
L 264.203603 43.599845 
L 261.533747 42.205525 
L 258.863891 39.560496 
L 256.194034 36.617237 
L 253.524178 34.613366 
L 250.854321 34.438369 
L 248.184465 34.264561 
L 245.514608 34.894812 
L 242.844752 35.400904 
L 240.174895 36.289552 
L 237.505039 35.671844 
L 234.835182 36.163559 
L 232.165326 35.919277 
L 229.495469 35.619085 
L 226.825613 35.474248 
L 224.155757 35.900422 
L 221.4859 35.840413 
L 218.816044 35.976339 
L 216.146187 36.834447 
L 213.476331 38.060559 
L 210.806474 38.254846 
L 208.136618 39.257153 
L 205.466761 41.167401 
L 202.796905 41.063054 
L 200.127048 40.987575 
L 197.457192 41.808174 
L 194.787336 42.632719 
L 192.117479 42.702576 
L 189.447623 44.188219 
L 186.777766 44.808521 
L 184.10791 46.329742 
L 181.438053 48.149631 
L 178.768197 49.221117 
L 176.09834 49.839949 
L 173.428484 50.625059 
L 170.758627 51.294384 
L 168.088771 49.492344 
L 165.418914 50.385668 
L 162.749058 49.558351 
L 160.079202 49.663879 
L 157.409345 49.072612 
L 154.739489 51.952783 
L 152.069632 52.634263 
L 149.399776 55.339101 
L 146.729919 57.591197 
L 144.060063 59.903909 
L 141.390206 61.432841 
L 138.72035 62.630506 
L 136.050493 63.161557 
L 133.380637 64.948123 
L 130.710781 66.406899 
L 128.040924 67.371874 
L 125.371068 68.27278 
L 122.701211 70.441461 
L 120.031355 70.289383 
L 117.361498 71.125051 
L 114.691642 73.223215 
L 112.021785 75.453484 
L 109.351929 77.381989 
L 106.682072 80.647649 
L 104.012216 83.239175 
L 101.342359 85.364804 
L 98.672503 87.62449 
L 96.002647 90.407452 
L 93.33279 92.39673 
L 90.662934 93.776438 
L 87.993077 94.276028 
L 85.323221 95.282704 
L 82.653364 95.518556 
L 79.983508 96.740257 
L 77.313651 98.017619 
L 74.643795 101.568065 
L 71.973938 103.302938 
L 69.304082 104.750338 
L 66.634225 106.8772 
L 63.964369 109.140404 
L 61.294513 109.603053 
L 58.624656 112.639696 
L 55.9548 116.920772 
L 53.284943 120.785899 
z
" clip-path="url(#p8055c7cadb)" style="fill: #2ca02c; fill-opacity: 0.2"/>
   </g>
   <g id="matplotlib.axis_1">
    <g id="xtick_1">
     <g id="line2d_1">
      <defs>
       <path id="m98cef5ed36" d="M 0 0 
L 0 3.5 
" style="stroke: #000000; stroke-width: 0.8"/>
      </defs>
      <g>
       <use xlink:href="#m98cef5ed36" x="47.94523" y="188.638125" style="stroke: #000000; stroke-width: 0.8"/>
      </g>
     </g>
     <g id="text_1">
      <!-- 0 -->
      <g transform="translate(44.76398 203.236563) scale(0.1 -0.1)">
       <defs>
        <path id="DejaVuSans-30" d="M 2034 4250 
Q 1547 4250 1301 3770 
Q 1056 3291 1056 2328 
Q 1056 1369 1301 889 
Q 1547 409 2034 409 
Q 2525 409 2770 889 
Q 3016 1369 3016 2328 
Q 3016 3291 2770 3770 
Q 2525 4250 2034 4250 
z
M 2034 4750 
Q 2819 4750 3233 4129 
Q 3647 3509 3647 2328 
Q 3647 1150 3233 529 
Q 2819 -91 2034 -91 
Q 1250 -91 836 529 
Q 422 1150 422 2328 
Q 422 3509 836 4129 
Q 1250 4750 2034 4750 
z
" transform="scale(0.015625)"/>
       </defs>
       <use xlink:href="#DejaVuSans-30"/>
      </g>
     </g>
    </g>
    <g id="xtick_2">
     <g id="line2d_2">
      <g>
       <use xlink:href="#m98cef5ed36" x="81.318436" y="188.638125" style="stroke: #000000; stroke-width: 0.8"/>
      </g>
     </g>
     <g id="text_2">
      <!-- 200 -->
      <g transform="translate(71.774686 203.236563) scale(0.1 -0.1)">
       <defs>
        <path id="DejaVuSans-32" d="M 1228 531 
L 3431 531 
L 3431 0 
L 469 0 
L 469 531 
Q 828 903 1448 1529 
Q 2069 2156 2228 2338 
Q 2531 2678 2651 2914 
Q 2772 3150 2772 3378 
Q 2772 3750 2511 3984 
Q 2250 4219 1831 4219 
Q 1534 4219 1204 4116 
Q 875 4013 500 3803 
L 500 4441 
Q 881 4594 1212 4672 
Q 1544 4750 1819 4750 
Q 2544 4750 2975 4387 
Q 3406 4025 3406 3419 
Q 3406 3131 3298 2873 
Q 3191 2616 2906 2266 
Q 2828 2175 2409 1742 
Q 1991 1309 1228 531 
z
" transform="scale(0.015625)"/>
       </defs>
       <use xlink:href="#DejaVuSans-32"/>
       <use xlink:href="#DejaVuSans-30" x="63.623047"/>
       <use xlink:href="#DejaVuSans-30" x="127.246094"/>
      </g>
     </g>
    </g>
    <g id="xtick_3">
     <g id="line2d_3">
      <g>
       <use xlink:href="#m98cef5ed36" x="114.691642" y="188.638125" style="stroke: #000000; stroke-width: 0.8"/>
      </g>
     </g>
     <g id="text_3">
      <!-- 400 -->
      <g transform="translate(105.147892 203.236563) scale(0.1 -0.1)">
       <defs>
        <path id="DejaVuSans-34" d="M 2419 4116 
L 825 1625 
L 2419 1625 
L 2419 4116 
z
M 2253 4666 
L 3047 4666 
L 3047 1625 
L 3713 1625 
L 3713 1100 
L 3047 1100 
L 3047 0 
L 2419 0 
L 2419 1100 
L 313 1100 
L 313 1709 
L 2253 4666 
z
" transform="scale(0.015625)"/>
       </defs>
       <use xlink:href="#DejaVuSans-34"/>
       <use xlink:href="#DejaVuSans-30" x="63.623047"/>
       <use xlink:href="#DejaVuSans-30" x="127.246094"/>
      </g>
     </g>
    </g>
    <g id="xtick_4">
     <g id="line2d_4">
      <g>
       <use xlink:href="#m98cef5ed36" x="148.064847" y="188.638125" style="stroke: #000000; stroke-width: 0.8"/>
      </g>
     </g>
     <g id="text_4">
      <!-- 600 -->
      <g transform="translate(138.521097 203.236563) scale(0.1 -0.1)">
       <defs>
        <path id="DejaVuSans-36" d="M 2113 2584 
Q 1688 2584 1439 2293 
Q 1191 2003 1191 1497 
Q 1191 994 1439 701 
Q 1688 409 2113 409 
Q 2538 409 2786 701 
Q 3034 994 3034 1497 
Q 3034 2003 2786 2293 
Q 2538 2584 2113 2584 
z
M 3366 4563 
L 3366 3988 
Q 3128 4100 2886 4159 
Q 2644 4219 2406 4219 
Q 1781 4219 1451 3797 
Q 1122 3375 1075 2522 
Q 1259 2794 1537 2939 
Q 1816 3084 2150 3084 
Q 2853 3084 3261 2657 
Q 3669 2231 3669 1497 
Q 3669 778 3244 343 
Q 2819 -91 2113 -91 
Q 1303 -91 875 529 
Q 447 1150 447 2328 
Q 447 3434 972 4092 
Q 1497 4750 2381 4750 
Q 2619 4750 2861 4703 
Q 3103 4656 3366 4563 
z
" transform="scale(0.015625)"/>
       </defs>
       <use xlink:href="#DejaVuSans-36"/>
       <use xlink:href="#DejaVuSans-30" x="63.623047"/>
       <use xlink:href="#DejaVuSans-30" x="127.246094"/>
      </g>
     </g>
    </g>
    <g id="xtick_5">
     <g id="line2d_5">
      <g>
       <use xlink:href="#m98cef5ed36" x="181.438053" y="188.638125" style="stroke: #000000; stroke-width: 0.8"/>
      </g>
     </g>
     <g id="text_5">
      <!-- 800 -->
      <g transform="translate(171.894303 203.236563) scale(0.1 -0.1)">
       <defs>
        <path id="DejaVuSans-38" d="M 2034 2216 
Q 1584 2216 1326 1975 
Q 1069 1734 1069 1313 
Q 1069 891 1326 650 
Q 1584 409 2034 409 
Q 2484 409 2743 651 
Q 3003 894 3003 1313 
Q 3003 1734 2745 1975 
Q 2488 2216 2034 2216 
z
M 1403 2484 
Q 997 2584 770 2862 
Q 544 3141 544 3541 
Q 544 4100 942 4425 
Q 1341 4750 2034 4750 
Q 2731 4750 3128 4425 
Q 3525 4100 3525 3541 
Q 3525 3141 3298 2862 
Q 3072 2584 2669 2484 
Q 3125 2378 3379 2068 
Q 3634 1759 3634 1313 
Q 3634 634 3220 271 
Q 2806 -91 2034 -91 
Q 1263 -91 848 271 
Q 434 634 434 1313 
Q 434 1759 690 2068 
Q 947 2378 1403 2484 
z
M 1172 3481 
Q 1172 3119 1398 2916 
Q 1625 2713 2034 2713 
Q 2441 2713 2670 2916 
Q 2900 3119 2900 3481 
Q 2900 3844 2670 4047 
Q 2441 4250 2034 4250 
Q 1625 4250 1398 4047 
Q 1172 3844 1172 3481 
z
" transform="scale(0.015625)"/>
       </defs>
       <use xlink:href="#DejaVuSans-38"/>
       <use xlink:href="#DejaVuSans-30" x="63.623047"/>
       <use xlink:href="#DejaVuSans-30" x="127.246094"/>
      </g>
     </g>
    </g>
    <g id="xtick_6">
     <g id="line2d_6">
      <g>
       <use xlink:href="#m98cef5ed36" x="214.811259" y="188.638125" style="stroke: #000000; stroke-width: 0.8"/>
      </g>
     </g>
     <g id="text_6">
      <!-- 1000 -->
      <g transform="translate(202.086259 203.236563) scale(0.1 -0.1)">
       <defs>
        <path id="DejaVuSans-31" d="M 794 531 
L 1825 531 
L 1825 4091 
L 703 3866 
L 703 4441 
L 1819 4666 
L 2450 4666 
L 2450 531 
L 3481 531 
L 3481 0 
L 794 0 
L 794 531 
z
" transform="scale(0.015625)"/>
       </defs>
       <use xlink:href="#DejaVuSans-31"/>
       <use xlink:href="#DejaVuSans-30" x="63.623047"/>
       <use xlink:href="#DejaVuSans-30" x="127.246094"/>
       <use xlink:href="#DejaVuSans-30" x="190.869141"/>
      </g>
     </g>
    </g>
    <g id="xtick_7">
     <g id="line2d_7">
      <g>
       <use xlink:href="#m98cef5ed36" x="248.184465" y="188.638125" style="stroke: #000000; stroke-width: 0.8"/>
      </g>
     </g>
     <g id="text_7">
      <!-- 1200 -->
      <g transform="translate(235.459465 203.236563) scale(0.1 -0.1)">
       <use xlink:href="#DejaVuSans-31"/>
       <use xlink:href="#DejaVuSans-32" x="63.623047"/>
       <use xlink:href="#DejaVuSans-30" x="127.246094"/>
       <use xlink:href="#DejaVuSans-30" x="190.869141"/>
      </g>
     </g>
    </g>
    <g id="xtick_8">
     <g id="line2d_8">
      <g>
       <use xlink:href="#m98cef5ed36" x="281.55767" y="188.638125" style="stroke: #000000; stroke-width: 0.8"/>
      </g>
     </g>
     <g id="text_8">
      <!-- 1400 -->
      <g transform="translate(268.83267 203.236563) scale(0.1 -0.1)">
       <use xlink:href="#DejaVuSans-31"/>
       <use xlink:href="#DejaVuSans-34" x="63.623047"/>
       <use xlink:href="#DejaVuSans-30" x="127.246094"/>
       <use xlink:href="#DejaVuSans-30" x="190.869141"/>
      </g>
     </g>
    </g>
    <g id="xtick_9">
     <g id="line2d_9">
      <g>
       <use xlink:href="#m98cef5ed36" x="314.930876" y="188.638125" style="stroke: #000000; stroke-width: 0.8"/>
      </g>
     </g>
     <g id="text_9">
      <!-- 1600 -->
      <g transform="translate(302.205876 203.236563) scale(0.1 -0.1)">
       <use xlink:href="#DejaVuSans-31"/>
       <use xlink:href="#DejaVuSans-36" x="63.623047"/>
       <use xlink:href="#DejaVuSans-30" x="127.246094"/>
       <use xlink:href="#DejaVuSans-30" x="190.869141"/>
      </g>
     </g>
    </g>
    <g id="text_10">
     <!-- Episode -->
     <g transform="translate(160.465625 216.914688) scale(0.1 -0.1)">
      <defs>
       <path id="DejaVuSans-45" d="M 628 4666 
L 3578 4666 
L 3578 4134 
L 1259 4134 
L 1259 2753 
L 3481 2753 
L 3481 2222 
L 1259 2222 
L 1259 531 
L 3634 531 
L 3634 0 
L 628 0 
L 628 4666 
z
" transform="scale(0.015625)"/>
       <path id="DejaVuSans-70" d="M 1159 525 
L 1159 -1331 
L 581 -1331 
L 581 3500 
L 1159 3500 
L 1159 2969 
Q 1341 3281 1617 3432 
Q 1894 3584 2278 3584 
Q 2916 3584 3314 3078 
Q 3713 2572 3713 1747 
Q 3713 922 3314 415 
Q 2916 -91 2278 -91 
Q 1894 -91 1617 61 
Q 1341 213 1159 525 
z
M 3116 1747 
Q 3116 2381 2855 2742 
Q 2594 3103 2138 3103 
Q 1681 3103 1420 2742 
Q 1159 2381 1159 1747 
Q 1159 1113 1420 752 
Q 1681 391 2138 391 
Q 2594 391 2855 752 
Q 3116 1113 3116 1747 
z
" transform="scale(0.015625)"/>
       <path id="DejaVuSans-69" d="M 603 3500 
L 1178 3500 
L 1178 0 
L 603 0 
L 603 3500 
z
M 603 4863 
L 1178 4863 
L 1178 4134 
L 603 4134 
L 603 4863 
z
" transform="scale(0.015625)"/>
       <path id="DejaVuSans-73" d="M 2834 3397 
L 2834 2853 
Q 2591 2978 2328 3040 
Q 2066 3103 1784 3103 
Q 1356 3103 1142 2972 
Q 928 2841 928 2578 
Q 928 2378 1081 2264 
Q 1234 2150 1697 2047 
L 1894 2003 
Q 2506 1872 2764 1633 
Q 3022 1394 3022 966 
Q 3022 478 2636 193 
Q 2250 -91 1575 -91 
Q 1294 -91 989 -36 
Q 684 19 347 128 
L 347 722 
Q 666 556 975 473 
Q 1284 391 1588 391 
Q 1994 391 2212 530 
Q 2431 669 2431 922 
Q 2431 1156 2273 1281 
Q 2116 1406 1581 1522 
L 1381 1569 
Q 847 1681 609 1914 
Q 372 2147 372 2553 
Q 372 3047 722 3315 
Q 1072 3584 1716 3584 
Q 2034 3584 2315 3537 
Q 2597 3491 2834 3397 
z
" transform="scale(0.015625)"/>
       <path id="DejaVuSans-6f" d="M 1959 3097 
Q 1497 3097 1228 2736 
Q 959 2375 959 1747 
Q 959 1119 1226 758 
Q 1494 397 1959 397 
Q 2419 397 2687 759 
Q 2956 1122 2956 1747 
Q 2956 2369 2687 2733 
Q 2419 3097 1959 3097 
z
M 1959 3584 
Q 2709 3584 3137 3096 
Q 3566 2609 3566 1747 
Q 3566 888 3137 398 
Q 2709 -91 1959 -91 
Q 1206 -91 779 398 
Q 353 888 353 1747 
Q 353 2609 779 3096 
Q 1206 3584 1959 3584 
z
" transform="scale(0.015625)"/>
       <path id="DejaVuSans-64" d="M 2906 2969 
L 2906 4863 
L 3481 4863 
L 3481 0 
L 2906 0 
L 2906 525 
Q 2725 213 2448 61 
Q 2172 -91 1784 -91 
Q 1150 -91 751 415 
Q 353 922 353 1747 
Q 353 2572 751 3078 
Q 1150 3584 1784 3584 
Q 2172 3584 2448 3432 
Q 2725 3281 2906 2969 
z
M 947 1747 
Q 947 1113 1208 752 
Q 1469 391 1925 391 
Q 2381 391 2643 752 
Q 2906 1113 2906 1747 
Q 2906 2381 2643 2742 
Q 2381 3103 1925 3103 
Q 1469 3103 1208 2742 
Q 947 2381 947 1747 
z
" transform="scale(0.015625)"/>
       <path id="DejaVuSans-65" d="M 3597 1894 
L 3597 1613 
L 953 1613 
Q 991 1019 1311 708 
Q 1631 397 2203 397 
Q 2534 397 2845 478 
Q 3156 559 3463 722 
L 3463 178 
Q 3153 47 2828 -22 
Q 2503 -91 2169 -91 
Q 1331 -91 842 396 
Q 353 884 353 1716 
Q 353 2575 817 3079 
Q 1281 3584 2069 3584 
Q 2775 3584 3186 3129 
Q 3597 2675 3597 1894 
z
M 3022 2063 
Q 3016 2534 2758 2815 
Q 2500 3097 2075 3097 
Q 1594 3097 1305 2825 
Q 1016 2553 972 2059 
L 3022 2063 
z
" transform="scale(0.015625)"/>
      </defs>
      <use xlink:href="#DejaVuSans-45"/>
      <use xlink:href="#DejaVuSans-70" x="63.183594"/>
      <use xlink:href="#DejaVuSans-69" x="126.660156"/>
      <use xlink:href="#DejaVuSans-73" x="154.443359"/>
      <use xlink:href="#DejaVuSans-6f" x="206.542969"/>
      <use xlink:href="#DejaVuSans-64" x="267.724609"/>
      <use xlink:href="#DejaVuSans-65" x="331.201172"/>
     </g>
    </g>
   </g>
   <g id="matplotlib.axis_2">
    <g id="ytick_1">
     <g id="line2d_10">
      <defs>
       <path id="mb66de865e9" d="M 0 0 
L -3.5 0 
" style="stroke: #000000; stroke-width: 0.8"/>
      </defs>
      <g>
       <use xlink:href="#mb66de865e9" x="40.603125" y="182.434993" style="stroke: #000000; stroke-width: 0.8"/>
      </g>
     </g>
     <g id="text_11">
      <!-- 10 -->
      <g transform="translate(20.878125 186.234212) scale(0.1 -0.1)">
       <use xlink:href="#DejaVuSans-31"/>
       <use xlink:href="#DejaVuSans-30" x="63.623047"/>
      </g>
     </g>
    </g>
    <g id="ytick_2">
     <g id="line2d_11">
      <g>
       <use xlink:href="#mb66de865e9" x="40.603125" y="159.318904" style="stroke: #000000; stroke-width: 0.8"/>
      </g>
     </g>
     <g id="text_12">
      <!-- 15 -->
      <g transform="translate(20.878125 163.118123) scale(0.1 -0.1)">
       <defs>
        <path id="DejaVuSans-35" d="M 691 4666 
L 3169 4666 
L 3169 4134 
L 1269 4134 
L 1269 2991 
Q 1406 3038 1543 3061 
Q 1681 3084 1819 3084 
Q 2600 3084 3056 2656 
Q 3513 2228 3513 1497 
Q 3513 744 3044 326 
Q 2575 -91 1722 -91 
Q 1428 -91 1123 -41 
Q 819 9 494 109 
L 494 744 
Q 775 591 1075 516 
Q 1375 441 1709 441 
Q 2250 441 2565 725 
Q 2881 1009 2881 1497 
Q 2881 1984 2565 2268 
Q 2250 2553 1709 2553 
Q 1456 2553 1204 2497 
Q 953 2441 691 2322 
L 691 4666 
z
" transform="scale(0.015625)"/>
       </defs>
       <use xlink:href="#DejaVuSans-31"/>
       <use xlink:href="#DejaVuSans-35" x="63.623047"/>
      </g>
     </g>
    </g>
    <g id="ytick_3">
     <g id="line2d_12">
      <g>
       <use xlink:href="#mb66de865e9" x="40.603125" y="136.202815" style="stroke: #000000; stroke-width: 0.8"/>
      </g>
     </g>
     <g id="text_13">
      <!-- 20 -->
      <g transform="translate(20.878125 140.002034) scale(0.1 -0.1)">
       <use xlink:href="#DejaVuSans-32"/>
       <use xlink:href="#DejaVuSans-30" x="63.623047"/>
      </g>
     </g>
    </g>
    <g id="ytick_4">
     <g id="line2d_13">
      <g>
       <use xlink:href="#mb66de865e9" x="40.603125" y="113.086726" style="stroke: #000000; stroke-width: 0.8"/>
      </g>
     </g>
     <g id="text_14">
      <!-- 25 -->
      <g transform="translate(20.878125 116.885945) scale(0.1 -0.1)">
       <use xlink:href="#DejaVuSans-32"/>
       <use xlink:href="#DejaVuSans-35" x="63.623047"/>
      </g>
     </g>
    </g>
    <g id="ytick_5">
     <g id="line2d_14">
      <g>
       <use xlink:href="#mb66de865e9" x="40.603125" y="89.970637" style="stroke: #000000; stroke-width: 0.8"/>
      </g>
     </g>
     <g id="text_15">
      <!-- 30 -->
      <g transform="translate(20.878125 93.769856) scale(0.1 -0.1)">
       <defs>
        <path id="DejaVuSans-33" d="M 2597 2516 
Q 3050 2419 3304 2112 
Q 3559 1806 3559 1356 
Q 3559 666 3084 287 
Q 2609 -91 1734 -91 
Q 1441 -91 1130 -33 
Q 819 25 488 141 
L 488 750 
Q 750 597 1062 519 
Q 1375 441 1716 441 
Q 2309 441 2620 675 
Q 2931 909 2931 1356 
Q 2931 1769 2642 2001 
Q 2353 2234 1838 2234 
L 1294 2234 
L 1294 2753 
L 1863 2753 
Q 2328 2753 2575 2939 
Q 2822 3125 2822 3475 
Q 2822 3834 2567 4026 
Q 2313 4219 1838 4219 
Q 1578 4219 1281 4162 
Q 984 4106 628 3988 
L 628 4550 
Q 988 4650 1302 4700 
Q 1616 4750 1894 4750 
Q 2613 4750 3031 4423 
Q 3450 4097 3450 3541 
Q 3450 3153 3228 2886 
Q 3006 2619 2597 2516 
z
" transform="scale(0.015625)"/>
       </defs>
       <use xlink:href="#DejaVuSans-33"/>
       <use xlink:href="#DejaVuSans-30" x="63.623047"/>
      </g>
     </g>
    </g>
    <g id="ytick_6">
     <g id="line2d_15">
      <g>
       <use xlink:href="#mb66de865e9" x="40.603125" y="66.854548" style="stroke: #000000; stroke-width: 0.8"/>
      </g>
     </g>
     <g id="text_16">
      <!-- 35 -->
      <g transform="translate(20.878125 70.653767) scale(0.1 -0.1)">
       <use xlink:href="#DejaVuSans-33"/>
       <use xlink:href="#DejaVuSans-35" x="63.623047"/>
      </g>
     </g>
    </g>
    <g id="ytick_7">
     <g id="line2d_16">
      <g>
       <use xlink:href="#mb66de865e9" x="40.603125" y="43.738459" style="stroke: #000000; stroke-width: 0.8"/>
      </g>
     </g>
     <g id="text_17">
      <!-- 40 -->
      <g transform="translate(20.878125 47.537678) scale(0.1 -0.1)">
       <use xlink:href="#DejaVuSans-34"/>
       <use xlink:href="#DejaVuSans-30" x="63.623047"/>
      </g>
     </g>
    </g>
    <g id="text_18">
     <!-- Performance -->
     <g transform="translate(14.798438 137.160156) rotate(-90) scale(0.1 -0.1)">
      <defs>
       <path id="DejaVuSans-50" d="M 1259 4147 
L 1259 2394 
L 2053 2394 
Q 2494 2394 2734 2622 
Q 2975 2850 2975 3272 
Q 2975 3691 2734 3919 
Q 2494 4147 2053 4147 
L 1259 4147 
z
M 628 4666 
L 2053 4666 
Q 2838 4666 3239 4311 
Q 3641 3956 3641 3272 
Q 3641 2581 3239 2228 
Q 2838 1875 2053 1875 
L 1259 1875 
L 1259 0 
L 628 0 
L 628 4666 
z
" transform="scale(0.015625)"/>
       <path id="DejaVuSans-72" d="M 2631 2963 
Q 2534 3019 2420 3045 
Q 2306 3072 2169 3072 
Q 1681 3072 1420 2755 
Q 1159 2438 1159 1844 
L 1159 0 
L 581 0 
L 581 3500 
L 1159 3500 
L 1159 2956 
Q 1341 3275 1631 3429 
Q 1922 3584 2338 3584 
Q 2397 3584 2469 3576 
Q 2541 3569 2628 3553 
L 2631 2963 
z
" transform="scale(0.015625)"/>
       <path id="DejaVuSans-66" d="M 2375 4863 
L 2375 4384 
L 1825 4384 
Q 1516 4384 1395 4259 
Q 1275 4134 1275 3809 
L 1275 3500 
L 2222 3500 
L 2222 3053 
L 1275 3053 
L 1275 0 
L 697 0 
L 697 3053 
L 147 3053 
L 147 3500 
L 697 3500 
L 697 3744 
Q 697 4328 969 4595 
Q 1241 4863 1831 4863 
L 2375 4863 
z
" transform="scale(0.015625)"/>
       <path id="DejaVuSans-6d" d="M 3328 2828 
Q 3544 3216 3844 3400 
Q 4144 3584 4550 3584 
Q 5097 3584 5394 3201 
Q 5691 2819 5691 2113 
L 5691 0 
L 5113 0 
L 5113 2094 
Q 5113 2597 4934 2840 
Q 4756 3084 4391 3084 
Q 3944 3084 3684 2787 
Q 3425 2491 3425 1978 
L 3425 0 
L 2847 0 
L 2847 2094 
Q 2847 2600 2669 2842 
Q 2491 3084 2119 3084 
Q 1678 3084 1418 2786 
Q 1159 2488 1159 1978 
L 1159 0 
L 581 0 
L 581 3500 
L 1159 3500 
L 1159 2956 
Q 1356 3278 1631 3431 
Q 1906 3584 2284 3584 
Q 2666 3584 2933 3390 
Q 3200 3197 3328 2828 
z
" transform="scale(0.015625)"/>
       <path id="DejaVuSans-61" d="M 2194 1759 
Q 1497 1759 1228 1600 
Q 959 1441 959 1056 
Q 959 750 1161 570 
Q 1363 391 1709 391 
Q 2188 391 2477 730 
Q 2766 1069 2766 1631 
L 2766 1759 
L 2194 1759 
z
M 3341 1997 
L 3341 0 
L 2766 0 
L 2766 531 
Q 2569 213 2275 61 
Q 1981 -91 1556 -91 
Q 1019 -91 701 211 
Q 384 513 384 1019 
Q 384 1609 779 1909 
Q 1175 2209 1959 2209 
L 2766 2209 
L 2766 2266 
Q 2766 2663 2505 2880 
Q 2244 3097 1772 3097 
Q 1472 3097 1187 3025 
Q 903 2953 641 2809 
L 641 3341 
Q 956 3463 1253 3523 
Q 1550 3584 1831 3584 
Q 2591 3584 2966 3190 
Q 3341 2797 3341 1997 
z
" transform="scale(0.015625)"/>
       <path id="DejaVuSans-6e" d="M 3513 2113 
L 3513 0 
L 2938 0 
L 2938 2094 
Q 2938 2591 2744 2837 
Q 2550 3084 2163 3084 
Q 1697 3084 1428 2787 
Q 1159 2491 1159 1978 
L 1159 0 
L 581 0 
L 581 3500 
L 1159 3500 
L 1159 2956 
Q 1366 3272 1645 3428 
Q 1925 3584 2291 3584 
Q 2894 3584 3203 3211 
Q 3513 2838 3513 2113 
z
" transform="scale(0.015625)"/>
       <path id="DejaVuSans-63" d="M 3122 3366 
L 3122 2828 
Q 2878 2963 2633 3030 
Q 2388 3097 2138 3097 
Q 1578 3097 1268 2742 
Q 959 2388 959 1747 
Q 959 1106 1268 751 
Q 1578 397 2138 397 
Q 2388 397 2633 464 
Q 2878 531 3122 666 
L 3122 134 
Q 2881 22 2623 -34 
Q 2366 -91 2075 -91 
Q 1284 -91 818 406 
Q 353 903 353 1747 
Q 353 2603 823 3093 
Q 1294 3584 2113 3584 
Q 2378 3584 2631 3529 
Q 2884 3475 3122 3366 
z
" transform="scale(0.015625)"/>
      </defs>
      <use xlink:href="#DejaVuSans-50"/>
      <use xlink:href="#DejaVuSans-65" x="56.677734"/>
      <use xlink:href="#DejaVuSans-72" x="118.201172"/>
      <use xlink:href="#DejaVuSans-66" x="159.314453"/>
      <use xlink:href="#DejaVuSans-6f" x="194.519531"/>
      <use xlink:href="#DejaVuSans-72" x="255.701172"/>
      <use xlink:href="#DejaVuSans-6d" x="295.064453"/>
      <use xlink:href="#DejaVuSans-61" x="392.476562"/>
      <use xlink:href="#DejaVuSans-6e" x="453.755859"/>
      <use xlink:href="#DejaVuSans-63" x="517.134766"/>
      <use xlink:href="#DejaVuSans-65" x="572.115234"/>
     </g>
    </g>
   </g>
   <g id="line2d_17">
    <path d="M 53.284943 155.417101 
L 55.9548 151.144477 
L 58.624656 148.933038 
L 61.294513 146.316104 
L 63.964369 144.171123 
L 66.634225 142.095491 
L 69.304082 140.118103 
L 71.973938 137.494426 
L 74.643795 134.769617 
L 77.313651 132.771039 
L 79.983508 130.685775 
L 82.653364 128.154563 
L 85.323221 126.380403 
L 87.993077 124.322108 
L 90.662934 122.591291 
L 93.33279 120.538775 
L 96.002647 118.674077 
L 98.672503 116.337426 
L 101.342359 116.510797 
L 104.012216 115.773971 
L 106.682072 115.537031 
L 109.351929 114.921566 
L 112.021785 114.870518 
L 114.691642 114.019075 
L 117.361498 113.056868 
L 120.031355 112.401912 
L 122.701211 111.513869 
L 125.371068 110.496761 
L 128.040924 110.194325 
L 130.710781 109.942938 
L 133.380637 109.700219 
L 136.050493 109.424752 
L 138.72035 109.136764 
L 141.390206 107.692009 
L 144.060063 106.30697 
L 146.729919 104.920004 
L 149.399776 105.955413 
L 152.069632 105.16465 
L 154.739489 105.151165 
L 157.409345 105.700172 
L 160.079202 105.788784 
L 162.749058 103.98284 
L 165.418914 104.107089 
L 168.088771 103.968392 
L 170.758627 103.363521 
L 173.428484 103.791169 
L 176.09834 104.23808 
L 178.768197 104.059893 
L 181.438053 103.82488 
L 184.10791 103.957797 
L 186.777766 103.488733 
L 189.447623 103.239272 
L 192.117479 103.690999 
L 194.787336 104.449014 
L 197.457192 105.792637 
L 200.127048 106.788555 
L 202.796905 107.418468 
L 205.466761 107.332746 
L 208.136618 107.059206 
L 210.806474 105.395811 
L 213.476331 104.057967 
L 216.146187 103.282615 
L 218.816044 103.126581 
L 221.4859 102.748055 
L 224.155757 103.178592 
L 226.825613 104.069525 
L 229.495469 105.123233 
L 232.165326 105.402553 
L 234.835182 105.28023 
L 237.505039 104.9672 
L 240.174895 105.826348 
L 242.844752 105.532581 
L 245.514608 105.076038 
L 248.184465 105.334168 
L 250.854321 105.67513 
L 253.524178 104.446125 
L 256.194034 103.874965 
L 258.863891 103.711226 
L 261.533747 103.40879 
L 264.203603 103.169924 
L 266.87346 102.903126 
L 269.543316 103.01389 
L 272.213173 104.233264 
L 274.883029 104.41434 
L 277.552886 104.983574 
L 280.222742 105.199324 
L 282.892599 104.816945 
L 285.562455 103.853775 
L 288.232312 103.617798 
L 290.902168 102.964769 
L 293.572025 103.32981 
L 296.241881 104.045446 
L 298.911737 104.115757 
L 301.581594 104.13791 
L 304.25145 104.168732 
L 306.921307 104.225559 
" clip-path="url(#p8055c7cadb)" style="fill: none; stroke: #1f77b4; stroke-width: 2; stroke-linecap: square"/>
   </g>
   <g id="line2d_18">
    <path d="M 53.284943 173.878958 
L 55.9548 168.559175 
L 58.624656 164.621735 
L 61.294513 161.720666 
L 63.964369 159.116253 
L 66.634225 156.032567 
L 69.304082 154.853646 
L 71.973938 152.575941 
L 74.643795 150.168785 
L 77.313651 148.520608 
L 79.983508 147.90572 
L 82.653364 145.680411 
L 85.323221 144.422896 
L 87.993077 143.471284 
L 90.662934 142.76162 
L 93.33279 141.307618 
L 96.002647 141.984149 
L 98.672503 141.685181 
L 101.342359 141.363867 
L 104.012216 141.326111 
L 106.682072 141.315323 
L 109.351929 139.569288 
L 112.021785 139.596257 
L 114.691642 139.231793 
L 117.361498 138.122991 
L 120.031355 137.186019 
L 122.701211 137.280025 
L 125.371068 135.790578 
L 128.040924 135.511644 
L 130.710781 135.769003 
L 133.380637 136.38312 
L 136.050493 135.988606 
L 138.72035 136.806915 
L 141.390206 136.437829 
L 144.060063 136.088776 
L 146.729919 133.944373 
L 149.399776 132.380955 
L 152.069632 130.414546 
L 154.739489 128.804125 
L 157.409345 127.538905 
L 160.079202 127.548922 
L 162.749058 127.562791 
L 165.418914 127.35937 
L 168.088771 127.222985 
L 170.758627 126.862374 
L 173.428484 126.536437 
L 176.09834 126.944051 
L 178.768197 127.026498 
L 181.438053 126.865456 
L 184.10791 127.367075 
L 186.777766 127.361681 
L 189.447623 126.423168 
L 192.117479 125.971634 
L 194.787336 126.230534 
L 197.457192 125.352123 
L 200.127048 125.509312 
L 202.796905 126.018637 
L 205.466761 127.435653 
L 208.136618 127.682225 
L 210.806474 127.894893 
L 213.476331 127.610565 
L 216.146187 127.437965 
L 218.816044 126.093379 
L 221.4859 125.866071 
L 224.155757 125.778229 
L 226.825613 125.775918 
L 229.495469 125.983963 
L 232.165326 126.140381 
L 234.835182 125.970863 
L 237.505039 126.054081 
L 240.174895 127.631369 
L 242.844752 127.619811 
L 245.514608 127.613647 
L 248.184465 127.957306 
L 250.854321 128.368002 
L 253.524178 127.305432 
L 256.194034 126.984119 
L 258.863891 127.266906 
L 261.533747 126.880096 
L 264.203603 126.111101 
L 266.87346 125.510083 
L 269.543316 124.963773 
L 272.213173 124.479105 
L 274.883029 124.066098 
L 277.552886 124.343491 
L 280.222742 123.918155 
L 282.892599 124.643229 
L 285.562455 123.959764 
L 288.232312 124.239468 
L 290.902168 123.863447 
L 293.572025 123.801804 
L 296.241881 123.454292 
L 298.911737 124.304964 
L 301.581594 124.057622 
L 304.25145 124.251797 
L 306.921307 124.281848 
" clip-path="url(#p8055c7cadb)" style="fill: none; stroke: #ff7f0e; stroke-width: 2; stroke-linecap: square"/>
   </g>
   <g id="line2d_19">
    <path d="M 53.284943 135.281254 
L 55.9548 130.719679 
L 58.624656 126.719054 
L 61.294513 122.817829 
L 63.964369 120.804418 
L 66.634225 118.498973 
L 69.304082 116.64121 
L 71.973938 115.315888 
L 74.643795 114.187052 
L 77.313651 111.650446 
L 79.983508 110.230348 
L 82.653364 109.109988 
L 85.323221 108.325582 
L 87.993077 106.679717 
L 90.662934 104.935223 
L 93.33279 103.69543 
L 96.002647 101.662755 
L 98.672503 99.11228 
L 101.342359 96.837657 
L 104.012216 95.001469 
L 106.682072 92.458699 
L 109.351929 89.794184 
L 112.021785 87.740705 
L 114.691642 86.686611 
L 117.361498 85.698784 
L 120.031355 84.790322 
L 122.701211 84.721744 
L 125.371068 84.279456 
L 128.040924 83.546676 
L 130.710781 82.922542 
L 133.380637 81.927779 
L 136.050493 80.251092 
L 138.72035 78.676116 
L 141.390206 77.509524 
L 144.060063 75.587807 
L 146.729919 74.129952 
L 149.399776 72.801547 
L 152.069632 71.00928 
L 154.739489 69.94594 
L 157.409345 67.943316 
L 160.079202 67.172009 
L 162.749058 67.016361 
L 165.418914 66.607206 
L 168.088771 65.553112 
L 170.758627 66.166459 
L 173.428484 65.580081 
L 176.09834 64.173082 
L 178.768197 63.68148 
L 181.438053 63.280801 
L 184.10791 62.061812 
L 186.777766 61.402233 
L 189.447623 60.75036 
L 192.117479 59.8026 
L 194.787336 58.900302 
L 197.457192 57.910163 
L 200.127048 57.037916 
L 202.796905 56.797508 
L 205.466761 56.456161 
L 208.136618 55.280322 
L 210.806474 54.808754 
L 213.476331 54.536755 
L 216.146187 53.804745 
L 218.816044 53.574355 
L 221.4859 53.3509 
L 224.155757 53.247648 
L 226.825613 53.070424 
L 229.495469 53.141314 
L 232.165326 53.145937 
L 234.835182 53.540451 
L 237.505039 53.874864 
L 240.174895 53.907227 
L 242.844752 53.628293 
L 245.514608 53.276158 
L 248.184465 53.312373 
L 250.854321 52.695173 
L 253.524178 52.962549 
L 256.194034 55.716446 
L 258.863891 59.532912 
L 261.533747 60.987685 
L 264.203603 62.303761 
L 266.87346 62.61891 
L 269.543316 60.318859 
L 272.213173 56.762834 
L 274.883029 54.971337 
L 277.552886 54.291724 
L 280.222742 53.702264 
L 282.892599 53.398673 
L 285.562455 53.134379 
L 288.232312 55.677149 
L 290.902168 57.076443 
L 293.572025 57.094165 
L 296.241881 58.062729 
L 298.911737 59.196958 
L 301.581594 59.319474 
L 304.25145 59.156891 
L 306.921307 58.89799 
" clip-path="url(#p8055c7cadb)" style="fill: none; stroke: #2ca02c; stroke-width: 2; stroke-linecap: square"/>
   </g>
   <g id="patch_3">
    <path d="M 40.603125 188.638125 
L 40.603125 22.318125 
" style="fill: none; stroke: #000000; stroke-width: 0.8; stroke-linejoin: miter; stroke-linecap: square"/>
   </g>
   <g id="patch_4">
    <path d="M 319.603125 188.638125 
L 319.603125 22.318125 
" style="fill: none; stroke: #000000; stroke-width: 0.8; stroke-linejoin: miter; stroke-linecap: square"/>
   </g>
   <g id="patch_5">
    <path d="M 40.603125 188.638125 
L 319.603125 188.638125 
" style="fill: none; stroke: #000000; stroke-width: 0.8; stroke-linejoin: miter; stroke-linecap: square"/>
   </g>
   <g id="patch_6">
    <path d="M 40.603125 22.318125 
L 319.603125 22.318125 
" style="fill: none; stroke: #000000; stroke-width: 0.8; stroke-linejoin: miter; stroke-linecap: square"/>
   </g>
   <g id="text_19">
    <!-- F15 -->
    <g transform="translate(169.017188 16.318125) scale(0.12 -0.12)">
     <defs>
      <path id="DejaVuSans-46" d="M 628 4666 
L 3309 4666 
L 3309 4134 
L 1259 4134 
L 1259 2759 
L 3109 2759 
L 3109 2228 
L 1259 2228 
L 1259 0 
L 628 0 
L 628 4666 
z
" transform="scale(0.015625)"/>
     </defs>
     <use xlink:href="#DejaVuSans-46"/>
     <use xlink:href="#DejaVuSans-31" x="57.519531"/>
     <use xlink:href="#DejaVuSans-35" x="121.142578"/>
    </g>
   </g>
   <g id="legend_1">
    <g id="patch_7">
     <path d="M 47.603125 74.3525 
L 123.485938 74.3525 
Q 125.485938 74.3525 125.485938 72.3525 
L 125.485938 29.318125 
Q 125.485938 27.318125 123.485938 27.318125 
L 47.603125 27.318125 
Q 45.603125 27.318125 45.603125 29.318125 
L 45.603125 72.3525 
Q 45.603125 74.3525 47.603125 74.3525 
z
" style="fill: #ffffff; opacity: 0.8; stroke: #cccccc; stroke-linejoin: miter"/>
    </g>
    <g id="line2d_20">
     <path d="M 49.603125 35.416563 
L 59.603125 35.416563 
L 69.603125 35.416563 
" style="fill: none; stroke: #1f77b4; stroke-width: 2; stroke-linecap: square"/>
    </g>
    <g id="text_20">
     <!-- FE5000 -->
     <g transform="translate(77.603125 38.916563) scale(0.1 -0.1)">
      <use xlink:href="#DejaVuSans-46"/>
      <use xlink:href="#DejaVuSans-45" x="57.519531"/>
      <use xlink:href="#DejaVuSans-35" x="120.703125"/>
      <use xlink:href="#DejaVuSans-30" x="184.326172"/>
      <use xlink:href="#DejaVuSans-30" x="247.949219"/>
      <use xlink:href="#DejaVuSans-30" x="311.572266"/>
     </g>
    </g>
    <g id="line2d_21">
     <path d="M 49.603125 50.094688 
L 59.603125 50.094688 
L 69.603125 50.094688 
" style="fill: none; stroke: #ff7f0e; stroke-width: 2; stroke-linecap: square"/>
    </g>
    <g id="text_21">
     <!-- FE3000 -->
     <g transform="translate(77.603125 53.594688) scale(0.1 -0.1)">
      <use xlink:href="#DejaVuSans-46"/>
      <use xlink:href="#DejaVuSans-45" x="57.519531"/>
      <use xlink:href="#DejaVuSans-33" x="120.703125"/>
      <use xlink:href="#DejaVuSans-30" x="184.326172"/>
      <use xlink:href="#DejaVuSans-30" x="247.949219"/>
      <use xlink:href="#DejaVuSans-30" x="311.572266"/>
     </g>
    </g>
    <g id="line2d_22">
     <path d="M 49.603125 64.772813 
L 59.603125 64.772813 
L 69.603125 64.772813 
" style="fill: none; stroke: #2ca02c; stroke-width: 2; stroke-linecap: square"/>
    </g>
    <g id="text_22">
     <!-- FE10000 -->
     <g transform="translate(77.603125 68.272813) scale(0.1 -0.1)">
      <use xlink:href="#DejaVuSans-46"/>
      <use xlink:href="#DejaVuSans-45" x="57.519531"/>
      <use xlink:href="#DejaVuSans-31" x="120.703125"/>
      <use xlink:href="#DejaVuSans-30" x="184.326172"/>
      <use xlink:href="#DejaVuSans-30" x="247.949219"/>
      <use xlink:href="#DejaVuSans-30" x="311.572266"/>
      <use xlink:href="#DejaVuSans-30" x="375.195312"/>
     </g>
    </g>
   </g>
  </g>
 </g>
 <defs>
  <clipPath id="p8055c7cadb">
   <rect x="40.603125" y="22.318125" width="279" height="166.32"/>
  </clipPath>
 </defs>
</svg>
