<?xml version="1.0" encoding="utf-8" standalone="no"?>
<!DOCTYPE svg PUBLIC "-//W3C//DTD SVG 1.1//EN"
  "http://www.w3.org/Graphics/SVG/1.1/DTD/svg11.dtd">
<svg xmlns:xlink="http://www.w3.org/1999/xlink" width="334.855876pt" height="226.194375pt" viewBox="0 0 334.855876 226.194375" xmlns="http://www.w3.org/2000/svg" version="1.1">
 <metadata>
  <rdf:RDF xmlns:dc="http://purl.org/dc/elements/1.1/" xmlns:cc="http://creativecommons.org/ns#" xmlns:rdf="http://www.w3.org/1999/02/22-rdf-syntax-ns#">
   <cc:Work>
    <dc:type rdf:resource="http://purl.org/dc/dcmitype/StillImage"/>
    <dc:date>2024-07-12T13:36:59.377619</dc:date>
    <dc:format>image/svg+xml</dc:format>
    <dc:creator>
     <cc:Agent>
      <dc:title>Matplotlib v3.7.4, https://matplotlib.org/</dc:title>
     </cc:Agent>
    </dc:creator>
   </cc:Work>
  </rdf:RDF>
 </metadata>
 <defs>
  <style type="text/css">*{stroke-linejoin: round; stroke-linecap: butt}</style>
 </defs>
 <g id="figure_1">
  <g id="patch_1">
   <path d="M 0 226.194375 
L 334.855876 226.194375 
L 334.855876 0 
L 0 0 
z
" style="fill: #ffffff"/>
  </g>
  <g id="axes_1">
   <g id="patch_2">
    <path d="M 40.603125 188.638125 
L 319.603125 188.638125 
L 319.603125 22.318125 
L 40.603125 22.318125 
z
" style="fill: #ffffff"/>
   </g>
   <g id="PolyCollection_1">
    <path d="M 53.284943 140.310271 
L 53.284943 158.831169 
L 55.9548 151.000579 
L 58.624656 145.842557 
L 61.294513 141.978224 
L 63.964369 138.394813 
L 66.634225 138.352886 
L 69.304082 137.486878 
L 71.973938 135.938444 
L 74.643795 133.517539 
L 77.313651 131.93362 
L 79.983508 128.914547 
L 82.653364 127.66513 
L 85.323221 126.741309 
L 87.993077 125.157765 
L 90.662934 126.932175 
L 93.33279 126.720878 
L 96.002647 126.43076 
L 98.672503 125.985639 
L 101.342359 124.148745 
L 104.012216 120.441506 
L 106.682072 119.362915 
L 109.351929 118.274091 
L 112.021785 117.844579 
L 114.691642 118.129386 
L 117.361498 116.367259 
L 120.031355 115.21586 
L 122.701211 113.911133 
L 125.371068 110.547803 
L 128.040924 108.949221 
L 130.710781 108.341689 
L 133.380637 107.050807 
L 136.050493 106.613361 
L 138.72035 107.328446 
L 141.390206 108.420417 
L 144.060063 107.585125 
L 146.729919 107.729481 
L 149.399776 108.372553 
L 152.069632 108.067402 
L 154.739489 107.163593 
L 157.409345 107.215079 
L 160.079202 106.576136 
L 162.749058 105.287937 
L 165.418914 104.155531 
L 168.088771 104.423745 
L 170.758627 106.492158 
L 173.428484 108.876092 
L 176.09834 109.181329 
L 178.768197 108.08489 
L 181.438053 107.02023 
L 184.10791 103.368809 
L 186.777766 103.694564 
L 189.447623 108.468304 
L 192.117479 109.791455 
L 194.787336 109.028809 
L 197.457192 109.570541 
L 200.127048 105.871294 
L 202.796905 99.549161 
L 205.466761 97.819529 
L 208.136618 96.808235 
L 210.806474 96.342977 
L 213.476331 95.881177 
L 216.146187 95.435895 
L 218.816044 96.841602 
L 221.4859 101.451136 
L 224.155757 101.604422 
L 226.825613 102.287864 
L 229.495469 104.03673 
L 232.165326 103.856234 
L 234.835182 100.234737 
L 237.505039 99.694802 
L 240.174895 100.733371 
L 242.844752 99.394008 
L 245.514608 98.823569 
L 248.184465 98.254044 
L 250.854321 98.818256 
L 253.524178 96.869891 
L 256.194034 97.472861 
L 258.863891 96.492902 
L 261.533747 97.78673 
L 264.203603 97.284516 
L 266.87346 98.021596 
L 269.543316 99.924188 
L 272.213173 103.411708 
L 274.883029 102.587071 
L 277.552886 102.59735 
L 280.222742 102.046945 
L 282.892599 98.946865 
L 285.562455 95.392892 
L 288.232312 94.414951 
L 290.902168 93.499243 
L 293.572025 93.004383 
L 296.241881 95.703907 
L 298.911737 98.001166 
L 301.581594 98.291502 
L 304.25145 98.647666 
L 306.921307 98.722194 
L 306.921307 77.51273 
L 306.921307 77.51273 
L 304.25145 77.070301 
L 301.581594 76.954244 
L 298.911737 75.99444 
L 296.241881 74.230604 
L 293.572025 73.559965 
L 290.902168 74.444486 
L 288.232312 74.299243 
L 285.562455 75.911057 
L 282.892599 76.646834 
L 280.222742 78.107407 
L 277.552886 78.431852 
L 274.883029 79.873704 
L 272.213173 80.296723 
L 269.543316 80.215252 
L 266.87346 80.186711 
L 264.203603 79.668679 
L 261.533747 81.746279 
L 258.863891 81.273009 
L 256.194034 81.978132 
L 253.524178 81.487538 
L 250.854321 84.137108 
L 248.184465 82.305423 
L 245.514608 82.208119 
L 242.844752 82.828172 
L 240.174895 83.012341 
L 237.505039 81.26481 
L 234.835182 81.664345 
L 232.165326 80.500879 
L 229.495469 80.235881 
L 226.825613 81.117352 
L 224.155757 81.922578 
L 221.4859 81.123967 
L 218.816044 84.013625 
L 216.146187 83.806327 
L 213.476331 84.573904 
L 210.806474 84.000263 
L 208.136618 85.11073 
L 205.466761 84.663615 
L 202.796905 85.861749 
L 200.127048 84.10524 
L 197.457192 83.681711 
L 194.787336 83.736311 
L 192.117479 84.358016 
L 189.447623 84.150179 
L 186.777766 85.40712 
L 184.10791 85.670741 
L 181.438053 84.673695 
L 178.768197 82.915616 
L 176.09834 82.274 
L 173.428484 82.206432 
L 170.758627 81.660115 
L 168.088771 82.557919 
L 165.418914 83.288411 
L 162.749058 83.127785 
L 160.079202 82.264584 
L 157.409345 82.246984 
L 154.739489 80.444384 
L 152.069632 79.316892 
L 149.399776 79.526212 
L 146.729919 79.873525 
L 144.060063 80.629282 
L 141.390206 83.067222 
L 138.72035 85.203049 
L 136.050493 85.249569 
L 133.380637 85.928055 
L 130.710781 87.062893 
L 128.040924 86.070129 
L 125.371068 85.537771 
L 122.701211 87.132754 
L 120.031355 88.385473 
L 117.361498 90.251313 
L 114.691642 91.928938 
L 112.021785 93.598096 
L 109.351929 94.560391 
L 106.682072 95.469805 
L 104.012216 96.71255 
L 101.342359 97.802074 
L 98.672503 99.109173 
L 96.002647 100.52311 
L 93.33279 100.906527 
L 90.662934 100.128565 
L 87.993077 102.638644 
L 85.323221 103.505675 
L 82.653364 105.181552 
L 79.983508 106.631246 
L 77.313651 110.471794 
L 74.643795 111.552192 
L 71.973938 114.55685 
L 69.304082 116.691734 
L 66.634225 120.68711 
L 63.964369 122.546491 
L 61.294513 127.72898 
L 58.624656 131.052337 
L 55.9548 134.048814 
L 53.284943 140.310271 
z
" clip-path="url(#p1c9459ea86)" style="fill: #1f77b4; fill-opacity: 0.2"/>
   </g>
   <g id="PolyCollection_2">
    <path d="M 53.284943 149.87804 
L 53.284943 181.078125 
L 55.9548 178.55652 
L 58.624656 175.670447 
L 61.294513 173.299544 
L 63.964369 171.835147 
L 66.634225 168.319641 
L 69.304082 165.440328 
L 71.973938 162.760771 
L 74.643795 160.221507 
L 77.313651 156.376223 
L 79.983508 153.871587 
L 82.653364 151.286001 
L 85.323221 149.572143 
L 87.993077 146.974816 
L 90.662934 145.781451 
L 93.33279 143.866136 
L 96.002647 142.119021 
L 98.672503 140.601319 
L 101.342359 139.996465 
L 104.012216 138.444748 
L 106.682072 137.846452 
L 109.351929 136.748751 
L 112.021785 135.062816 
L 114.691642 133.503149 
L 117.361498 131.536248 
L 120.031355 131.301873 
L 122.701211 131.192059 
L 125.371068 131.209875 
L 128.040924 130.489658 
L 130.710781 131.374113 
L 133.380637 130.491839 
L 136.050493 129.241743 
L 138.72035 128.455816 
L 141.390206 127.65551 
L 144.060063 126.772005 
L 146.729919 126.260953 
L 149.399776 126.651244 
L 152.069632 126.684946 
L 154.739489 127.556447 
L 157.409345 126.906017 
L 160.079202 126.410896 
L 162.749058 126.136397 
L 165.418914 126.415158 
L 168.088771 125.094939 
L 170.758627 124.799928 
L 173.428484 125.032791 
L 176.09834 125.34451 
L 178.768197 123.955258 
L 181.438053 123.909153 
L 184.10791 124.290155 
L 186.777766 123.671365 
L 189.447623 122.479945 
L 192.117479 122.364677 
L 194.787336 125.616315 
L 197.457192 125.079938 
L 200.127048 124.448267 
L 202.796905 124.452207 
L 205.466761 124.052676 
L 208.136618 119.705189 
L 210.806474 119.21029 
L 213.476331 119.847623 
L 216.146187 119.1543 
L 218.816044 119.338497 
L 221.4859 119.330153 
L 224.155757 120.589833 
L 226.825613 119.397443 
L 229.495469 119.462469 
L 232.165326 118.83334 
L 234.835182 118.40739 
L 237.505039 116.676546 
L 240.174895 116.161924 
L 242.844752 115.611276 
L 245.514608 116.489778 
L 248.184465 117.668546 
L 250.854321 117.48127 
L 253.524178 117.331791 
L 256.194034 117.135949 
L 258.863891 116.094654 
L 261.533747 115.452459 
L 264.203603 116.624673 
L 266.87346 116.271108 
L 269.543316 116.291335 
L 272.213173 115.978195 
L 274.883029 115.594059 
L 277.552886 116.370323 
L 280.222742 116.852626 
L 282.892599 116.707088 
L 285.562455 116.484826 
L 288.232312 116.632534 
L 290.902168 114.649637 
L 293.572025 115.303032 
L 296.241881 115.402015 
L 298.911737 115.779795 
L 301.581594 115.964488 
L 304.25145 115.886397 
L 306.921307 115.377515 
L 306.921307 94.658441 
L 306.921307 94.658441 
L 304.25145 94.237044 
L 301.581594 94.166906 
L 298.911737 94.347623 
L 296.241881 94.723413 
L 293.572025 94.567895 
L 290.902168 94.805736 
L 288.232312 93.77921 
L 285.562455 93.942824 
L 282.892599 93.742434 
L 280.222742 93.342394 
L 277.552886 93.999666 
L 274.883029 94.942947 
L 272.213173 95.113546 
L 269.543316 95.456543 
L 266.87346 95.230221 
L 264.203603 94.785195 
L 261.533747 95.685012 
L 258.863891 96.188076 
L 256.194034 97.24841 
L 253.524178 97.845898 
L 250.854321 97.970804 
L 248.184465 97.900837 
L 245.514608 97.556571 
L 242.844752 96.303619 
L 240.174895 95.951801 
L 237.505039 96.250392 
L 234.835182 96.044571 
L 232.165326 95.777685 
L 229.495469 96.246095 
L 226.825613 96.35884 
L 224.155757 96.190423 
L 221.4859 94.634676 
L 218.816044 93.757446 
L 216.146187 93.213927 
L 213.476331 93.262238 
L 210.806474 94.104365 
L 208.136618 95.466535 
L 205.466761 97.6506 
L 202.796905 98.378433 
L 200.127048 98.49173 
L 197.457192 98.086725 
L 194.787336 97.673622 
L 192.117479 96.244811 
L 189.447623 96.491413 
L 186.777766 98.532963 
L 184.10791 98.894402 
L 181.438053 99.67704 
L 178.768197 100.310932 
L 176.09834 100.389042 
L 173.428484 99.648953 
L 170.758627 99.66708 
L 168.088771 99.413823 
L 165.418914 100.034181 
L 162.749058 100.507795 
L 160.079202 100.438091 
L 157.409345 101.171736 
L 154.739489 101.650659 
L 152.069632 101.317252 
L 149.399776 100.432362 
L 146.729919 100.325579 
L 144.060063 99.945754 
L 141.390206 99.449967 
L 138.72035 99.450944 
L 136.050493 100.273549 
L 133.380637 100.103097 
L 130.710781 100.210995 
L 128.040924 100.864807 
L 125.371068 101.349498 
L 122.701211 102.763097 
L 120.031355 102.321238 
L 117.361498 103.015397 
L 114.691642 104.080648 
L 112.021785 105.386115 
L 109.351929 104.857368 
L 106.682072 105.72808 
L 104.012216 105.6368 
L 101.342359 106.099226 
L 98.672503 104.905837 
L 96.002647 105.654793 
L 93.33279 106.188253 
L 90.662934 106.891524 
L 87.993077 109.006683 
L 85.323221 112.01834 
L 82.653364 113.348563 
L 79.983508 115.902722 
L 77.313651 118.692919 
L 74.643795 119.790538 
L 71.973938 121.202018 
L 69.304082 124.584776 
L 66.634225 128.326489 
L 63.964369 131.078091 
L 61.294513 134.691802 
L 58.624656 139.844612 
L 55.9548 143.895703 
L 53.284943 149.87804 
z
" clip-path="url(#p1c9459ea86)" style="fill: #ff7f0e; fill-opacity: 0.2"/>
   </g>
   <g id="PolyCollection_3">
    <path d="M 53.284943 97.862748 
L 53.284943 154.319118 
L 55.9548 147.74139 
L 58.624656 143.422484 
L 61.294513 138.861528 
L 63.964369 131.553635 
L 66.634225 128.67424 
L 69.304082 126.196317 
L 71.973938 124.129489 
L 74.643795 123.689368 
L 77.313651 122.827809 
L 79.983508 119.102948 
L 82.653364 117.180816 
L 85.323221 114.892439 
L 87.993077 111.30956 
L 90.662934 109.987322 
L 93.33279 107.885907 
L 96.002647 104.827346 
L 98.672503 101.231907 
L 101.342359 100.228364 
L 104.012216 96.666116 
L 106.682072 94.179189 
L 109.351929 90.613599 
L 112.021785 90.222684 
L 114.691642 88.104614 
L 117.361498 87.503106 
L 120.031355 86.603846 
L 122.701211 86.723883 
L 125.371068 85.14508 
L 128.040924 83.505874 
L 130.710781 82.56841 
L 133.380637 82.395492 
L 136.050493 82.092807 
L 138.72035 82.824974 
L 141.390206 82.533894 
L 144.060063 81.344635 
L 146.729919 80.933286 
L 149.399776 81.849507 
L 152.069632 79.558567 
L 154.739489 82.128124 
L 157.409345 82.966084 
L 160.079202 82.840182 
L 162.749058 81.467472 
L 165.418914 81.865072 
L 168.088771 79.498338 
L 170.758627 79.323308 
L 173.428484 80.3139 
L 176.09834 81.343247 
L 178.768197 81.652695 
L 181.438053 81.254751 
L 184.10791 81.091977 
L 186.777766 81.112933 
L 189.447623 81.085309 
L 192.117479 82.239925 
L 194.787336 82.571191 
L 197.457192 83.365615 
L 200.127048 82.469642 
L 202.796905 82.25056 
L 205.466761 81.828093 
L 208.136618 81.674545 
L 210.806474 80.883541 
L 213.476331 81.024813 
L 216.146187 79.83418 
L 218.816044 79.398149 
L 221.4859 78.476033 
L 224.155757 78.495474 
L 226.825613 78.269415 
L 229.495469 78.551541 
L 232.165326 78.53149 
L 234.835182 79.40593 
L 237.505039 79.218457 
L 240.174895 79.188853 
L 242.844752 79.735386 
L 245.514608 82.112559 
L 248.184465 81.512594 
L 250.854321 81.250201 
L 253.524178 80.062918 
L 256.194034 80.122168 
L 258.863891 79.849108 
L 261.533747 79.593292 
L 264.203603 77.896011 
L 266.87346 78.083087 
L 269.543316 76.234404 
L 272.213173 71.630112 
L 274.883029 69.347799 
L 277.552886 69.491394 
L 280.222742 66.930203 
L 282.892599 65.99773 
L 285.562455 65.44707 
L 288.232312 65.263275 
L 290.902168 64.203031 
L 293.572025 64.867554 
L 296.241881 63.835555 
L 298.911737 63.258207 
L 301.581594 63.698379 
L 304.25145 63.415694 
L 306.921307 64.827434 
L 306.921307 36.774811 
L 306.921307 36.774811 
L 304.25145 34.794518 
L 301.581594 32.084124 
L 298.911737 31.78465 
L 296.241881 31.913146 
L 293.572025 31.744068 
L 290.902168 30.945205 
L 288.232312 30.356188 
L 285.562455 29.878125 
L 282.892599 30.5105 
L 280.222742 31.504687 
L 277.552886 32.216231 
L 274.883029 32.109301 
L 272.213173 31.849085 
L 269.543316 30.762088 
L 266.87346 30.802286 
L 264.203603 30.899889 
L 261.533747 31.186928 
L 258.863891 31.509705 
L 256.194034 31.449393 
L 253.524178 30.252041 
L 250.854321 30.418787 
L 248.184465 31.71323 
L 245.514608 31.922501 
L 242.844752 32.430676 
L 240.174895 32.851946 
L 237.505039 32.901874 
L 234.835182 31.787855 
L 232.165326 32.857148 
L 229.495469 34.88703 
L 226.825613 35.0598 
L 224.155757 35.700638 
L 221.4859 36.577035 
L 218.816044 36.319009 
L 216.146187 35.256665 
L 213.476331 35.408132 
L 210.806474 34.720285 
L 208.136618 34.468109 
L 205.466761 35.879349 
L 202.796905 35.898284 
L 200.127048 37.520365 
L 197.457192 37.994327 
L 194.787336 38.490507 
L 192.117479 36.84143 
L 189.447623 36.97605 
L 186.777766 38.099649 
L 184.10791 37.96353 
L 181.438053 37.170466 
L 178.768197 38.196142 
L 176.09834 39.47389 
L 173.428484 38.506988 
L 170.758627 38.551151 
L 168.088771 39.378222 
L 165.418914 38.71347 
L 162.749058 38.112945 
L 160.079202 37.485847 
L 157.409345 39.346252 
L 154.739489 39.681173 
L 152.069632 41.783481 
L 149.399776 43.548664 
L 146.729919 45.039503 
L 144.060063 44.763359 
L 141.390206 46.2921 
L 138.72035 45.527806 
L 136.050493 43.806416 
L 133.380637 43.704548 
L 130.710781 43.086252 
L 128.040924 42.425161 
L 125.371068 43.118226 
L 122.701211 44.148068 
L 120.031355 44.037462 
L 117.361498 46.432809 
L 114.691642 46.107674 
L 112.021785 47.041638 
L 109.351929 46.742185 
L 106.682072 47.159152 
L 104.012216 46.96473 
L 101.342359 47.289601 
L 98.672503 47.166873 
L 96.002647 48.685331 
L 93.33279 48.577401 
L 90.662934 47.59142 
L 87.993077 49.591625 
L 85.323221 52.285796 
L 82.653364 52.566298 
L 79.983508 56.404259 
L 77.313651 60.934804 
L 74.643795 64.246677 
L 71.973938 67.192624 
L 69.304082 70.575716 
L 66.634225 74.426539 
L 63.964369 76.758468 
L 61.294513 79.555096 
L 58.624656 82.641126 
L 55.9548 88.522178 
L 53.284943 97.862748 
z
" clip-path="url(#p1c9459ea86)" style="fill: #2ca02c; fill-opacity: 0.2"/>
   </g>
   <g id="matplotlib.axis_1">
    <g id="xtick_1">
     <g id="line2d_1">
      <defs>
       <path id="m1b3dddb976" d="M 0 0 
L 0 3.5 
" style="stroke: #000000; stroke-width: 0.8"/>
      </defs>
      <g>
       <use xlink:href="#m1b3dddb976" x="47.94523" y="188.638125" style="stroke: #000000; stroke-width: 0.8"/>
      </g>
     </g>
     <g id="text_1">
      <!-- 0 -->
      <g transform="translate(44.76398 203.236563) scale(0.1 -0.1)">
       <defs>
        <path id="DejaVuSans-30" d="M 2034 4250 
Q 1547 4250 1301 3770 
Q 1056 3291 1056 2328 
Q 1056 1369 1301 889 
Q 1547 409 2034 409 
Q 2525 409 2770 889 
Q 3016 1369 3016 2328 
Q 3016 3291 2770 3770 
Q 2525 4250 2034 4250 
z
M 2034 4750 
Q 2819 4750 3233 4129 
Q 3647 3509 3647 2328 
Q 3647 1150 3233 529 
Q 2819 -91 2034 -91 
Q 1250 -91 836 529 
Q 422 1150 422 2328 
Q 422 3509 836 4129 
Q 1250 4750 2034 4750 
z
" transform="scale(0.015625)"/>
       </defs>
       <use xlink:href="#DejaVuSans-30"/>
      </g>
     </g>
    </g>
    <g id="xtick_2">
     <g id="line2d_2">
      <g>
       <use xlink:href="#m1b3dddb976" x="81.318436" y="188.638125" style="stroke: #000000; stroke-width: 0.8"/>
      </g>
     </g>
     <g id="text_2">
      <!-- 200 -->
      <g transform="translate(71.774686 203.236563) scale(0.1 -0.1)">
       <defs>
        <path id="DejaVuSans-32" d="M 1228 531 
L 3431 531 
L 3431 0 
L 469 0 
L 469 531 
Q 828 903 1448 1529 
Q 2069 2156 2228 2338 
Q 2531 2678 2651 2914 
Q 2772 3150 2772 3378 
Q 2772 3750 2511 3984 
Q 2250 4219 1831 4219 
Q 1534 4219 1204 4116 
Q 875 4013 500 3803 
L 500 4441 
Q 881 4594 1212 4672 
Q 1544 4750 1819 4750 
Q 2544 4750 2975 4387 
Q 3406 4025 3406 3419 
Q 3406 3131 3298 2873 
Q 3191 2616 2906 2266 
Q 2828 2175 2409 1742 
Q 1991 1309 1228 531 
z
" transform="scale(0.015625)"/>
       </defs>
       <use xlink:href="#DejaVuSans-32"/>
       <use xlink:href="#DejaVuSans-30" x="63.623047"/>
       <use xlink:href="#DejaVuSans-30" x="127.246094"/>
      </g>
     </g>
    </g>
    <g id="xtick_3">
     <g id="line2d_3">
      <g>
       <use xlink:href="#m1b3dddb976" x="114.691642" y="188.638125" style="stroke: #000000; stroke-width: 0.8"/>
      </g>
     </g>
     <g id="text_3">
      <!-- 400 -->
      <g transform="translate(105.147892 203.236563) scale(0.1 -0.1)">
       <defs>
        <path id="DejaVuSans-34" d="M 2419 4116 
L 825 1625 
L 2419 1625 
L 2419 4116 
z
M 2253 4666 
L 3047 4666 
L 3047 1625 
L 3713 1625 
L 3713 1100 
L 3047 1100 
L 3047 0 
L 2419 0 
L 2419 1100 
L 313 1100 
L 313 1709 
L 2253 4666 
z
" transform="scale(0.015625)"/>
       </defs>
       <use xlink:href="#DejaVuSans-34"/>
       <use xlink:href="#DejaVuSans-30" x="63.623047"/>
       <use xlink:href="#DejaVuSans-30" x="127.246094"/>
      </g>
     </g>
    </g>
    <g id="xtick_4">
     <g id="line2d_4">
      <g>
       <use xlink:href="#m1b3dddb976" x="148.064847" y="188.638125" style="stroke: #000000; stroke-width: 0.8"/>
      </g>
     </g>
     <g id="text_4">
      <!-- 600 -->
      <g transform="translate(138.521097 203.236563) scale(0.1 -0.1)">
       <defs>
        <path id="DejaVuSans-36" d="M 2113 2584 
Q 1688 2584 1439 2293 
Q 1191 2003 1191 1497 
Q 1191 994 1439 701 
Q 1688 409 2113 409 
Q 2538 409 2786 701 
Q 3034 994 3034 1497 
Q 3034 2003 2786 2293 
Q 2538 2584 2113 2584 
z
M 3366 4563 
L 3366 3988 
Q 3128 4100 2886 4159 
Q 2644 4219 2406 4219 
Q 1781 4219 1451 3797 
Q 1122 3375 1075 2522 
Q 1259 2794 1537 2939 
Q 1816 3084 2150 3084 
Q 2853 3084 3261 2657 
Q 3669 2231 3669 1497 
Q 3669 778 3244 343 
Q 2819 -91 2113 -91 
Q 1303 -91 875 529 
Q 447 1150 447 2328 
Q 447 3434 972 4092 
Q 1497 4750 2381 4750 
Q 2619 4750 2861 4703 
Q 3103 4656 3366 4563 
z
" transform="scale(0.015625)"/>
       </defs>
       <use xlink:href="#DejaVuSans-36"/>
       <use xlink:href="#DejaVuSans-30" x="63.623047"/>
       <use xlink:href="#DejaVuSans-30" x="127.246094"/>
      </g>
     </g>
    </g>
    <g id="xtick_5">
     <g id="line2d_5">
      <g>
       <use xlink:href="#m1b3dddb976" x="181.438053" y="188.638125" style="stroke: #000000; stroke-width: 0.8"/>
      </g>
     </g>
     <g id="text_5">
      <!-- 800 -->
      <g transform="translate(171.894303 203.236563) scale(0.1 -0.1)">
       <defs>
        <path id="DejaVuSans-38" d="M 2034 2216 
Q 1584 2216 1326 1975 
Q 1069 1734 1069 1313 
Q 1069 891 1326 650 
Q 1584 409 2034 409 
Q 2484 409 2743 651 
Q 3003 894 3003 1313 
Q 3003 1734 2745 1975 
Q 2488 2216 2034 2216 
z
M 1403 2484 
Q 997 2584 770 2862 
Q 544 3141 544 3541 
Q 544 4100 942 4425 
Q 1341 4750 2034 4750 
Q 2731 4750 3128 4425 
Q 3525 4100 3525 3541 
Q 3525 3141 3298 2862 
Q 3072 2584 2669 2484 
Q 3125 2378 3379 2068 
Q 3634 1759 3634 1313 
Q 3634 634 3220 271 
Q 2806 -91 2034 -91 
Q 1263 -91 848 271 
Q 434 634 434 1313 
Q 434 1759 690 2068 
Q 947 2378 1403 2484 
z
M 1172 3481 
Q 1172 3119 1398 2916 
Q 1625 2713 2034 2713 
Q 2441 2713 2670 2916 
Q 2900 3119 2900 3481 
Q 2900 3844 2670 4047 
Q 2441 4250 2034 4250 
Q 1625 4250 1398 4047 
Q 1172 3844 1172 3481 
z
" transform="scale(0.015625)"/>
       </defs>
       <use xlink:href="#DejaVuSans-38"/>
       <use xlink:href="#DejaVuSans-30" x="63.623047"/>
       <use xlink:href="#DejaVuSans-30" x="127.246094"/>
      </g>
     </g>
    </g>
    <g id="xtick_6">
     <g id="line2d_6">
      <g>
       <use xlink:href="#m1b3dddb976" x="214.811259" y="188.638125" style="stroke: #000000; stroke-width: 0.8"/>
      </g>
     </g>
     <g id="text_6">
      <!-- 1000 -->
      <g transform="translate(202.086259 203.236563) scale(0.1 -0.1)">
       <defs>
        <path id="DejaVuSans-31" d="M 794 531 
L 1825 531 
L 1825 4091 
L 703 3866 
L 703 4441 
L 1819 4666 
L 2450 4666 
L 2450 531 
L 3481 531 
L 3481 0 
L 794 0 
L 794 531 
z
" transform="scale(0.015625)"/>
       </defs>
       <use xlink:href="#DejaVuSans-31"/>
       <use xlink:href="#DejaVuSans-30" x="63.623047"/>
       <use xlink:href="#DejaVuSans-30" x="127.246094"/>
       <use xlink:href="#DejaVuSans-30" x="190.869141"/>
      </g>
     </g>
    </g>
    <g id="xtick_7">
     <g id="line2d_7">
      <g>
       <use xlink:href="#m1b3dddb976" x="248.184465" y="188.638125" style="stroke: #000000; stroke-width: 0.8"/>
      </g>
     </g>
     <g id="text_7">
      <!-- 1200 -->
      <g transform="translate(235.459465 203.236563) scale(0.1 -0.1)">
       <use xlink:href="#DejaVuSans-31"/>
       <use xlink:href="#DejaVuSans-32" x="63.623047"/>
       <use xlink:href="#DejaVuSans-30" x="127.246094"/>
       <use xlink:href="#DejaVuSans-30" x="190.869141"/>
      </g>
     </g>
    </g>
    <g id="xtick_8">
     <g id="line2d_8">
      <g>
       <use xlink:href="#m1b3dddb976" x="281.55767" y="188.638125" style="stroke: #000000; stroke-width: 0.8"/>
      </g>
     </g>
     <g id="text_8">
      <!-- 1400 -->
      <g transform="translate(268.83267 203.236563) scale(0.1 -0.1)">
       <use xlink:href="#DejaVuSans-31"/>
       <use xlink:href="#DejaVuSans-34" x="63.623047"/>
       <use xlink:href="#DejaVuSans-30" x="127.246094"/>
       <use xlink:href="#DejaVuSans-30" x="190.869141"/>
      </g>
     </g>
    </g>
    <g id="xtick_9">
     <g id="line2d_9">
      <g>
       <use xlink:href="#m1b3dddb976" x="314.930876" y="188.638125" style="stroke: #000000; stroke-width: 0.8"/>
      </g>
     </g>
     <g id="text_9">
      <!-- 1600 -->
      <g transform="translate(302.205876 203.236563) scale(0.1 -0.1)">
       <use xlink:href="#DejaVuSans-31"/>
       <use xlink:href="#DejaVuSans-36" x="63.623047"/>
       <use xlink:href="#DejaVuSans-30" x="127.246094"/>
       <use xlink:href="#DejaVuSans-30" x="190.869141"/>
      </g>
     </g>
    </g>
    <g id="text_10">
     <!-- Episode -->
     <g transform="translate(160.465625 216.914688) scale(0.1 -0.1)">
      <defs>
       <path id="DejaVuSans-45" d="M 628 4666 
L 3578 4666 
L 3578 4134 
L 1259 4134 
L 1259 2753 
L 3481 2753 
L 3481 2222 
L 1259 2222 
L 1259 531 
L 3634 531 
L 3634 0 
L 628 0 
L 628 4666 
z
" transform="scale(0.015625)"/>
       <path id="DejaVuSans-70" d="M 1159 525 
L 1159 -1331 
L 581 -1331 
L 581 3500 
L 1159 3500 
L 1159 2969 
Q 1341 3281 1617 3432 
Q 1894 3584 2278 3584 
Q 2916 3584 3314 3078 
Q 3713 2572 3713 1747 
Q 3713 922 3314 415 
Q 2916 -91 2278 -91 
Q 1894 -91 1617 61 
Q 1341 213 1159 525 
z
M 3116 1747 
Q 3116 2381 2855 2742 
Q 2594 3103 2138 3103 
Q 1681 3103 1420 2742 
Q 1159 2381 1159 1747 
Q 1159 1113 1420 752 
Q 1681 391 2138 391 
Q 2594 391 2855 752 
Q 3116 1113 3116 1747 
z
" transform="scale(0.015625)"/>
       <path id="DejaVuSans-69" d="M 603 3500 
L 1178 3500 
L 1178 0 
L 603 0 
L 603 3500 
z
M 603 4863 
L 1178 4863 
L 1178 4134 
L 603 4134 
L 603 4863 
z
" transform="scale(0.015625)"/>
       <path id="DejaVuSans-73" d="M 2834 3397 
L 2834 2853 
Q 2591 2978 2328 3040 
Q 2066 3103 1784 3103 
Q 1356 3103 1142 2972 
Q 928 2841 928 2578 
Q 928 2378 1081 2264 
Q 1234 2150 1697 2047 
L 1894 2003 
Q 2506 1872 2764 1633 
Q 3022 1394 3022 966 
Q 3022 478 2636 193 
Q 2250 -91 1575 -91 
Q 1294 -91 989 -36 
Q 684 19 347 128 
L 347 722 
Q 666 556 975 473 
Q 1284 391 1588 391 
Q 1994 391 2212 530 
Q 2431 669 2431 922 
Q 2431 1156 2273 1281 
Q 2116 1406 1581 1522 
L 1381 1569 
Q 847 1681 609 1914 
Q 372 2147 372 2553 
Q 372 3047 722 3315 
Q 1072 3584 1716 3584 
Q 2034 3584 2315 3537 
Q 2597 3491 2834 3397 
z
" transform="scale(0.015625)"/>
       <path id="DejaVuSans-6f" d="M 1959 3097 
Q 1497 3097 1228 2736 
Q 959 2375 959 1747 
Q 959 1119 1226 758 
Q 1494 397 1959 397 
Q 2419 397 2687 759 
Q 2956 1122 2956 1747 
Q 2956 2369 2687 2733 
Q 2419 3097 1959 3097 
z
M 1959 3584 
Q 2709 3584 3137 3096 
Q 3566 2609 3566 1747 
Q 3566 888 3137 398 
Q 2709 -91 1959 -91 
Q 1206 -91 779 398 
Q 353 888 353 1747 
Q 353 2609 779 3096 
Q 1206 3584 1959 3584 
z
" transform="scale(0.015625)"/>
       <path id="DejaVuSans-64" d="M 2906 2969 
L 2906 4863 
L 3481 4863 
L 3481 0 
L 2906 0 
L 2906 525 
Q 2725 213 2448 61 
Q 2172 -91 1784 -91 
Q 1150 -91 751 415 
Q 353 922 353 1747 
Q 353 2572 751 3078 
Q 1150 3584 1784 3584 
Q 2172 3584 2448 3432 
Q 2725 3281 2906 2969 
z
M 947 1747 
Q 947 1113 1208 752 
Q 1469 391 1925 391 
Q 2381 391 2643 752 
Q 2906 1113 2906 1747 
Q 2906 2381 2643 2742 
Q 2381 3103 1925 3103 
Q 1469 3103 1208 2742 
Q 947 2381 947 1747 
z
" transform="scale(0.015625)"/>
       <path id="DejaVuSans-65" d="M 3597 1894 
L 3597 1613 
L 953 1613 
Q 991 1019 1311 708 
Q 1631 397 2203 397 
Q 2534 397 2845 478 
Q 3156 559 3463 722 
L 3463 178 
Q 3153 47 2828 -22 
Q 2503 -91 2169 -91 
Q 1331 -91 842 396 
Q 353 884 353 1716 
Q 353 2575 817 3079 
Q 1281 3584 2069 3584 
Q 2775 3584 3186 3129 
Q 3597 2675 3597 1894 
z
M 3022 2063 
Q 3016 2534 2758 2815 
Q 2500 3097 2075 3097 
Q 1594 3097 1305 2825 
Q 1016 2553 972 2059 
L 3022 2063 
z
" transform="scale(0.015625)"/>
      </defs>
      <use xlink:href="#DejaVuSans-45"/>
      <use xlink:href="#DejaVuSans-70" x="63.183594"/>
      <use xlink:href="#DejaVuSans-69" x="126.660156"/>
      <use xlink:href="#DejaVuSans-73" x="154.443359"/>
      <use xlink:href="#DejaVuSans-6f" x="206.542969"/>
      <use xlink:href="#DejaVuSans-64" x="267.724609"/>
      <use xlink:href="#DejaVuSans-65" x="331.201172"/>
     </g>
    </g>
   </g>
   <g id="matplotlib.axis_2">
    <g id="ytick_1">
     <g id="line2d_10">
      <defs>
       <path id="m05c15aa344" d="M 0 0 
L -3.5 0 
" style="stroke: #000000; stroke-width: 0.8"/>
      </defs>
      <g>
       <use xlink:href="#m05c15aa344" x="40.603125" y="160.730032" style="stroke: #000000; stroke-width: 0.8"/>
      </g>
     </g>
     <g id="text_11">
      <!-- 15 -->
      <g transform="translate(20.878125 164.52925) scale(0.1 -0.1)">
       <defs>
        <path id="DejaVuSans-35" d="M 691 4666 
L 3169 4666 
L 3169 4134 
L 1269 4134 
L 1269 2991 
Q 1406 3038 1543 3061 
Q 1681 3084 1819 3084 
Q 2600 3084 3056 2656 
Q 3513 2228 3513 1497 
Q 3513 744 3044 326 
Q 2575 -91 1722 -91 
Q 1428 -91 1123 -41 
Q 819 9 494 109 
L 494 744 
Q 775 591 1075 516 
Q 1375 441 1709 441 
Q 2250 441 2565 725 
Q 2881 1009 2881 1497 
Q 2881 1984 2565 2268 
Q 2250 2553 1709 2553 
Q 1456 2553 1204 2497 
Q 953 2441 691 2322 
L 691 4666 
z
" transform="scale(0.015625)"/>
       </defs>
       <use xlink:href="#DejaVuSans-31"/>
       <use xlink:href="#DejaVuSans-35" x="63.623047"/>
      </g>
     </g>
    </g>
    <g id="ytick_2">
     <g id="line2d_11">
      <g>
       <use xlink:href="#m05c15aa344" x="40.603125" y="130.905592" style="stroke: #000000; stroke-width: 0.8"/>
      </g>
     </g>
     <g id="text_12">
      <!-- 20 -->
      <g transform="translate(20.878125 134.70481) scale(0.1 -0.1)">
       <use xlink:href="#DejaVuSans-32"/>
       <use xlink:href="#DejaVuSans-30" x="63.623047"/>
      </g>
     </g>
    </g>
    <g id="ytick_3">
     <g id="line2d_12">
      <g>
       <use xlink:href="#m05c15aa344" x="40.603125" y="101.081152" style="stroke: #000000; stroke-width: 0.8"/>
      </g>
     </g>
     <g id="text_13">
      <!-- 25 -->
      <g transform="translate(20.878125 104.88037) scale(0.1 -0.1)">
       <use xlink:href="#DejaVuSans-32"/>
       <use xlink:href="#DejaVuSans-35" x="63.623047"/>
      </g>
     </g>
    </g>
    <g id="ytick_4">
     <g id="line2d_13">
      <g>
       <use xlink:href="#m05c15aa344" x="40.603125" y="71.256712" style="stroke: #000000; stroke-width: 0.8"/>
      </g>
     </g>
     <g id="text_14">
      <!-- 30 -->
      <g transform="translate(20.878125 75.055931) scale(0.1 -0.1)">
       <defs>
        <path id="DejaVuSans-33" d="M 2597 2516 
Q 3050 2419 3304 2112 
Q 3559 1806 3559 1356 
Q 3559 666 3084 287 
Q 2609 -91 1734 -91 
Q 1441 -91 1130 -33 
Q 819 25 488 141 
L 488 750 
Q 750 597 1062 519 
Q 1375 441 1716 441 
Q 2309 441 2620 675 
Q 2931 909 2931 1356 
Q 2931 1769 2642 2001 
Q 2353 2234 1838 2234 
L 1294 2234 
L 1294 2753 
L 1863 2753 
Q 2328 2753 2575 2939 
Q 2822 3125 2822 3475 
Q 2822 3834 2567 4026 
Q 2313 4219 1838 4219 
Q 1578 4219 1281 4162 
Q 984 4106 628 3988 
L 628 4550 
Q 988 4650 1302 4700 
Q 1616 4750 1894 4750 
Q 2613 4750 3031 4423 
Q 3450 4097 3450 3541 
Q 3450 3153 3228 2886 
Q 3006 2619 2597 2516 
z
" transform="scale(0.015625)"/>
       </defs>
       <use xlink:href="#DejaVuSans-33"/>
       <use xlink:href="#DejaVuSans-30" x="63.623047"/>
      </g>
     </g>
    </g>
    <g id="ytick_5">
     <g id="line2d_14">
      <g>
       <use xlink:href="#m05c15aa344" x="40.603125" y="41.432272" style="stroke: #000000; stroke-width: 0.8"/>
      </g>
     </g>
     <g id="text_15">
      <!-- 35 -->
      <g transform="translate(20.878125 45.231491) scale(0.1 -0.1)">
       <use xlink:href="#DejaVuSans-33"/>
       <use xlink:href="#DejaVuSans-35" x="63.623047"/>
      </g>
     </g>
    </g>
    <g id="text_16">
     <!-- Performance -->
     <g transform="translate(14.798438 137.160156) rotate(-90) scale(0.1 -0.1)">
      <defs>
       <path id="DejaVuSans-50" d="M 1259 4147 
L 1259 2394 
L 2053 2394 
Q 2494 2394 2734 2622 
Q 2975 2850 2975 3272 
Q 2975 3691 2734 3919 
Q 2494 4147 2053 4147 
L 1259 4147 
z
M 628 4666 
L 2053 4666 
Q 2838 4666 3239 4311 
Q 3641 3956 3641 3272 
Q 3641 2581 3239 2228 
Q 2838 1875 2053 1875 
L 1259 1875 
L 1259 0 
L 628 0 
L 628 4666 
z
" transform="scale(0.015625)"/>
       <path id="DejaVuSans-72" d="M 2631 2963 
Q 2534 3019 2420 3045 
Q 2306 3072 2169 3072 
Q 1681 3072 1420 2755 
Q 1159 2438 1159 1844 
L 1159 0 
L 581 0 
L 581 3500 
L 1159 3500 
L 1159 2956 
Q 1341 3275 1631 3429 
Q 1922 3584 2338 3584 
Q 2397 3584 2469 3576 
Q 2541 3569 2628 3553 
L 2631 2963 
z
" transform="scale(0.015625)"/>
       <path id="DejaVuSans-66" d="M 2375 4863 
L 2375 4384 
L 1825 4384 
Q 1516 4384 1395 4259 
Q 1275 4134 1275 3809 
L 1275 3500 
L 2222 3500 
L 2222 3053 
L 1275 3053 
L 1275 0 
L 697 0 
L 697 3053 
L 147 3053 
L 147 3500 
L 697 3500 
L 697 3744 
Q 697 4328 969 4595 
Q 1241 4863 1831 4863 
L 2375 4863 
z
" transform="scale(0.015625)"/>
       <path id="DejaVuSans-6d" d="M 3328 2828 
Q 3544 3216 3844 3400 
Q 4144 3584 4550 3584 
Q 5097 3584 5394 3201 
Q 5691 2819 5691 2113 
L 5691 0 
L 5113 0 
L 5113 2094 
Q 5113 2597 4934 2840 
Q 4756 3084 4391 3084 
Q 3944 3084 3684 2787 
Q 3425 2491 3425 1978 
L 3425 0 
L 2847 0 
L 2847 2094 
Q 2847 2600 2669 2842 
Q 2491 3084 2119 3084 
Q 1678 3084 1418 2786 
Q 1159 2488 1159 1978 
L 1159 0 
L 581 0 
L 581 3500 
L 1159 3500 
L 1159 2956 
Q 1356 3278 1631 3431 
Q 1906 3584 2284 3584 
Q 2666 3584 2933 3390 
Q 3200 3197 3328 2828 
z
" transform="scale(0.015625)"/>
       <path id="DejaVuSans-61" d="M 2194 1759 
Q 1497 1759 1228 1600 
Q 959 1441 959 1056 
Q 959 750 1161 570 
Q 1363 391 1709 391 
Q 2188 391 2477 730 
Q 2766 1069 2766 1631 
L 2766 1759 
L 2194 1759 
z
M 3341 1997 
L 3341 0 
L 2766 0 
L 2766 531 
Q 2569 213 2275 61 
Q 1981 -91 1556 -91 
Q 1019 -91 701 211 
Q 384 513 384 1019 
Q 384 1609 779 1909 
Q 1175 2209 1959 2209 
L 2766 2209 
L 2766 2266 
Q 2766 2663 2505 2880 
Q 2244 3097 1772 3097 
Q 1472 3097 1187 3025 
Q 903 2953 641 2809 
L 641 3341 
Q 956 3463 1253 3523 
Q 1550 3584 1831 3584 
Q 2591 3584 2966 3190 
Q 3341 2797 3341 1997 
z
" transform="scale(0.015625)"/>
       <path id="DejaVuSans-6e" d="M 3513 2113 
L 3513 0 
L 2938 0 
L 2938 2094 
Q 2938 2591 2744 2837 
Q 2550 3084 2163 3084 
Q 1697 3084 1428 2787 
Q 1159 2491 1159 1978 
L 1159 0 
L 581 0 
L 581 3500 
L 1159 3500 
L 1159 2956 
Q 1366 3272 1645 3428 
Q 1925 3584 2291 3584 
Q 2894 3584 3203 3211 
Q 3513 2838 3513 2113 
z
" transform="scale(0.015625)"/>
       <path id="DejaVuSans-63" d="M 3122 3366 
L 3122 2828 
Q 2878 2963 2633 3030 
Q 2388 3097 2138 3097 
Q 1578 3097 1268 2742 
Q 959 2388 959 1747 
Q 959 1106 1268 751 
Q 1578 397 2138 397 
Q 2388 397 2633 464 
Q 2878 531 3122 666 
L 3122 134 
Q 2881 22 2623 -34 
Q 2366 -91 2075 -91 
Q 1284 -91 818 406 
Q 353 903 353 1747 
Q 353 2603 823 3093 
Q 1294 3584 2113 3584 
Q 2378 3584 2631 3529 
Q 2884 3475 3122 3366 
z
" transform="scale(0.015625)"/>
      </defs>
      <use xlink:href="#DejaVuSans-50"/>
      <use xlink:href="#DejaVuSans-65" x="56.677734"/>
      <use xlink:href="#DejaVuSans-72" x="118.201172"/>
      <use xlink:href="#DejaVuSans-66" x="159.314453"/>
      <use xlink:href="#DejaVuSans-6f" x="194.519531"/>
      <use xlink:href="#DejaVuSans-72" x="255.701172"/>
      <use xlink:href="#DejaVuSans-6d" x="295.064453"/>
      <use xlink:href="#DejaVuSans-61" x="392.476562"/>
      <use xlink:href="#DejaVuSans-6e" x="453.755859"/>
      <use xlink:href="#DejaVuSans-63" x="517.134766"/>
      <use xlink:href="#DejaVuSans-65" x="572.115234"/>
     </g>
    </g>
   </g>
   <g id="line2d_15">
    <path d="M 53.284943 149.57072 
L 55.9548 142.524696 
L 58.624656 138.447447 
L 61.294513 134.853602 
L 63.964369 130.470652 
L 66.634225 129.519998 
L 69.304082 127.089306 
L 71.973938 125.247647 
L 74.643795 122.534866 
L 77.313651 121.202707 
L 79.983508 117.772897 
L 82.653364 116.423341 
L 85.323221 115.123492 
L 87.993077 113.898205 
L 90.662934 113.53037 
L 93.33279 113.813702 
L 96.002647 113.476935 
L 98.672503 112.547406 
L 101.342359 110.97541 
L 104.012216 108.577028 
L 106.682072 107.41636 
L 109.351929 106.417241 
L 112.021785 105.721338 
L 114.691642 105.029162 
L 117.361498 103.309286 
L 120.031355 101.800666 
L 122.701211 100.521943 
L 125.371068 98.042787 
L 128.040924 97.509675 
L 130.710781 97.702291 
L 133.380637 96.489431 
L 136.050493 95.931465 
L 138.72035 96.265747 
L 141.390206 95.74382 
L 144.060063 94.107204 
L 146.729919 93.801503 
L 149.399776 93.949383 
L 152.069632 93.692147 
L 154.739489 93.803988 
L 157.409345 94.731031 
L 160.079202 94.42036 
L 162.749058 94.207861 
L 165.418914 93.721971 
L 168.088771 93.490832 
L 170.758627 94.076136 
L 173.428484 95.541262 
L 176.09834 95.727665 
L 178.768197 95.500253 
L 181.438053 95.846963 
L 184.10791 94.519775 
L 186.777766 94.550842 
L 189.447623 96.309241 
L 192.117479 97.074735 
L 194.787336 96.38256 
L 197.457192 96.626126 
L 200.127048 94.988267 
L 202.796905 92.705455 
L 205.466761 91.241572 
L 208.136618 90.959482 
L 210.806474 90.17162 
L 213.476331 90.227541 
L 216.146187 89.621111 
L 218.816044 90.427613 
L 221.4859 91.287551 
L 224.155757 91.7635 
L 226.825613 91.702608 
L 229.495469 92.136305 
L 232.165326 92.178556 
L 234.835182 90.949541 
L 237.505039 90.479806 
L 240.174895 91.872856 
L 242.844752 91.11109 
L 245.514608 90.515844 
L 248.184465 90.279734 
L 250.854321 91.477682 
L 253.524178 89.178715 
L 256.194034 89.725496 
L 258.863891 88.882956 
L 261.533747 89.766505 
L 264.203603 88.476598 
L 266.87346 89.104154 
L 269.543316 90.06972 
L 272.213173 91.854216 
L 274.883029 91.230388 
L 277.552886 90.514601 
L 280.222742 90.077176 
L 282.892599 87.796849 
L 285.562455 85.651975 
L 288.232312 84.357097 
L 290.902168 83.971865 
L 293.572025 83.282174 
L 296.241881 84.967255 
L 298.911737 86.997803 
L 301.581594 87.622873 
L 304.25145 87.858983 
L 306.921307 88.117462 
" clip-path="url(#p1c9459ea86)" style="fill: none; stroke: #1f77b4; stroke-width: 2; stroke-linecap: square"/>
   </g>
   <g id="line2d_16">
    <path d="M 53.284943 165.478083 
L 55.9548 161.226112 
L 58.624656 157.757529 
L 61.294513 153.995673 
L 63.964369 151.456619 
L 66.634225 148.323065 
L 69.304082 145.012552 
L 71.973938 141.981395 
L 74.643795 140.006022 
L 77.313651 137.534571 
L 79.983508 134.887154 
L 82.653364 132.317282 
L 85.323221 130.795241 
L 87.993077 127.99075 
L 90.662934 126.336487 
L 93.33279 125.027195 
L 96.002647 123.886907 
L 98.672503 122.753578 
L 101.342359 123.047846 
L 104.012216 122.040774 
L 106.682072 121.787266 
L 109.351929 120.80306 
L 112.021785 120.224466 
L 114.691642 118.791898 
L 117.361498 117.275823 
L 120.031355 116.811556 
L 122.701211 116.977578 
L 125.371068 116.279686 
L 128.040924 115.677233 
L 130.710781 115.792554 
L 133.380637 115.297468 
L 136.050493 114.757646 
L 138.72035 113.95338 
L 141.390206 113.552738 
L 144.060063 113.35888 
L 146.729919 113.293266 
L 149.399776 113.541803 
L 152.069632 114.001099 
L 154.739489 114.603553 
L 157.409345 114.038877 
L 160.079202 113.424493 
L 162.749058 113.322096 
L 165.418914 113.22467 
L 168.088771 112.254381 
L 170.758627 112.233504 
L 173.428484 112.340872 
L 176.09834 112.866776 
L 178.768197 112.133095 
L 181.438053 111.793096 
L 184.10791 111.592279 
L 186.777766 111.102164 
L 189.447623 109.485679 
L 192.117479 109.304744 
L 194.787336 111.644968 
L 197.457192 111.583331 
L 200.127048 111.469998 
L 202.796905 111.41532 
L 205.466761 110.851638 
L 208.136618 107.585862 
L 210.806474 106.657328 
L 213.476331 106.554931 
L 216.146187 106.184113 
L 218.816044 106.547972 
L 221.4859 106.982414 
L 224.155757 108.390128 
L 226.825613 107.878142 
L 229.495469 107.854282 
L 232.165326 107.305512 
L 234.835182 107.225981 
L 237.505039 106.463469 
L 240.174895 106.056862 
L 242.844752 105.957448 
L 245.514608 107.023174 
L 248.184465 107.784692 
L 250.854321 107.726037 
L 253.524178 107.588845 
L 256.194034 107.192179 
L 258.863891 106.141365 
L 261.533747 105.568736 
L 264.203603 105.704934 
L 266.87346 105.750665 
L 269.543316 105.873939 
L 272.213173 105.54587 
L 274.883029 105.268503 
L 277.552886 105.184995 
L 280.222742 105.09751 
L 282.892599 105.224761 
L 285.562455 105.213825 
L 288.232312 105.205872 
L 290.902168 104.727687 
L 293.572025 104.935464 
L 296.241881 105.062714 
L 298.911737 105.063709 
L 301.581594 105.065697 
L 304.25145 105.06172 
L 306.921307 105.017978 
" clip-path="url(#p1c9459ea86)" style="fill: none; stroke: #ff7f0e; stroke-width: 2; stroke-linecap: square"/>
   </g>
   <g id="line2d_17">
    <path d="M 53.284943 126.090933 
L 55.9548 118.131784 
L 58.624656 113.031805 
L 61.294513 109.208312 
L 63.964369 104.156051 
L 66.634225 101.55039 
L 69.304082 98.386016 
L 71.973938 95.661057 
L 74.643795 93.968023 
L 77.313651 91.881306 
L 79.983508 87.753604 
L 82.653364 84.873557 
L 85.323221 83.589118 
L 87.993077 80.450592 
L 90.662934 78.789371 
L 93.33279 78.231654 
L 96.002647 76.756338 
L 98.672503 74.19939 
L 101.342359 73.758982 
L 104.012216 71.815423 
L 106.682072 70.66917 
L 109.351929 68.677892 
L 112.021785 68.632161 
L 114.691642 67.106144 
L 117.361498 66.967957 
L 120.031355 65.320654 
L 122.701211 65.435975 
L 125.371068 64.131653 
L 128.040924 62.965517 
L 130.710781 62.827331 
L 133.380637 63.05002 
L 136.050493 62.949611 
L 138.72035 64.17639 
L 141.390206 64.412997 
L 144.060063 63.053997 
L 146.729919 62.986395 
L 149.399776 62.699086 
L 152.069632 60.671024 
L 154.739489 60.904649 
L 157.409345 61.156168 
L 160.079202 60.163014 
L 162.749058 59.790209 
L 165.418914 60.289271 
L 168.088771 59.43828 
L 170.758627 58.93723 
L 173.428484 59.410444 
L 176.09834 60.408569 
L 178.768197 59.924419 
L 181.438053 59.212609 
L 184.10791 59.527754 
L 186.777766 59.606291 
L 189.447623 59.03068 
L 192.117479 59.540678 
L 194.787336 60.530849 
L 197.457192 60.679971 
L 200.127048 59.995003 
L 202.796905 59.074422 
L 205.466761 58.853721 
L 208.136618 58.071327 
L 210.806474 57.801913 
L 213.476331 58.216472 
L 216.146187 57.545423 
L 218.816044 57.858579 
L 221.4859 57.526534 
L 224.155757 57.098056 
L 226.825613 56.664607 
L 229.495469 56.719286 
L 232.165326 55.694319 
L 234.835182 55.596892 
L 237.505039 56.060165 
L 240.174895 56.0204 
L 242.844752 56.083031 
L 245.514608 57.01753 
L 248.184465 56.612912 
L 250.854321 55.834494 
L 253.524178 55.157479 
L 256.194034 55.785781 
L 258.863891 55.679407 
L 261.533747 55.39011 
L 264.203603 54.39795 
L 266.87346 54.442687 
L 269.543316 53.498246 
L 272.213173 51.739598 
L 274.883029 50.72855 
L 277.552886 50.853812 
L 280.222742 49.217445 
L 282.892599 48.254115 
L 285.562455 47.662597 
L 288.232312 47.809731 
L 290.902168 47.574118 
L 293.572025 48.305811 
L 296.241881 47.874351 
L 298.911737 47.521428 
L 301.581594 47.891251 
L 304.25145 49.105106 
L 306.921307 50.801123 
" clip-path="url(#p1c9459ea86)" style="fill: none; stroke: #2ca02c; stroke-width: 2; stroke-linecap: square"/>
   </g>
   <g id="patch_3">
    <path d="M 40.603125 188.638125 
L 40.603125 22.318125 
" style="fill: none; stroke: #000000; stroke-width: 0.8; stroke-linejoin: miter; stroke-linecap: square"/>
   </g>
   <g id="patch_4">
    <path d="M 319.603125 188.638125 
L 319.603125 22.318125 
" style="fill: none; stroke: #000000; stroke-width: 0.8; stroke-linejoin: miter; stroke-linecap: square"/>
   </g>
   <g id="patch_5">
    <path d="M 40.603125 188.638125 
L 319.603125 188.638125 
" style="fill: none; stroke: #000000; stroke-width: 0.8; stroke-linejoin: miter; stroke-linecap: square"/>
   </g>
   <g id="patch_6">
    <path d="M 40.603125 22.318125 
L 319.603125 22.318125 
" style="fill: none; stroke: #000000; stroke-width: 0.8; stroke-linejoin: miter; stroke-linecap: square"/>
   </g>
   <g id="text_17">
    <!-- F17 -->
    <g transform="translate(169.017188 16.318125) scale(0.12 -0.12)">
     <defs>
      <path id="DejaVuSans-46" d="M 628 4666 
L 3309 4666 
L 3309 4134 
L 1259 4134 
L 1259 2759 
L 3109 2759 
L 3109 2228 
L 1259 2228 
L 1259 0 
L 628 0 
L 628 4666 
z
" transform="scale(0.015625)"/>
      <path id="DejaVuSans-37" d="M 525 4666 
L 3525 4666 
L 3525 4397 
L 1831 0 
L 1172 0 
L 2766 4134 
L 525 4134 
L 525 4666 
z
" transform="scale(0.015625)"/>
     </defs>
     <use xlink:href="#DejaVuSans-46"/>
     <use xlink:href="#DejaVuSans-31" x="57.519531"/>
     <use xlink:href="#DejaVuSans-37" x="121.142578"/>
    </g>
   </g>
   <g id="legend_1">
    <g id="patch_7">
     <path d="M 236.720313 183.638125 
L 312.603125 183.638125 
Q 314.603125 183.638125 314.603125 181.638125 
L 314.603125 138.60375 
Q 314.603125 136.60375 312.603125 136.60375 
L 236.720313 136.60375 
Q 234.720313 136.60375 234.720313 138.60375 
L 234.720313 181.638125 
Q 234.720313 183.638125 236.720313 183.638125 
z
" style="fill: #ffffff; opacity: 0.8; stroke: #cccccc; stroke-linejoin: miter"/>
    </g>
    <g id="line2d_18">
     <path d="M 238.720313 144.702188 
L 248.720313 144.702188 
L 258.720312 144.702188 
" style="fill: none; stroke: #1f77b4; stroke-width: 2; stroke-linecap: square"/>
    </g>
    <g id="text_18">
     <!-- FE5000 -->
     <g transform="translate(266.720312 148.202188) scale(0.1 -0.1)">
      <use xlink:href="#DejaVuSans-46"/>
      <use xlink:href="#DejaVuSans-45" x="57.519531"/>
      <use xlink:href="#DejaVuSans-35" x="120.703125"/>
      <use xlink:href="#DejaVuSans-30" x="184.326172"/>
      <use xlink:href="#DejaVuSans-30" x="247.949219"/>
      <use xlink:href="#DejaVuSans-30" x="311.572266"/>
     </g>
    </g>
    <g id="line2d_19">
     <path d="M 238.720313 159.380313 
L 248.720313 159.380313 
L 258.720312 159.380313 
" style="fill: none; stroke: #ff7f0e; stroke-width: 2; stroke-linecap: square"/>
    </g>
    <g id="text_19">
     <!-- FE3000 -->
     <g transform="translate(266.720312 162.880313) scale(0.1 -0.1)">
      <use xlink:href="#DejaVuSans-46"/>
      <use xlink:href="#DejaVuSans-45" x="57.519531"/>
      <use xlink:href="#DejaVuSans-33" x="120.703125"/>
      <use xlink:href="#DejaVuSans-30" x="184.326172"/>
      <use xlink:href="#DejaVuSans-30" x="247.949219"/>
      <use xlink:href="#DejaVuSans-30" x="311.572266"/>
     </g>
    </g>
    <g id="line2d_20">
     <path d="M 238.720313 174.058438 
L 248.720313 174.058438 
L 258.720312 174.058438 
" style="fill: none; stroke: #2ca02c; stroke-width: 2; stroke-linecap: square"/>
    </g>
    <g id="text_20">
     <!-- FE10000 -->
     <g transform="translate(266.720312 177.558438) scale(0.1 -0.1)">
      <use xlink:href="#DejaVuSans-46"/>
      <use xlink:href="#DejaVuSans-45" x="57.519531"/>
      <use xlink:href="#DejaVuSans-31" x="120.703125"/>
      <use xlink:href="#DejaVuSans-30" x="184.326172"/>
      <use xlink:href="#DejaVuSans-30" x="247.949219"/>
      <use xlink:href="#DejaVuSans-30" x="311.572266"/>
      <use xlink:href="#DejaVuSans-30" x="375.195312"/>
     </g>
    </g>
   </g>
  </g>
 </g>
 <defs>
  <clipPath id="p1c9459ea86">
   <rect x="40.603125" y="22.318125" width="279" height="166.32"/>
  </clipPath>
 </defs>
</svg>
