<?xml version="1.0" encoding="utf-8" standalone="no"?>
<!DOCTYPE svg PUBLIC "-//W3C//DTD SVG 1.1//EN"
  "http://www.w3.org/Graphics/SVG/1.1/DTD/svg11.dtd">
<svg xmlns:xlink="http://www.w3.org/1999/xlink" width="341.218376pt" height="226.194375pt" viewBox="0 0 341.218376 226.194375" xmlns="http://www.w3.org/2000/svg" version="1.1">
 <metadata>
  <rdf:RDF xmlns:dc="http://purl.org/dc/elements/1.1/" xmlns:cc="http://creativecommons.org/ns#" xmlns:rdf="http://www.w3.org/1999/02/22-rdf-syntax-ns#">
   <cc:Work>
    <dc:type rdf:resource="http://purl.org/dc/dcmitype/StillImage"/>
    <dc:date>2024-07-12T13:36:59.502620</dc:date>
    <dc:format>image/svg+xml</dc:format>
    <dc:creator>
     <cc:Agent>
      <dc:title>Matplotlib v3.7.4, https://matplotlib.org/</dc:title>
     </cc:Agent>
    </dc:creator>
   </cc:Work>
  </rdf:RDF>
 </metadata>
 <defs>
  <style type="text/css">*{stroke-linejoin: round; stroke-linecap: butt}</style>
 </defs>
 <g id="figure_1">
  <g id="patch_1">
   <path d="M 0 226.194375 
L 341.218376 226.194375 
L 341.218376 0 
L 0 0 
z
" style="fill: #ffffff"/>
  </g>
  <g id="axes_1">
   <g id="patch_2">
    <path d="M 46.965625 188.638125 
L 325.965625 188.638125 
L 325.965625 22.318125 
L 46.965625 22.318125 
z
" style="fill: #ffffff"/>
   </g>
   <g id="PolyCollection_1">
    <path d="M 59.647443 134.803864 
L 59.647443 179.535546 
L 62.3173 167.155753 
L 64.987156 157.919546 
L 67.657013 149.740308 
L 70.326869 147.310691 
L 72.996725 140.479355 
L 75.666582 133.697751 
L 78.336438 128.10164 
L 81.006295 124.088376 
L 83.676151 115.099212 
L 86.346008 107.743015 
L 89.015864 102.764489 
L 91.685721 99.049735 
L 94.355577 95.159422 
L 97.025434 93.340382 
L 99.69529 94.642599 
L 102.365147 93.249447 
L 105.035003 90.725796 
L 107.704859 90.411855 
L 110.374716 89.295717 
L 113.044572 86.646062 
L 115.714429 87.205754 
L 118.384285 86.696091 
L 121.054142 86.223921 
L 123.723998 85.809559 
L 126.393855 86.183387 
L 129.063711 86.965835 
L 131.733568 87.049387 
L 134.403424 87.358906 
L 137.073281 87.407422 
L 139.743137 87.195654 
L 142.412993 84.827818 
L 145.08285 84.566263 
L 147.752706 90.88545 
L 150.422563 92.709131 
L 153.092419 91.503593 
L 155.762276 91.755823 
L 158.432132 92.062761 
L 161.101989 86.655168 
L 163.771845 84.974808 
L 166.441702 87.397145 
L 169.111558 96.330535 
L 171.781414 101.290561 
L 174.451271 102.125197 
L 177.121127 102.9355 
L 179.790984 100.996311 
L 182.46084 92.104904 
L 185.130697 86.632664 
L 187.800553 83.820328 
L 190.47041 82.701421 
L 193.140266 82.105465 
L 195.810123 81.662578 
L 198.479979 81.827719 
L 201.149836 82.970796 
L 203.819692 88.417096 
L 206.489548 88.432546 
L 209.159405 89.234529 
L 211.829261 90.109772 
L 214.499118 89.412695 
L 217.168974 86.333465 
L 219.838831 87.338243 
L 222.508687 86.956561 
L 225.178544 86.07331 
L 227.8484 85.891655 
L 230.518257 85.339935 
L 233.188113 83.989138 
L 235.857969 83.283609 
L 238.527826 83.088836 
L 241.197682 83.11974 
L 243.867539 81.03227 
L 246.537395 82.039315 
L 249.207252 82.178784 
L 251.877108 81.811698 
L 254.546965 81.829619 
L 257.216821 81.934971 
L 259.886678 81.873794 
L 262.556534 81.860556 
L 265.226391 81.769009 
L 267.896247 81.117723 
L 270.566103 81.341673 
L 273.23596 80.362356 
L 275.905816 80.595844 
L 278.575673 80.892308 
L 281.245529 81.127236 
L 283.915386 81.124693 
L 286.585242 84.154838 
L 289.255099 89.655263 
L 291.924955 90.879004 
L 294.594812 91.726164 
L 297.264668 91.342101 
L 299.934525 88.203923 
L 302.604381 82.69461 
L 305.274237 81.406091 
L 307.944094 80.684254 
L 310.61395 80.582534 
L 313.283807 81.754358 
L 313.283807 67.588619 
L 313.283807 67.588619 
L 310.61395 65.971564 
L 307.944094 65.695252 
L 305.274237 65.628135 
L 302.604381 65.256225 
L 299.934525 65.740475 
L 297.264668 65.32111 
L 294.594812 65.772103 
L 291.924955 66.015082 
L 289.255099 67.817734 
L 286.585242 67.163787 
L 283.915386 67.411945 
L 281.245529 66.960286 
L 278.575673 66.403807 
L 275.905816 64.852122 
L 273.23596 64.758249 
L 270.566103 65.30087 
L 267.896247 65.353673 
L 265.226391 65.788993 
L 262.556534 66.439464 
L 259.886678 66.891422 
L 257.216821 66.505181 
L 254.546965 67.120527 
L 251.877108 67.20277 
L 249.207252 66.597918 
L 246.537395 66.099896 
L 243.867539 66.054794 
L 241.197682 65.313521 
L 238.527826 65.370844 
L 235.857969 65.379378 
L 233.188113 65.750118 
L 230.518257 65.823625 
L 227.8484 66.06561 
L 225.178544 66.089559 
L 222.508687 67.077431 
L 219.838831 67.179323 
L 217.168974 68.697539 
L 214.499118 68.964275 
L 211.829261 68.816245 
L 209.159405 68.021376 
L 206.489548 67.957291 
L 203.819692 66.441614 
L 201.149836 66.192995 
L 198.479979 66.5148 
L 195.810123 66.706359 
L 193.140266 66.508131 
L 190.47041 66.48764 
L 187.800553 66.502433 
L 185.130697 66.697216 
L 182.46084 66.752194 
L 179.790984 64.893863 
L 177.121127 64.699446 
L 174.451271 64.890637 
L 171.781414 66.16405 
L 169.111558 65.994284 
L 166.441702 67.884261 
L 163.771845 68.629595 
L 161.101989 69.315418 
L 158.432132 68.390937 
L 155.762276 69.064288 
L 153.092419 69.515231 
L 150.422563 68.935698 
L 147.752706 69.572842 
L 145.08285 70.286704 
L 142.412993 70.655747 
L 139.743137 71.738403 
L 137.073281 73.591876 
L 134.403424 72.561826 
L 131.733568 71.720416 
L 129.063711 71.539782 
L 126.393855 70.78536 
L 123.723998 69.817586 
L 121.054142 70.28767 
L 118.384285 71.299534 
L 115.714429 72.257823 
L 113.044572 73.616962 
L 110.374716 74.556783 
L 107.704859 75.97338 
L 105.035003 77.114756 
L 102.365147 78.984623 
L 99.69529 80.379202 
L 97.025434 82.766876 
L 94.355577 84.632649 
L 91.685721 85.427606 
L 89.015864 86.731227 
L 86.346008 87.456809 
L 83.676151 87.931987 
L 81.006295 89.295445 
L 78.336438 91.511215 
L 75.666582 93.57763 
L 72.996725 97.26466 
L 70.326869 99.407588 
L 67.657013 105.907439 
L 64.987156 110.560721 
L 62.3173 117.459351 
L 59.647443 134.803864 
z
" clip-path="url(#pb93de72623)" style="fill: #1f77b4; fill-opacity: 0.2"/>
   </g>
   <g id="PolyCollection_2">
    <path d="M 59.647443 148.715443 
L 59.647443 181.078125 
L 62.3173 169.217976 
L 64.987156 162.517823 
L 67.657013 158.051706 
L 70.326869 150.207771 
L 72.996725 145.085469 
L 75.666582 142.439599 
L 78.336438 139.039285 
L 81.006295 135.709436 
L 83.676151 133.680728 
L 86.346008 130.548052 
L 89.015864 128.244603 
L 91.685721 126.685199 
L 94.355577 125.897405 
L 97.025434 125.081529 
L 99.69529 126.994827 
L 102.365147 126.470326 
L 105.035003 128.386233 
L 107.704859 128.77154 
L 110.374716 128.730892 
L 113.044572 127.891661 
L 115.714429 127.826998 
L 118.384285 125.933084 
L 121.054142 125.415941 
L 123.723998 124.961084 
L 126.393855 123.395722 
L 129.063711 123.198565 
L 131.733568 122.349766 
L 134.403424 122.196412 
L 137.073281 122.449299 
L 139.743137 122.56589 
L 142.412993 122.473616 
L 145.08285 122.821636 
L 147.752706 122.842926 
L 150.422563 122.3948 
L 153.092419 122.353977 
L 155.762276 123.444121 
L 158.432132 123.65857 
L 161.101989 123.878193 
L 163.771845 124.365839 
L 166.441702 124.814948 
L 169.111558 123.487247 
L 171.781414 123.387505 
L 174.451271 123.288155 
L 177.121127 123.259429 
L 179.790984 124.328717 
L 182.46084 125.71433 
L 185.130697 126.068694 
L 187.800553 126.318843 
L 190.47041 127.181852 
L 193.140266 126.140895 
L 195.810123 125.17652 
L 198.479979 125.498429 
L 201.149836 124.897772 
L 203.819692 123.086549 
L 206.489548 122.419426 
L 209.159405 120.80697 
L 211.829261 119.239314 
L 214.499118 118.453559 
L 217.168974 117.507296 
L 219.838831 116.427305 
L 222.508687 116.487179 
L 225.178544 116.025388 
L 227.8484 115.801248 
L 230.518257 116.046387 
L 233.188113 116.306563 
L 235.857969 116.481888 
L 238.527826 120.804926 
L 241.197682 121.155707 
L 243.867539 120.957832 
L 246.537395 120.780612 
L 249.207252 120.257618 
L 251.877108 115.646316 
L 254.546965 114.897246 
L 257.216821 114.74054 
L 259.886678 119.297191 
L 262.556534 120.096771 
L 265.226391 120.163166 
L 267.896247 120.365628 
L 270.566103 120.421785 
L 273.23596 116.184193 
L 275.905816 115.300772 
L 278.575673 115.249063 
L 281.245529 115.293247 
L 283.915386 115.29595 
L 286.585242 115.156494 
L 289.255099 117.558792 
L 291.924955 117.545714 
L 294.594812 117.49911 
L 297.264668 117.116622 
L 299.934525 116.215989 
L 302.604381 113.200704 
L 305.274237 113.941573 
L 307.944094 113.357891 
L 310.61395 122.54143 
L 313.283807 132.148249 
L 313.283807 93.955067 
L 313.283807 93.955067 
L 310.61395 96.931061 
L 307.944094 97.374887 
L 305.274237 97.522654 
L 302.604381 98.086175 
L 299.934525 98.092252 
L 297.264668 98.507492 
L 294.594812 99.013586 
L 291.924955 99.377733 
L 289.255099 98.816987 
L 286.585242 98.969804 
L 283.915386 99.294395 
L 281.245529 99.117911 
L 278.575673 99.865059 
L 275.905816 99.953942 
L 273.23596 100.167694 
L 270.566103 98.741036 
L 267.896247 98.618006 
L 265.226391 97.707673 
L 262.556534 98.033199 
L 259.886678 98.265814 
L 257.216821 99.405055 
L 254.546965 99.947636 
L 251.877108 100.981243 
L 249.207252 101.010416 
L 246.537395 101.067251 
L 243.867539 101.180405 
L 241.197682 101.102907 
L 238.527826 100.52835 
L 235.857969 100.905606 
L 233.188113 101.735193 
L 230.518257 101.882343 
L 227.8484 102.461964 
L 225.178544 102.430794 
L 222.508687 102.292457 
L 219.838831 101.501424 
L 217.168974 101.483689 
L 214.499118 100.843422 
L 211.829261 100.810251 
L 209.159405 100.726627 
L 206.489548 100.881228 
L 203.819692 100.699287 
L 201.149836 100.659714 
L 198.479979 100.761101 
L 195.810123 100.507775 
L 193.140266 99.888909 
L 190.47041 99.40297 
L 187.800553 99.524423 
L 185.130697 99.458468 
L 182.46084 99.64651 
L 179.790984 99.919328 
L 177.121127 100.527325 
L 174.451271 100.390169 
L 171.781414 99.941634 
L 169.111558 100.175455 
L 166.441702 102.009709 
L 163.771845 101.908394 
L 161.101989 101.829993 
L 158.432132 102.036752 
L 155.762276 101.777965 
L 153.092419 99.855935 
L 150.422563 99.725979 
L 147.752706 99.936707 
L 145.08285 100.03978 
L 142.412993 99.970617 
L 139.743137 100.468281 
L 137.073281 100.83849 
L 134.403424 100.66041 
L 131.733568 100.673378 
L 129.063711 101.685364 
L 126.393855 101.201507 
L 123.723998 101.351743 
L 121.054142 101.675199 
L 118.384285 102.365498 
L 115.714429 101.867402 
L 113.044572 103.080937 
L 110.374716 102.466838 
L 107.704859 103.396555 
L 105.035003 103.791969 
L 102.365147 105.22637 
L 99.69529 105.663963 
L 97.025434 107.73807 
L 94.355577 108.948381 
L 91.685721 110.897089 
L 89.015864 111.738786 
L 86.346008 113.729383 
L 83.676151 115.01205 
L 81.006295 117.251659 
L 78.336438 118.278343 
L 75.666582 122.668512 
L 72.996725 125.044463 
L 70.326869 127.968101 
L 67.657013 129.966566 
L 64.987156 135.204094 
L 62.3173 140.174045 
L 59.647443 148.715443 
z
" clip-path="url(#pb93de72623)" style="fill: #ff7f0e; fill-opacity: 0.2"/>
   </g>
   <g id="PolyCollection_3">
    <path d="M 59.647443 87.288697 
L 59.647443 122.204477 
L 62.3173 106.933827 
L 64.987156 98.805264 
L 67.657013 93.048878 
L 70.326869 90.09303 
L 72.996725 84.37471 
L 75.666582 81.90891 
L 78.336438 78.778152 
L 81.006295 77.150945 
L 83.676151 73.582004 
L 86.346008 70.732495 
L 89.015864 68.82846 
L 91.685721 66.264391 
L 94.355577 65.352372 
L 97.025434 64.825335 
L 99.69529 64.682142 
L 102.365147 66.647557 
L 105.035003 66.763706 
L 107.704859 68.348814 
L 110.374716 69.432923 
L 113.044572 70.173652 
L 115.714429 67.31588 
L 118.384285 68.906791 
L 121.054142 66.356266 
L 123.723998 65.807886 
L 126.393855 64.819463 
L 129.063711 64.252516 
L 131.733568 61.996513 
L 134.403424 63.015081 
L 137.073281 63.407397 
L 139.743137 61.971932 
L 142.412993 61.50463 
L 145.08285 61.40774 
L 147.752706 60.465372 
L 150.422563 58.34114 
L 153.092419 58.661592 
L 155.762276 58.735928 
L 158.432132 58.775587 
L 161.101989 60.423044 
L 163.771845 64.328742 
L 166.441702 65.956922 
L 169.111558 67.514984 
L 171.781414 72.768356 
L 174.451271 79.848764 
L 177.121127 79.099285 
L 179.790984 77.937361 
L 182.46084 77.462836 
L 185.130697 73.761998 
L 187.800553 63.939377 
L 190.47041 61.852647 
L 193.140266 61.806158 
L 195.810123 61.425518 
L 198.479979 59.501566 
L 201.149836 58.442851 
L 203.819692 57.448822 
L 206.489548 56.74337 
L 209.159405 55.491866 
L 211.829261 54.668264 
L 214.499118 54.693933 
L 217.168974 55.235527 
L 219.838831 56.479697 
L 222.508687 58.148658 
L 225.178544 58.613416 
L 227.8484 59.044176 
L 230.518257 58.090249 
L 233.188113 56.463403 
L 235.857969 55.722449 
L 238.527826 55.51357 
L 241.197682 55.788031 
L 243.867539 59.37963 
L 246.537395 64.574949 
L 249.207252 66.496761 
L 251.877108 67.905369 
L 254.546965 69.403333 
L 257.216821 66.905081 
L 259.886678 62.030657 
L 262.556534 59.574335 
L 265.226391 58.3324 
L 267.896247 56.431441 
L 270.566103 56.399012 
L 273.23596 55.984525 
L 275.905816 55.436713 
L 278.575673 55.928295 
L 281.245529 55.41283 
L 283.915386 59.915863 
L 286.585242 65.615604 
L 289.255099 70.723161 
L 291.924955 70.424321 
L 294.594812 70.642008 
L 297.264668 64.819133 
L 299.934525 58.50466 
L 302.604381 54.12766 
L 305.274237 53.275417 
L 307.944094 54.275394 
L 310.61395 53.361576 
L 313.283807 52.591006 
L 313.283807 32.610047 
L 313.283807 32.610047 
L 310.61395 33.173728 
L 307.944094 33.062115 
L 305.274237 31.515805 
L 302.604381 31.340795 
L 299.934525 29.992509 
L 297.264668 31.150578 
L 294.594812 29.878125 
L 291.924955 30.509319 
L 289.255099 30.834416 
L 286.585242 32.136784 
L 283.915386 31.489642 
L 281.245529 33.439955 
L 278.575673 33.859937 
L 275.905816 33.405965 
L 273.23596 33.358037 
L 270.566103 33.146628 
L 267.896247 32.867933 
L 265.226391 32.905864 
L 262.556534 34.113733 
L 259.886678 35.731839 
L 257.216821 35.848912 
L 254.546965 37.308387 
L 251.877108 38.119929 
L 249.207252 37.429755 
L 246.537395 36.787821 
L 243.867539 37.465798 
L 241.197682 36.483084 
L 238.527826 36.240201 
L 235.857969 37.043956 
L 233.188113 36.475757 
L 230.518257 36.331106 
L 227.8484 36.519378 
L 225.178544 36.555928 
L 222.508687 36.292913 
L 219.838831 36.544002 
L 217.168974 38.505837 
L 214.499118 38.64587 
L 211.829261 38.860833 
L 209.159405 38.873435 
L 206.489548 39.532337 
L 203.819692 39.565685 
L 201.149836 39.885691 
L 198.479979 40.791597 
L 195.810123 41.885331 
L 193.140266 42.735106 
L 190.47041 42.777751 
L 187.800553 44.188377 
L 185.130697 43.084334 
L 182.46084 42.413129 
L 179.790984 42.953076 
L 177.121127 42.787246 
L 174.451271 42.523868 
L 171.781414 44.429917 
L 169.111558 46.230041 
L 166.441702 46.746064 
L 163.771845 47.952467 
L 161.101989 48.451781 
L 158.432132 48.940497 
L 155.762276 49.831982 
L 153.092419 49.590214 
L 150.422563 49.535753 
L 147.752706 49.912783 
L 145.08285 50.039102 
L 142.412993 49.75016 
L 139.743137 50.580354 
L 137.073281 50.961565 
L 134.403424 51.477934 
L 131.733568 51.880835 
L 129.063711 52.244632 
L 126.393855 52.330109 
L 123.723998 52.339617 
L 121.054142 53.011544 
L 118.384285 53.230601 
L 115.714429 53.552503 
L 113.044572 53.179453 
L 110.374716 53.458891 
L 107.704859 52.724485 
L 105.035003 53.112259 
L 102.365147 52.880142 
L 99.69529 54.307997 
L 97.025434 54.290695 
L 94.355577 55.059315 
L 91.685721 55.708517 
L 89.015864 57.246444 
L 86.346008 57.684699 
L 83.676151 57.781202 
L 81.006295 58.385932 
L 78.336438 58.830857 
L 75.666582 60.664029 
L 72.996725 62.660435 
L 70.326869 65.368482 
L 67.657013 68.592276 
L 64.987156 72.484401 
L 62.3173 77.960239 
L 59.647443 87.288697 
z
" clip-path="url(#pb93de72623)" style="fill: #2ca02c; fill-opacity: 0.2"/>
   </g>
   <g id="matplotlib.axis_1">
    <g id="xtick_1">
     <g id="line2d_1">
      <defs>
       <path id="m18a0cffa66" d="M 0 0 
L 0 3.5 
" style="stroke: #000000; stroke-width: 0.8"/>
      </defs>
      <g>
       <use xlink:href="#m18a0cffa66" x="54.30773" y="188.638125" style="stroke: #000000; stroke-width: 0.8"/>
      </g>
     </g>
     <g id="text_1">
      <!-- 0 -->
      <g transform="translate(51.12648 203.236563) scale(0.1 -0.1)">
       <defs>
        <path id="DejaVuSans-30" d="M 2034 4250 
Q 1547 4250 1301 3770 
Q 1056 3291 1056 2328 
Q 1056 1369 1301 889 
Q 1547 409 2034 409 
Q 2525 409 2770 889 
Q 3016 1369 3016 2328 
Q 3016 3291 2770 3770 
Q 2525 4250 2034 4250 
z
M 2034 4750 
Q 2819 4750 3233 4129 
Q 3647 3509 3647 2328 
Q 3647 1150 3233 529 
Q 2819 -91 2034 -91 
Q 1250 -91 836 529 
Q 422 1150 422 2328 
Q 422 3509 836 4129 
Q 1250 4750 2034 4750 
z
" transform="scale(0.015625)"/>
       </defs>
       <use xlink:href="#DejaVuSans-30"/>
      </g>
     </g>
    </g>
    <g id="xtick_2">
     <g id="line2d_2">
      <g>
       <use xlink:href="#m18a0cffa66" x="87.680936" y="188.638125" style="stroke: #000000; stroke-width: 0.8"/>
      </g>
     </g>
     <g id="text_2">
      <!-- 200 -->
      <g transform="translate(78.137186 203.236563) scale(0.1 -0.1)">
       <defs>
        <path id="DejaVuSans-32" d="M 1228 531 
L 3431 531 
L 3431 0 
L 469 0 
L 469 531 
Q 828 903 1448 1529 
Q 2069 2156 2228 2338 
Q 2531 2678 2651 2914 
Q 2772 3150 2772 3378 
Q 2772 3750 2511 3984 
Q 2250 4219 1831 4219 
Q 1534 4219 1204 4116 
Q 875 4013 500 3803 
L 500 4441 
Q 881 4594 1212 4672 
Q 1544 4750 1819 4750 
Q 2544 4750 2975 4387 
Q 3406 4025 3406 3419 
Q 3406 3131 3298 2873 
Q 3191 2616 2906 2266 
Q 2828 2175 2409 1742 
Q 1991 1309 1228 531 
z
" transform="scale(0.015625)"/>
       </defs>
       <use xlink:href="#DejaVuSans-32"/>
       <use xlink:href="#DejaVuSans-30" x="63.623047"/>
       <use xlink:href="#DejaVuSans-30" x="127.246094"/>
      </g>
     </g>
    </g>
    <g id="xtick_3">
     <g id="line2d_3">
      <g>
       <use xlink:href="#m18a0cffa66" x="121.054142" y="188.638125" style="stroke: #000000; stroke-width: 0.8"/>
      </g>
     </g>
     <g id="text_3">
      <!-- 400 -->
      <g transform="translate(111.510392 203.236563) scale(0.1 -0.1)">
       <defs>
        <path id="DejaVuSans-34" d="M 2419 4116 
L 825 1625 
L 2419 1625 
L 2419 4116 
z
M 2253 4666 
L 3047 4666 
L 3047 1625 
L 3713 1625 
L 3713 1100 
L 3047 1100 
L 3047 0 
L 2419 0 
L 2419 1100 
L 313 1100 
L 313 1709 
L 2253 4666 
z
" transform="scale(0.015625)"/>
       </defs>
       <use xlink:href="#DejaVuSans-34"/>
       <use xlink:href="#DejaVuSans-30" x="63.623047"/>
       <use xlink:href="#DejaVuSans-30" x="127.246094"/>
      </g>
     </g>
    </g>
    <g id="xtick_4">
     <g id="line2d_4">
      <g>
       <use xlink:href="#m18a0cffa66" x="154.427347" y="188.638125" style="stroke: #000000; stroke-width: 0.8"/>
      </g>
     </g>
     <g id="text_4">
      <!-- 600 -->
      <g transform="translate(144.883597 203.236563) scale(0.1 -0.1)">
       <defs>
        <path id="DejaVuSans-36" d="M 2113 2584 
Q 1688 2584 1439 2293 
Q 1191 2003 1191 1497 
Q 1191 994 1439 701 
Q 1688 409 2113 409 
Q 2538 409 2786 701 
Q 3034 994 3034 1497 
Q 3034 2003 2786 2293 
Q 2538 2584 2113 2584 
z
M 3366 4563 
L 3366 3988 
Q 3128 4100 2886 4159 
Q 2644 4219 2406 4219 
Q 1781 4219 1451 3797 
Q 1122 3375 1075 2522 
Q 1259 2794 1537 2939 
Q 1816 3084 2150 3084 
Q 2853 3084 3261 2657 
Q 3669 2231 3669 1497 
Q 3669 778 3244 343 
Q 2819 -91 2113 -91 
Q 1303 -91 875 529 
Q 447 1150 447 2328 
Q 447 3434 972 4092 
Q 1497 4750 2381 4750 
Q 2619 4750 2861 4703 
Q 3103 4656 3366 4563 
z
" transform="scale(0.015625)"/>
       </defs>
       <use xlink:href="#DejaVuSans-36"/>
       <use xlink:href="#DejaVuSans-30" x="63.623047"/>
       <use xlink:href="#DejaVuSans-30" x="127.246094"/>
      </g>
     </g>
    </g>
    <g id="xtick_5">
     <g id="line2d_5">
      <g>
       <use xlink:href="#m18a0cffa66" x="187.800553" y="188.638125" style="stroke: #000000; stroke-width: 0.8"/>
      </g>
     </g>
     <g id="text_5">
      <!-- 800 -->
      <g transform="translate(178.256803 203.236563) scale(0.1 -0.1)">
       <defs>
        <path id="DejaVuSans-38" d="M 2034 2216 
Q 1584 2216 1326 1975 
Q 1069 1734 1069 1313 
Q 1069 891 1326 650 
Q 1584 409 2034 409 
Q 2484 409 2743 651 
Q 3003 894 3003 1313 
Q 3003 1734 2745 1975 
Q 2488 2216 2034 2216 
z
M 1403 2484 
Q 997 2584 770 2862 
Q 544 3141 544 3541 
Q 544 4100 942 4425 
Q 1341 4750 2034 4750 
Q 2731 4750 3128 4425 
Q 3525 4100 3525 3541 
Q 3525 3141 3298 2862 
Q 3072 2584 2669 2484 
Q 3125 2378 3379 2068 
Q 3634 1759 3634 1313 
Q 3634 634 3220 271 
Q 2806 -91 2034 -91 
Q 1263 -91 848 271 
Q 434 634 434 1313 
Q 434 1759 690 2068 
Q 947 2378 1403 2484 
z
M 1172 3481 
Q 1172 3119 1398 2916 
Q 1625 2713 2034 2713 
Q 2441 2713 2670 2916 
Q 2900 3119 2900 3481 
Q 2900 3844 2670 4047 
Q 2441 4250 2034 4250 
Q 1625 4250 1398 4047 
Q 1172 3844 1172 3481 
z
" transform="scale(0.015625)"/>
       </defs>
       <use xlink:href="#DejaVuSans-38"/>
       <use xlink:href="#DejaVuSans-30" x="63.623047"/>
       <use xlink:href="#DejaVuSans-30" x="127.246094"/>
      </g>
     </g>
    </g>
    <g id="xtick_6">
     <g id="line2d_6">
      <g>
       <use xlink:href="#m18a0cffa66" x="221.173759" y="188.638125" style="stroke: #000000; stroke-width: 0.8"/>
      </g>
     </g>
     <g id="text_6">
      <!-- 1000 -->
      <g transform="translate(208.448759 203.236563) scale(0.1 -0.1)">
       <defs>
        <path id="DejaVuSans-31" d="M 794 531 
L 1825 531 
L 1825 4091 
L 703 3866 
L 703 4441 
L 1819 4666 
L 2450 4666 
L 2450 531 
L 3481 531 
L 3481 0 
L 794 0 
L 794 531 
z
" transform="scale(0.015625)"/>
       </defs>
       <use xlink:href="#DejaVuSans-31"/>
       <use xlink:href="#DejaVuSans-30" x="63.623047"/>
       <use xlink:href="#DejaVuSans-30" x="127.246094"/>
       <use xlink:href="#DejaVuSans-30" x="190.869141"/>
      </g>
     </g>
    </g>
    <g id="xtick_7">
     <g id="line2d_7">
      <g>
       <use xlink:href="#m18a0cffa66" x="254.546965" y="188.638125" style="stroke: #000000; stroke-width: 0.8"/>
      </g>
     </g>
     <g id="text_7">
      <!-- 1200 -->
      <g transform="translate(241.821965 203.236563) scale(0.1 -0.1)">
       <use xlink:href="#DejaVuSans-31"/>
       <use xlink:href="#DejaVuSans-32" x="63.623047"/>
       <use xlink:href="#DejaVuSans-30" x="127.246094"/>
       <use xlink:href="#DejaVuSans-30" x="190.869141"/>
      </g>
     </g>
    </g>
    <g id="xtick_8">
     <g id="line2d_8">
      <g>
       <use xlink:href="#m18a0cffa66" x="287.92017" y="188.638125" style="stroke: #000000; stroke-width: 0.8"/>
      </g>
     </g>
     <g id="text_8">
      <!-- 1400 -->
      <g transform="translate(275.19517 203.236563) scale(0.1 -0.1)">
       <use xlink:href="#DejaVuSans-31"/>
       <use xlink:href="#DejaVuSans-34" x="63.623047"/>
       <use xlink:href="#DejaVuSans-30" x="127.246094"/>
       <use xlink:href="#DejaVuSans-30" x="190.869141"/>
      </g>
     </g>
    </g>
    <g id="xtick_9">
     <g id="line2d_9">
      <g>
       <use xlink:href="#m18a0cffa66" x="321.293376" y="188.638125" style="stroke: #000000; stroke-width: 0.8"/>
      </g>
     </g>
     <g id="text_9">
      <!-- 1600 -->
      <g transform="translate(308.568376 203.236563) scale(0.1 -0.1)">
       <use xlink:href="#DejaVuSans-31"/>
       <use xlink:href="#DejaVuSans-36" x="63.623047"/>
       <use xlink:href="#DejaVuSans-30" x="127.246094"/>
       <use xlink:href="#DejaVuSans-30" x="190.869141"/>
      </g>
     </g>
    </g>
    <g id="text_10">
     <!-- Episode -->
     <g transform="translate(166.828125 216.914688) scale(0.1 -0.1)">
      <defs>
       <path id="DejaVuSans-45" d="M 628 4666 
L 3578 4666 
L 3578 4134 
L 1259 4134 
L 1259 2753 
L 3481 2753 
L 3481 2222 
L 1259 2222 
L 1259 531 
L 3634 531 
L 3634 0 
L 628 0 
L 628 4666 
z
" transform="scale(0.015625)"/>
       <path id="DejaVuSans-70" d="M 1159 525 
L 1159 -1331 
L 581 -1331 
L 581 3500 
L 1159 3500 
L 1159 2969 
Q 1341 3281 1617 3432 
Q 1894 3584 2278 3584 
Q 2916 3584 3314 3078 
Q 3713 2572 3713 1747 
Q 3713 922 3314 415 
Q 2916 -91 2278 -91 
Q 1894 -91 1617 61 
Q 1341 213 1159 525 
z
M 3116 1747 
Q 3116 2381 2855 2742 
Q 2594 3103 2138 3103 
Q 1681 3103 1420 2742 
Q 1159 2381 1159 1747 
Q 1159 1113 1420 752 
Q 1681 391 2138 391 
Q 2594 391 2855 752 
Q 3116 1113 3116 1747 
z
" transform="scale(0.015625)"/>
       <path id="DejaVuSans-69" d="M 603 3500 
L 1178 3500 
L 1178 0 
L 603 0 
L 603 3500 
z
M 603 4863 
L 1178 4863 
L 1178 4134 
L 603 4134 
L 603 4863 
z
" transform="scale(0.015625)"/>
       <path id="DejaVuSans-73" d="M 2834 3397 
L 2834 2853 
Q 2591 2978 2328 3040 
Q 2066 3103 1784 3103 
Q 1356 3103 1142 2972 
Q 928 2841 928 2578 
Q 928 2378 1081 2264 
Q 1234 2150 1697 2047 
L 1894 2003 
Q 2506 1872 2764 1633 
Q 3022 1394 3022 966 
Q 3022 478 2636 193 
Q 2250 -91 1575 -91 
Q 1294 -91 989 -36 
Q 684 19 347 128 
L 347 722 
Q 666 556 975 473 
Q 1284 391 1588 391 
Q 1994 391 2212 530 
Q 2431 669 2431 922 
Q 2431 1156 2273 1281 
Q 2116 1406 1581 1522 
L 1381 1569 
Q 847 1681 609 1914 
Q 372 2147 372 2553 
Q 372 3047 722 3315 
Q 1072 3584 1716 3584 
Q 2034 3584 2315 3537 
Q 2597 3491 2834 3397 
z
" transform="scale(0.015625)"/>
       <path id="DejaVuSans-6f" d="M 1959 3097 
Q 1497 3097 1228 2736 
Q 959 2375 959 1747 
Q 959 1119 1226 758 
Q 1494 397 1959 397 
Q 2419 397 2687 759 
Q 2956 1122 2956 1747 
Q 2956 2369 2687 2733 
Q 2419 3097 1959 3097 
z
M 1959 3584 
Q 2709 3584 3137 3096 
Q 3566 2609 3566 1747 
Q 3566 888 3137 398 
Q 2709 -91 1959 -91 
Q 1206 -91 779 398 
Q 353 888 353 1747 
Q 353 2609 779 3096 
Q 1206 3584 1959 3584 
z
" transform="scale(0.015625)"/>
       <path id="DejaVuSans-64" d="M 2906 2969 
L 2906 4863 
L 3481 4863 
L 3481 0 
L 2906 0 
L 2906 525 
Q 2725 213 2448 61 
Q 2172 -91 1784 -91 
Q 1150 -91 751 415 
Q 353 922 353 1747 
Q 353 2572 751 3078 
Q 1150 3584 1784 3584 
Q 2172 3584 2448 3432 
Q 2725 3281 2906 2969 
z
M 947 1747 
Q 947 1113 1208 752 
Q 1469 391 1925 391 
Q 2381 391 2643 752 
Q 2906 1113 2906 1747 
Q 2906 2381 2643 2742 
Q 2381 3103 1925 3103 
Q 1469 3103 1208 2742 
Q 947 2381 947 1747 
z
" transform="scale(0.015625)"/>
       <path id="DejaVuSans-65" d="M 3597 1894 
L 3597 1613 
L 953 1613 
Q 991 1019 1311 708 
Q 1631 397 2203 397 
Q 2534 397 2845 478 
Q 3156 559 3463 722 
L 3463 178 
Q 3153 47 2828 -22 
Q 2503 -91 2169 -91 
Q 1331 -91 842 396 
Q 353 884 353 1716 
Q 353 2575 817 3079 
Q 1281 3584 2069 3584 
Q 2775 3584 3186 3129 
Q 3597 2675 3597 1894 
z
M 3022 2063 
Q 3016 2534 2758 2815 
Q 2500 3097 2075 3097 
Q 1594 3097 1305 2825 
Q 1016 2553 972 2059 
L 3022 2063 
z
" transform="scale(0.015625)"/>
      </defs>
      <use xlink:href="#DejaVuSans-45"/>
      <use xlink:href="#DejaVuSans-70" x="63.183594"/>
      <use xlink:href="#DejaVuSans-69" x="126.660156"/>
      <use xlink:href="#DejaVuSans-73" x="154.443359"/>
      <use xlink:href="#DejaVuSans-6f" x="206.542969"/>
      <use xlink:href="#DejaVuSans-64" x="267.724609"/>
      <use xlink:href="#DejaVuSans-65" x="331.201172"/>
     </g>
    </g>
   </g>
   <g id="matplotlib.axis_2">
    <g id="ytick_1">
     <g id="line2d_10">
      <defs>
       <path id="mf8f0521c76" d="M 0 0 
L -3.5 0 
" style="stroke: #000000; stroke-width: 0.8"/>
      </defs>
      <g>
       <use xlink:href="#mf8f0521c76" x="46.965625" y="169.694392" style="stroke: #000000; stroke-width: 0.8"/>
      </g>
     </g>
     <g id="text_11">
      <!-- 340 -->
      <g transform="translate(20.878125 173.49361) scale(0.1 -0.1)">
       <defs>
        <path id="DejaVuSans-33" d="M 2597 2516 
Q 3050 2419 3304 2112 
Q 3559 1806 3559 1356 
Q 3559 666 3084 287 
Q 2609 -91 1734 -91 
Q 1441 -91 1130 -33 
Q 819 25 488 141 
L 488 750 
Q 750 597 1062 519 
Q 1375 441 1716 441 
Q 2309 441 2620 675 
Q 2931 909 2931 1356 
Q 2931 1769 2642 2001 
Q 2353 2234 1838 2234 
L 1294 2234 
L 1294 2753 
L 1863 2753 
Q 2328 2753 2575 2939 
Q 2822 3125 2822 3475 
Q 2822 3834 2567 4026 
Q 2313 4219 1838 4219 
Q 1578 4219 1281 4162 
Q 984 4106 628 3988 
L 628 4550 
Q 988 4650 1302 4700 
Q 1616 4750 1894 4750 
Q 2613 4750 3031 4423 
Q 3450 4097 3450 3541 
Q 3450 3153 3228 2886 
Q 3006 2619 2597 2516 
z
" transform="scale(0.015625)"/>
       </defs>
       <use xlink:href="#DejaVuSans-33"/>
       <use xlink:href="#DejaVuSans-34" x="63.623047"/>
       <use xlink:href="#DejaVuSans-30" x="127.246094"/>
      </g>
     </g>
    </g>
    <g id="ytick_2">
     <g id="line2d_11">
      <g>
       <use xlink:href="#mf8f0521c76" x="46.965625" y="142.127217" style="stroke: #000000; stroke-width: 0.8"/>
      </g>
     </g>
     <g id="text_12">
      <!-- 360 -->
      <g transform="translate(20.878125 145.926436) scale(0.1 -0.1)">
       <use xlink:href="#DejaVuSans-33"/>
       <use xlink:href="#DejaVuSans-36" x="63.623047"/>
       <use xlink:href="#DejaVuSans-30" x="127.246094"/>
      </g>
     </g>
    </g>
    <g id="ytick_3">
     <g id="line2d_12">
      <g>
       <use xlink:href="#mf8f0521c76" x="46.965625" y="114.560042" style="stroke: #000000; stroke-width: 0.8"/>
      </g>
     </g>
     <g id="text_13">
      <!-- 380 -->
      <g transform="translate(20.878125 118.359261) scale(0.1 -0.1)">
       <use xlink:href="#DejaVuSans-33"/>
       <use xlink:href="#DejaVuSans-38" x="63.623047"/>
       <use xlink:href="#DejaVuSans-30" x="127.246094"/>
      </g>
     </g>
    </g>
    <g id="ytick_4">
     <g id="line2d_13">
      <g>
       <use xlink:href="#mf8f0521c76" x="46.965625" y="86.992867" style="stroke: #000000; stroke-width: 0.8"/>
      </g>
     </g>
     <g id="text_14">
      <!-- 400 -->
      <g transform="translate(20.878125 90.792086) scale(0.1 -0.1)">
       <use xlink:href="#DejaVuSans-34"/>
       <use xlink:href="#DejaVuSans-30" x="63.623047"/>
       <use xlink:href="#DejaVuSans-30" x="127.246094"/>
      </g>
     </g>
    </g>
    <g id="ytick_5">
     <g id="line2d_14">
      <g>
       <use xlink:href="#mf8f0521c76" x="46.965625" y="59.425692" style="stroke: #000000; stroke-width: 0.8"/>
      </g>
     </g>
     <g id="text_15">
      <!-- 420 -->
      <g transform="translate(20.878125 63.224911) scale(0.1 -0.1)">
       <use xlink:href="#DejaVuSans-34"/>
       <use xlink:href="#DejaVuSans-32" x="63.623047"/>
       <use xlink:href="#DejaVuSans-30" x="127.246094"/>
      </g>
     </g>
    </g>
    <g id="ytick_6">
     <g id="line2d_15">
      <g>
       <use xlink:href="#mf8f0521c76" x="46.965625" y="31.858518" style="stroke: #000000; stroke-width: 0.8"/>
      </g>
     </g>
     <g id="text_16">
      <!-- 440 -->
      <g transform="translate(20.878125 35.657736) scale(0.1 -0.1)">
       <use xlink:href="#DejaVuSans-34"/>
       <use xlink:href="#DejaVuSans-34" x="63.623047"/>
       <use xlink:href="#DejaVuSans-30" x="127.246094"/>
      </g>
     </g>
    </g>
    <g id="text_17">
     <!-- Performance -->
     <g transform="translate(14.798437 137.160156) rotate(-90) scale(0.1 -0.1)">
      <defs>
       <path id="DejaVuSans-50" d="M 1259 4147 
L 1259 2394 
L 2053 2394 
Q 2494 2394 2734 2622 
Q 2975 2850 2975 3272 
Q 2975 3691 2734 3919 
Q 2494 4147 2053 4147 
L 1259 4147 
z
M 628 4666 
L 2053 4666 
Q 2838 4666 3239 4311 
Q 3641 3956 3641 3272 
Q 3641 2581 3239 2228 
Q 2838 1875 2053 1875 
L 1259 1875 
L 1259 0 
L 628 0 
L 628 4666 
z
" transform="scale(0.015625)"/>
       <path id="DejaVuSans-72" d="M 2631 2963 
Q 2534 3019 2420 3045 
Q 2306 3072 2169 3072 
Q 1681 3072 1420 2755 
Q 1159 2438 1159 1844 
L 1159 0 
L 581 0 
L 581 3500 
L 1159 3500 
L 1159 2956 
Q 1341 3275 1631 3429 
Q 1922 3584 2338 3584 
Q 2397 3584 2469 3576 
Q 2541 3569 2628 3553 
L 2631 2963 
z
" transform="scale(0.015625)"/>
       <path id="DejaVuSans-66" d="M 2375 4863 
L 2375 4384 
L 1825 4384 
Q 1516 4384 1395 4259 
Q 1275 4134 1275 3809 
L 1275 3500 
L 2222 3500 
L 2222 3053 
L 1275 3053 
L 1275 0 
L 697 0 
L 697 3053 
L 147 3053 
L 147 3500 
L 697 3500 
L 697 3744 
Q 697 4328 969 4595 
Q 1241 4863 1831 4863 
L 2375 4863 
z
" transform="scale(0.015625)"/>
       <path id="DejaVuSans-6d" d="M 3328 2828 
Q 3544 3216 3844 3400 
Q 4144 3584 4550 3584 
Q 5097 3584 5394 3201 
Q 5691 2819 5691 2113 
L 5691 0 
L 5113 0 
L 5113 2094 
Q 5113 2597 4934 2840 
Q 4756 3084 4391 3084 
Q 3944 3084 3684 2787 
Q 3425 2491 3425 1978 
L 3425 0 
L 2847 0 
L 2847 2094 
Q 2847 2600 2669 2842 
Q 2491 3084 2119 3084 
Q 1678 3084 1418 2786 
Q 1159 2488 1159 1978 
L 1159 0 
L 581 0 
L 581 3500 
L 1159 3500 
L 1159 2956 
Q 1356 3278 1631 3431 
Q 1906 3584 2284 3584 
Q 2666 3584 2933 3390 
Q 3200 3197 3328 2828 
z
" transform="scale(0.015625)"/>
       <path id="DejaVuSans-61" d="M 2194 1759 
Q 1497 1759 1228 1600 
Q 959 1441 959 1056 
Q 959 750 1161 570 
Q 1363 391 1709 391 
Q 2188 391 2477 730 
Q 2766 1069 2766 1631 
L 2766 1759 
L 2194 1759 
z
M 3341 1997 
L 3341 0 
L 2766 0 
L 2766 531 
Q 2569 213 2275 61 
Q 1981 -91 1556 -91 
Q 1019 -91 701 211 
Q 384 513 384 1019 
Q 384 1609 779 1909 
Q 1175 2209 1959 2209 
L 2766 2209 
L 2766 2266 
Q 2766 2663 2505 2880 
Q 2244 3097 1772 3097 
Q 1472 3097 1187 3025 
Q 903 2953 641 2809 
L 641 3341 
Q 956 3463 1253 3523 
Q 1550 3584 1831 3584 
Q 2591 3584 2966 3190 
Q 3341 2797 3341 1997 
z
" transform="scale(0.015625)"/>
       <path id="DejaVuSans-6e" d="M 3513 2113 
L 3513 0 
L 2938 0 
L 2938 2094 
Q 2938 2591 2744 2837 
Q 2550 3084 2163 3084 
Q 1697 3084 1428 2787 
Q 1159 2491 1159 1978 
L 1159 0 
L 581 0 
L 581 3500 
L 1159 3500 
L 1159 2956 
Q 1366 3272 1645 3428 
Q 1925 3584 2291 3584 
Q 2894 3584 3203 3211 
Q 3513 2838 3513 2113 
z
" transform="scale(0.015625)"/>
       <path id="DejaVuSans-63" d="M 3122 3366 
L 3122 2828 
Q 2878 2963 2633 3030 
Q 2388 3097 2138 3097 
Q 1578 3097 1268 2742 
Q 959 2388 959 1747 
Q 959 1106 1268 751 
Q 1578 397 2138 397 
Q 2388 397 2633 464 
Q 2878 531 3122 666 
L 3122 134 
Q 2881 22 2623 -34 
Q 2366 -91 2075 -91 
Q 1284 -91 818 406 
Q 353 903 353 1747 
Q 353 2603 823 3093 
Q 1294 3584 2113 3584 
Q 2378 3584 2631 3529 
Q 2884 3475 3122 3366 
z
" transform="scale(0.015625)"/>
      </defs>
      <use xlink:href="#DejaVuSans-50"/>
      <use xlink:href="#DejaVuSans-65" x="56.677734"/>
      <use xlink:href="#DejaVuSans-72" x="118.201172"/>
      <use xlink:href="#DejaVuSans-66" x="159.314453"/>
      <use xlink:href="#DejaVuSans-6f" x="194.519531"/>
      <use xlink:href="#DejaVuSans-72" x="255.701172"/>
      <use xlink:href="#DejaVuSans-6d" x="295.064453"/>
      <use xlink:href="#DejaVuSans-61" x="392.476562"/>
      <use xlink:href="#DejaVuSans-6e" x="453.755859"/>
      <use xlink:href="#DejaVuSans-63" x="517.134766"/>
      <use xlink:href="#DejaVuSans-65" x="572.115234"/>
     </g>
    </g>
   </g>
   <g id="line2d_16">
    <path d="M 59.647443 157.169705 
L 62.3173 142.307552 
L 64.987156 134.240133 
L 67.657013 127.823873 
L 70.326869 123.35914 
L 72.996725 118.872008 
L 75.666582 113.63769 
L 78.336438 109.806427 
L 81.006295 106.691911 
L 83.676151 101.515599 
L 86.346008 97.599912 
L 89.015864 94.747858 
L 91.685721 92.238671 
L 94.355577 89.896035 
L 97.025434 88.053629 
L 99.69529 87.5109 
L 102.365147 86.117035 
L 105.035003 83.920276 
L 107.704859 83.192617 
L 110.374716 81.92625 
L 113.044572 80.131512 
L 115.714429 79.731788 
L 118.384285 78.997812 
L 121.054142 78.255796 
L 123.723998 77.813572 
L 126.393855 78.484374 
L 129.063711 79.252809 
L 131.733568 79.384901 
L 134.403424 79.960366 
L 137.073281 80.499649 
L 139.743137 79.467028 
L 142.412993 77.741783 
L 145.08285 77.426483 
L 147.752706 80.229146 
L 150.422563 80.822415 
L 153.092419 80.509412 
L 155.762276 80.410056 
L 158.432132 80.226849 
L 161.101989 77.985293 
L 163.771845 76.802202 
L 166.441702 77.640703 
L 169.111558 81.16241 
L 171.781414 83.727306 
L 174.451271 83.507917 
L 177.121127 83.817473 
L 179.790984 82.945087 
L 182.46084 79.428549 
L 185.130697 76.66494 
L 187.800553 75.16138 
L 190.47041 74.59453 
L 193.140266 74.306798 
L 195.810123 74.184469 
L 198.479979 74.171259 
L 201.149836 74.581895 
L 203.819692 77.429355 
L 206.489548 78.194918 
L 209.159405 78.627953 
L 211.829261 79.463008 
L 214.499118 79.188485 
L 217.168974 77.515502 
L 219.838831 77.258783 
L 222.508687 77.016996 
L 225.178544 76.081435 
L 227.8484 75.978632 
L 230.518257 75.58178 
L 233.188113 74.869628 
L 235.857969 74.331494 
L 238.527826 74.22984 
L 241.197682 74.21663 
L 243.867539 73.543532 
L 246.537395 74.069605 
L 249.207252 74.388351 
L 251.877108 74.507234 
L 254.546965 74.475073 
L 257.216821 74.220076 
L 259.886678 74.382608 
L 262.556534 74.15001 
L 265.226391 73.779001 
L 267.896247 73.235698 
L 270.566103 73.321271 
L 273.23596 72.560303 
L 275.905816 72.723983 
L 278.575673 73.648057 
L 281.245529 74.043761 
L 283.915386 74.268319 
L 286.585242 75.659312 
L 289.255099 78.736498 
L 291.924955 78.447043 
L 294.594812 78.749133 
L 297.264668 78.331605 
L 299.934525 76.972199 
L 302.604381 73.975418 
L 305.274237 73.517113 
L 307.944094 73.189753 
L 310.61395 73.277049 
L 313.283807 74.671489 
" clip-path="url(#pb93de72623)" style="fill: none; stroke: #1f77b4; stroke-width: 2; stroke-linecap: square"/>
   </g>
   <g id="line2d_17">
    <path d="M 59.647443 164.896784 
L 62.3173 154.696011 
L 64.987156 148.860959 
L 67.657013 144.009136 
L 70.326869 139.087936 
L 72.996725 135.064966 
L 75.666582 132.554056 
L 78.336438 128.658814 
L 81.006295 126.480548 
L 83.676151 124.346389 
L 86.346008 122.138718 
L 89.015864 119.991694 
L 91.685721 118.791144 
L 94.355577 117.422893 
L 97.025434 116.409799 
L 99.69529 116.329395 
L 102.365147 115.848348 
L 105.035003 116.089101 
L 107.704859 116.084047 
L 110.374716 115.598865 
L 113.044572 115.486299 
L 115.714429 114.8472 
L 118.384285 114.149291 
L 121.054142 113.54557 
L 123.723998 113.156413 
L 126.393855 112.298615 
L 129.063711 112.441964 
L 131.733568 111.511572 
L 134.403424 111.428411 
L 137.073281 111.643894 
L 139.743137 111.517085 
L 142.412993 111.222117 
L 145.08285 111.430708 
L 147.752706 111.389817 
L 150.422563 111.060389 
L 153.092419 111.104956 
L 155.762276 112.611043 
L 158.432132 112.847661 
L 161.101989 112.854093 
L 163.771845 113.137116 
L 166.441702 113.412329 
L 169.111558 111.831351 
L 171.781414 111.66457 
L 174.451271 111.839162 
L 177.121127 111.893377 
L 179.790984 112.124023 
L 182.46084 112.68042 
L 185.130697 112.763581 
L 187.800553 112.921633 
L 190.47041 113.292411 
L 193.140266 113.014902 
L 195.810123 112.842148 
L 198.479979 113.129765 
L 201.149836 112.778743 
L 203.819692 111.892918 
L 206.489548 111.650327 
L 209.159405 110.766799 
L 211.829261 110.024782 
L 214.499118 109.64849 
L 217.168974 109.495493 
L 219.838831 108.964365 
L 222.508687 109.389818 
L 225.178544 109.228091 
L 227.8484 109.131606 
L 230.518257 108.964365 
L 233.188113 109.020878 
L 235.857969 108.693747 
L 238.527826 110.666638 
L 241.197682 111.129307 
L 243.867539 111.069119 
L 246.537395 110.923932 
L 249.207252 110.634017 
L 251.877108 108.31378 
L 254.546965 107.422441 
L 257.216821 107.072797 
L 259.886678 108.781503 
L 262.556534 109.064985 
L 265.226391 108.935419 
L 267.896247 109.491817 
L 270.566103 109.58141 
L 273.23596 108.175944 
L 275.905816 107.627357 
L 278.575673 107.557061 
L 281.245529 107.205579 
L 283.915386 107.295173 
L 286.585242 107.063149 
L 289.255099 108.18789 
L 291.924955 108.461723 
L 294.594812 108.256348 
L 297.264668 107.812057 
L 299.934525 107.15412 
L 302.604381 105.643439 
L 305.274237 105.732114 
L 307.944094 105.366389 
L 310.61395 109.736246 
L 313.283807 113.051658 
" clip-path="url(#pb93de72623)" style="fill: none; stroke: #ff7f0e; stroke-width: 2; stroke-linecap: square"/>
   </g>
   <g id="line2d_18">
    <path d="M 59.647443 104.746587 
L 62.3173 92.447033 
L 64.987156 85.644832 
L 67.657013 80.820577 
L 70.326869 77.730756 
L 72.996725 73.517573 
L 75.666582 71.286469 
L 78.336438 68.804505 
L 81.006295 67.768438 
L 83.676151 65.681603 
L 86.346008 64.208597 
L 89.015864 63.037452 
L 91.685721 60.986454 
L 94.355577 60.205843 
L 97.025434 59.558015 
L 99.69529 59.49507 
L 102.365147 59.76385 
L 105.035003 59.937982 
L 107.704859 60.53665 
L 110.374716 61.445907 
L 113.044572 61.676552 
L 115.714429 60.434192 
L 118.384285 61.068696 
L 121.054142 59.683905 
L 123.723998 59.073751 
L 126.393855 58.574786 
L 129.063711 58.248574 
L 131.733568 56.938674 
L 134.403424 57.246507 
L 137.073281 57.184481 
L 139.743137 56.276143 
L 142.412993 55.627395 
L 145.08285 55.723421 
L 147.752706 55.189077 
L 150.422563 53.938446 
L 153.092419 54.125903 
L 155.762276 54.283955 
L 158.432132 53.858042 
L 161.101989 54.437412 
L 163.771845 56.140604 
L 166.441702 56.351493 
L 169.111558 56.872513 
L 171.781414 58.599137 
L 174.451271 61.186316 
L 177.121127 60.943265 
L 179.790984 60.445218 
L 182.46084 59.937982 
L 185.130697 58.423166 
L 187.800553 54.063877 
L 190.47041 52.315199 
L 193.140266 52.270632 
L 195.810123 51.655425 
L 198.479979 50.146581 
L 201.149836 49.164271 
L 203.819692 48.507253 
L 206.489548 48.137853 
L 209.159405 47.182651 
L 211.829261 46.764548 
L 214.499118 46.669901 
L 217.168974 46.870682 
L 219.838831 46.511849 
L 222.508687 47.220785 
L 225.178544 47.584672 
L 227.8484 47.781777 
L 230.518257 47.210677 
L 233.188113 46.46958 
L 235.857969 46.383203 
L 238.527826 45.876885 
L 241.197682 46.135557 
L 243.867539 48.422714 
L 246.537395 50.681385 
L 249.207252 51.963258 
L 251.877108 53.012649 
L 254.546965 53.35586 
L 257.216821 51.376996 
L 259.886678 48.881248 
L 262.556534 46.844034 
L 265.226391 45.619132 
L 267.896247 44.649687 
L 270.566103 44.77282 
L 273.23596 44.671281 
L 275.905816 44.421339 
L 278.575673 44.894116 
L 281.245529 44.426393 
L 283.915386 45.702753 
L 286.585242 48.876194 
L 289.255099 50.778789 
L 291.924955 50.46682 
L 294.594812 50.260066 
L 297.264668 47.984855 
L 299.934525 44.248584 
L 302.604381 42.734228 
L 305.274237 42.395611 
L 307.944094 43.668755 
L 310.61395 43.267652 
L 313.283807 42.600527 
" clip-path="url(#pb93de72623)" style="fill: none; stroke: #2ca02c; stroke-width: 2; stroke-linecap: square"/>
   </g>
   <g id="patch_3">
    <path d="M 46.965625 188.638125 
L 46.965625 22.318125 
" style="fill: none; stroke: #000000; stroke-width: 0.8; stroke-linejoin: miter; stroke-linecap: square"/>
   </g>
   <g id="patch_4">
    <path d="M 325.965625 188.638125 
L 325.965625 22.318125 
" style="fill: none; stroke: #000000; stroke-width: 0.8; stroke-linejoin: miter; stroke-linecap: square"/>
   </g>
   <g id="patch_5">
    <path d="M 46.965625 188.638125 
L 325.965625 188.638125 
" style="fill: none; stroke: #000000; stroke-width: 0.8; stroke-linejoin: miter; stroke-linecap: square"/>
   </g>
   <g id="patch_6">
    <path d="M 46.965625 22.318125 
L 325.965625 22.318125 
" style="fill: none; stroke: #000000; stroke-width: 0.8; stroke-linejoin: miter; stroke-linecap: square"/>
   </g>
   <g id="text_18">
    <!-- F20 -->
    <g transform="translate(175.379687 16.318125) scale(0.12 -0.12)">
     <defs>
      <path id="DejaVuSans-46" d="M 628 4666 
L 3309 4666 
L 3309 4134 
L 1259 4134 
L 1259 2759 
L 3109 2759 
L 3109 2228 
L 1259 2228 
L 1259 0 
L 628 0 
L 628 4666 
z
" transform="scale(0.015625)"/>
     </defs>
     <use xlink:href="#DejaVuSans-46"/>
     <use xlink:href="#DejaVuSans-32" x="57.519531"/>
     <use xlink:href="#DejaVuSans-30" x="121.142578"/>
    </g>
   </g>
   <g id="legend_1">
    <g id="patch_7">
     <path d="M 243.082812 183.638125 
L 318.965625 183.638125 
Q 320.965625 183.638125 320.965625 181.638125 
L 320.965625 138.60375 
Q 320.965625 136.60375 318.965625 136.60375 
L 243.082812 136.60375 
Q 241.082812 136.60375 241.082812 138.60375 
L 241.082812 181.638125 
Q 241.082812 183.638125 243.082812 183.638125 
z
" style="fill: #ffffff; opacity: 0.8; stroke: #cccccc; stroke-linejoin: miter"/>
    </g>
    <g id="line2d_19">
     <path d="M 245.082812 144.702188 
L 255.082812 144.702188 
L 265.082812 144.702188 
" style="fill: none; stroke: #1f77b4; stroke-width: 2; stroke-linecap: square"/>
    </g>
    <g id="text_19">
     <!-- FE5000 -->
     <g transform="translate(273.082812 148.202188) scale(0.1 -0.1)">
      <defs>
       <path id="DejaVuSans-35" d="M 691 4666 
L 3169 4666 
L 3169 4134 
L 1269 4134 
L 1269 2991 
Q 1406 3038 1543 3061 
Q 1681 3084 1819 3084 
Q 2600 3084 3056 2656 
Q 3513 2228 3513 1497 
Q 3513 744 3044 326 
Q 2575 -91 1722 -91 
Q 1428 -91 1123 -41 
Q 819 9 494 109 
L 494 744 
Q 775 591 1075 516 
Q 1375 441 1709 441 
Q 2250 441 2565 725 
Q 2881 1009 2881 1497 
Q 2881 1984 2565 2268 
Q 2250 2553 1709 2553 
Q 1456 2553 1204 2497 
Q 953 2441 691 2322 
L 691 4666 
z
" transform="scale(0.015625)"/>
      </defs>
      <use xlink:href="#DejaVuSans-46"/>
      <use xlink:href="#DejaVuSans-45" x="57.519531"/>
      <use xlink:href="#DejaVuSans-35" x="120.703125"/>
      <use xlink:href="#DejaVuSans-30" x="184.326172"/>
      <use xlink:href="#DejaVuSans-30" x="247.949219"/>
      <use xlink:href="#DejaVuSans-30" x="311.572266"/>
     </g>
    </g>
    <g id="line2d_20">
     <path d="M 245.082812 159.380313 
L 255.082812 159.380313 
L 265.082812 159.380313 
" style="fill: none; stroke: #ff7f0e; stroke-width: 2; stroke-linecap: square"/>
    </g>
    <g id="text_20">
     <!-- FE3000 -->
     <g transform="translate(273.082812 162.880313) scale(0.1 -0.1)">
      <use xlink:href="#DejaVuSans-46"/>
      <use xlink:href="#DejaVuSans-45" x="57.519531"/>
      <use xlink:href="#DejaVuSans-33" x="120.703125"/>
      <use xlink:href="#DejaVuSans-30" x="184.326172"/>
      <use xlink:href="#DejaVuSans-30" x="247.949219"/>
      <use xlink:href="#DejaVuSans-30" x="311.572266"/>
     </g>
    </g>
    <g id="line2d_21">
     <path d="M 245.082812 174.058438 
L 255.082812 174.058438 
L 265.082812 174.058438 
" style="fill: none; stroke: #2ca02c; stroke-width: 2; stroke-linecap: square"/>
    </g>
    <g id="text_21">
     <!-- FE10000 -->
     <g transform="translate(273.082812 177.558438) scale(0.1 -0.1)">
      <use xlink:href="#DejaVuSans-46"/>
      <use xlink:href="#DejaVuSans-45" x="57.519531"/>
      <use xlink:href="#DejaVuSans-31" x="120.703125"/>
      <use xlink:href="#DejaVuSans-30" x="184.326172"/>
      <use xlink:href="#DejaVuSans-30" x="247.949219"/>
      <use xlink:href="#DejaVuSans-30" x="311.572266"/>
      <use xlink:href="#DejaVuSans-30" x="375.195312"/>
     </g>
    </g>
   </g>
  </g>
 </g>
 <defs>
  <clipPath id="pb93de72623">
   <rect x="46.965625" y="22.318125" width="279" height="166.32"/>
  </clipPath>
 </defs>
</svg>
