<?xml version="1.0" encoding="utf-8" standalone="no"?>
<!DOCTYPE svg PUBLIC "-//W3C//DTD SVG 1.1//EN"
  "http://www.w3.org/Graphics/SVG/1.1/DTD/svg11.dtd">
<svg xmlns:xlink="http://www.w3.org/1999/xlink" width="353.943376pt" height="226.194375pt" viewBox="0 0 353.943376 226.194375" xmlns="http://www.w3.org/2000/svg" version="1.1">
 <metadata>
  <rdf:RDF xmlns:dc="http://purl.org/dc/elements/1.1/" xmlns:cc="http://creativecommons.org/ns#" xmlns:rdf="http://www.w3.org/1999/02/22-rdf-syntax-ns#">
   <cc:Work>
    <dc:type rdf:resource="http://purl.org/dc/dcmitype/StillImage"/>
    <dc:date>2024-07-12T13:36:58.985619</dc:date>
    <dc:format>image/svg+xml</dc:format>
    <dc:creator>
     <cc:Agent>
      <dc:title>Matplotlib v3.7.4, https://matplotlib.org/</dc:title>
     </cc:Agent>
    </dc:creator>
   </cc:Work>
  </rdf:RDF>
 </metadata>
 <defs>
  <style type="text/css">*{stroke-linejoin: round; stroke-linecap: butt}</style>
 </defs>
 <g id="figure_1">
  <g id="patch_1">
   <path d="M 0 226.194375 
L 353.943376 226.194375 
L 353.943376 0 
L 0 0 
z
" style="fill: #ffffff"/>
  </g>
  <g id="axes_1">
   <g id="patch_2">
    <path d="M 59.690625 188.638125 
L 338.690625 188.638125 
L 338.690625 22.318125 
L 59.690625 22.318125 
z
" style="fill: #ffffff"/>
   </g>
   <g id="PolyCollection_1">
    <path d="M 72.372443 109.342841 
L 72.372443 134.47652 
L 75.0423 121.198054 
L 77.712156 111.809357 
L 80.382013 106.680247 
L 83.051869 102.983607 
L 85.721725 98.549451 
L 88.391582 92.698314 
L 91.061438 89.381573 
L 93.731295 86.238561 
L 96.401151 83.733517 
L 99.071008 82.318769 
L 101.740864 81.731917 
L 104.410721 80.251033 
L 107.080577 79.607604 
L 109.750434 78.575819 
L 112.42029 78.267273 
L 115.090147 78.786127 
L 117.760003 80.194374 
L 120.429859 80.282604 
L 123.099716 80.314555 
L 125.769572 79.977181 
L 128.439429 79.049772 
L 131.109285 77.98451 
L 133.779142 78.747064 
L 136.448998 80.05471 
L 139.118855 82.002041 
L 141.788711 82.517161 
L 144.458568 83.409872 
L 147.128424 83.574838 
L 149.798281 82.868339 
L 152.468137 81.716321 
L 155.137993 82.041602 
L 157.80785 81.255254 
L 160.477706 81.04437 
L 163.147563 81.138912 
L 165.817419 81.056757 
L 168.487276 80.979168 
L 171.157132 88.483583 
L 173.826989 92.04046 
L 176.496845 91.608049 
L 179.166702 90.895558 
L 181.836558 90.070467 
L 184.506414 85.468878 
L 187.176271 81.677189 
L 189.846127 81.113398 
L 192.515984 80.736394 
L 195.18584 80.715969 
L 197.855697 76.765429 
L 200.525553 75.667845 
L 203.19541 75.266053 
L 205.865266 74.957047 
L 208.535123 74.908325 
L 211.204979 84.79124 
L 213.874836 89.386266 
L 216.544692 90.374983 
L 219.214548 90.208836 
L 221.884405 90.046585 
L 224.554261 82.51261 
L 227.224118 77.737973 
L 229.893974 76.78627 
L 232.563831 77.176722 
L 235.233687 76.647931 
L 237.903544 74.22858 
L 240.5734 74.265871 
L 243.243257 74.257014 
L 245.913113 74.17421 
L 248.582969 74.472514 
L 251.252826 74.78928 
L 253.922682 74.889639 
L 256.592539 74.78181 
L 259.262395 74.756422 
L 261.932252 76.823666 
L 264.602108 77.30921 
L 267.271965 78.265385 
L 269.941821 78.971924 
L 272.611678 79.456445 
L 275.281534 78.064279 
L 277.951391 77.399295 
L 280.621247 77.450275 
L 283.291103 76.716221 
L 285.96096 75.980407 
L 288.630816 75.427703 
L 291.300673 75.140652 
L 293.970529 74.17909 
L 296.640386 73.934282 
L 299.310242 73.777699 
L 301.980099 72.988032 
L 304.649955 72.445802 
L 307.319812 71.567995 
L 309.989668 71.129159 
L 312.659525 72.055993 
L 315.329381 71.84312 
L 317.999237 72.824707 
L 320.669094 72.80232 
L 323.33895 73.000525 
L 326.008807 71.689312 
L 326.008807 49.43882 
L 326.008807 49.43882 
L 323.33895 49.390583 
L 320.669094 49.311454 
L 317.999237 49.266439 
L 315.329381 49.307026 
L 312.659525 49.384054 
L 309.989668 50.030998 
L 307.319812 50.235214 
L 304.649955 50.75504 
L 301.980099 51.042826 
L 299.310242 51.466788 
L 296.640386 51.088745 
L 293.970529 51.109974 
L 291.300673 50.961262 
L 288.630816 51.099053 
L 285.96096 51.277715 
L 283.291103 53.273431 
L 280.621247 53.638489 
L 277.951391 54.04919 
L 275.281534 54.254307 
L 272.611678 55.053916 
L 269.941821 53.072719 
L 267.271965 52.643325 
L 264.602108 52.060258 
L 261.932252 51.71255 
L 259.262395 50.486335 
L 256.592539 50.573442 
L 253.922682 50.624474 
L 251.252826 51.390203 
L 248.582969 51.369254 
L 245.913113 51.52537 
L 243.243257 52.102283 
L 240.5734 52.651329 
L 237.903544 53.187591 
L 235.233687 54.319683 
L 232.563831 56.261252 
L 229.893974 58.151371 
L 227.224118 60.453876 
L 224.554261 61.286981 
L 221.884405 60.656079 
L 219.214548 58.876699 
L 216.544692 56.59205 
L 213.874836 53.973598 
L 211.204979 52.319187 
L 208.535123 52.215436 
L 205.865266 52.472059 
L 203.19541 52.784199 
L 200.525553 53.301931 
L 197.855697 53.605752 
L 195.18584 53.969615 
L 192.515984 54.06252 
L 189.846127 54.205808 
L 187.176271 54.274613 
L 184.506414 54.62322 
L 181.836558 53.395465 
L 179.166702 53.612101 
L 176.496845 53.831588 
L 173.826989 53.868336 
L 171.157132 53.657721 
L 168.487276 55.946026 
L 165.817419 55.917175 
L 163.147563 56.069931 
L 160.477706 56.015249 
L 157.80785 56.15955 
L 155.137993 55.490742 
L 152.468137 56.36667 
L 149.798281 56.492265 
L 147.128424 60.498117 
L 144.458568 60.69262 
L 141.788711 61.987085 
L 139.118855 64.482114 
L 136.448998 67.281567 
L 133.779142 66.348035 
L 131.109285 69.040015 
L 128.439429 71.661087 
L 125.769572 71.278964 
L 123.099716 71.927153 
L 120.429859 72.380337 
L 117.760003 72.717579 
L 115.090147 71.81326 
L 112.42029 72.331337 
L 109.750434 71.533111 
L 107.080577 71.555048 
L 104.410721 71.622569 
L 101.740864 72.109352 
L 99.071008 72.60034 
L 96.401151 72.494756 
L 93.731295 71.81875 
L 91.061438 71.90881 
L 88.391582 71.865938 
L 85.721725 73.948043 
L 83.051869 78.767582 
L 80.382013 83.420924 
L 77.712156 88.753522 
L 75.0423 97.903249 
L 72.372443 109.342841 
z
" clip-path="url(#p0d8d2824c0)" style="fill: #1f77b4; fill-opacity: 0.2"/>
   </g>
   <g id="PolyCollection_2">
    <path d="M 72.372443 136.569626 
L 72.372443 181.078125 
L 75.0423 172.531428 
L 77.712156 168.397464 
L 80.382013 164.023384 
L 83.051869 159.946646 
L 85.721725 157.10425 
L 88.391582 155.797312 
L 91.061438 151.51042 
L 93.731295 152.540209 
L 96.401151 149.220032 
L 99.071008 149.638233 
L 101.740864 144.712347 
L 104.410721 143.378814 
L 107.080577 142.638633 
L 109.750434 142.112755 
L 112.42029 135.99023 
L 115.090147 133.187159 
L 117.760003 130.484424 
L 120.429859 126.413845 
L 123.099716 123.545361 
L 125.769572 122.212847 
L 128.439429 121.999266 
L 131.109285 120.264703 
L 133.779142 117.658199 
L 136.448998 117.072349 
L 139.118855 116.922053 
L 141.788711 115.884461 
L 144.458568 116.151892 
L 147.128424 115.692725 
L 149.798281 115.901007 
L 152.468137 116.744227 
L 155.137993 116.712431 
L 157.80785 118.153658 
L 160.477706 118.060333 
L 163.147563 117.701725 
L 165.817419 116.52326 
L 168.487276 117.537155 
L 171.157132 115.660763 
L 173.826989 116.163747 
L 176.496845 116.103445 
L 179.166702 116.138848 
L 181.836558 114.682836 
L 184.506414 114.625267 
L 187.176271 114.775427 
L 189.846127 114.173304 
L 192.515984 114.214921 
L 195.18584 114.309616 
L 197.855697 116.896073 
L 200.525553 117.141109 
L 203.19541 117.205659 
L 205.865266 117.280983 
L 208.535123 118.141667 
L 211.204979 117.422081 
L 213.874836 116.705136 
L 216.544692 117.21117 
L 219.214548 117.415339 
L 221.884405 117.285647 
L 224.554261 115.718023 
L 227.224118 115.848771 
L 229.893974 115.573393 
L 232.563831 115.880668 
L 235.233687 115.442618 
L 237.903544 115.339112 
L 240.5734 117.380667 
L 243.243257 117.629901 
L 245.913113 117.499096 
L 248.582969 117.870482 
L 251.252826 119.412385 
L 253.922682 117.45591 
L 256.592539 117.615694 
L 259.262395 117.95155 
L 261.932252 117.552495 
L 264.602108 116.414241 
L 267.271965 116.488594 
L 269.941821 116.641934 
L 272.611678 116.498817 
L 275.281534 116.657037 
L 277.951391 116.465593 
L 280.621247 117.008143 
L 283.291103 116.893377 
L 285.96096 116.781094 
L 288.630816 116.611605 
L 291.300673 116.515478 
L 293.970529 115.82805 
L 296.640386 116.435667 
L 299.310242 116.126016 
L 301.980099 115.773716 
L 304.649955 115.627599 
L 307.319812 114.931291 
L 309.989668 114.635477 
L 312.659525 114.339271 
L 315.329381 113.682476 
L 317.999237 113.175988 
L 320.669094 116.00894 
L 323.33895 116.065011 
L 326.008807 115.778006 
L 326.008807 74.086017 
L 326.008807 74.086017 
L 323.33895 73.735606 
L 320.669094 73.166756 
L 317.999237 72.137277 
L 315.329381 70.957813 
L 312.659525 71.038632 
L 309.989668 71.34482 
L 307.319812 71.06414 
L 304.649955 71.727197 
L 301.980099 71.919162 
L 299.310242 72.442105 
L 296.640386 72.309085 
L 293.970529 73.586163 
L 291.300673 73.006812 
L 288.630816 73.16766 
L 285.96096 72.643219 
L 283.291103 72.828603 
L 280.621247 71.878042 
L 277.951391 71.877988 
L 275.281534 73.356427 
L 272.611678 74.073562 
L 269.941821 73.963371 
L 267.271965 75.377759 
L 264.602108 75.915848 
L 261.932252 75.394455 
L 259.262395 75.33616 
L 256.592539 76.145677 
L 253.922682 75.203953 
L 251.252826 75.859673 
L 248.582969 75.402953 
L 245.913113 78.311005 
L 243.243257 78.006881 
L 240.5734 79.025677 
L 237.903544 78.28147 
L 235.233687 80.151974 
L 232.563831 77.777023 
L 229.893974 79.282115 
L 227.224118 77.963244 
L 224.554261 79.357905 
L 221.884405 79.404496 
L 219.214548 80.41416 
L 216.544692 80.684832 
L 213.874836 81.184768 
L 211.204979 82.002151 
L 208.535123 81.309399 
L 205.865266 80.733874 
L 203.19541 79.680907 
L 200.525553 81.685625 
L 197.855697 79.661216 
L 195.18584 78.742534 
L 192.515984 79.72628 
L 189.846127 80.357602 
L 187.176271 79.731063 
L 184.506414 82.594674 
L 181.836558 85.798442 
L 179.166702 85.591718 
L 176.496845 85.98439 
L 173.826989 86.909675 
L 171.157132 86.829656 
L 168.487276 84.588111 
L 165.817419 84.364 
L 163.147563 87.426282 
L 160.477706 86.61618 
L 157.80785 86.677355 
L 155.137993 87.259626 
L 152.468137 87.801609 
L 149.798281 86.623741 
L 147.128424 88.794876 
L 144.458568 89.792537 
L 141.788711 90.973801 
L 139.118855 94.411929 
L 136.448998 94.325022 
L 133.779142 95.228281 
L 131.109285 95.667811 
L 128.439429 98.079166 
L 125.769572 97.777131 
L 123.099716 99.03464 
L 120.429859 99.650905 
L 117.760003 100.133514 
L 115.090147 100.328908 
L 112.42029 100.439548 
L 109.750434 101.144714 
L 107.080577 102.078851 
L 104.410721 103.314171 
L 101.740864 105.165001 
L 99.071008 107.615628 
L 96.401151 108.38696 
L 93.731295 110.504117 
L 91.061438 113.113402 
L 88.391582 115.428344 
L 85.721725 117.362403 
L 83.051869 121.269864 
L 80.382013 123.427387 
L 77.712156 126.076105 
L 75.0423 128.357109 
L 72.372443 136.569626 
z
" clip-path="url(#p0d8d2824c0)" style="fill: #ff7f0e; fill-opacity: 0.2"/>
   </g>
   <g id="PolyCollection_3">
    <path d="M 72.372443 45.55869 
L 72.372443 116.59329 
L 75.0423 99.453872 
L 77.712156 92.799356 
L 80.382013 88.052108 
L 83.051869 81.950004 
L 85.721725 79.655276 
L 88.391582 77.226675 
L 91.061438 71.55728 
L 93.731295 69.156439 
L 96.401151 65.099048 
L 99.071008 62.623577 
L 101.740864 57.822979 
L 104.410721 52.833982 
L 107.080577 49.064684 
L 109.750434 47.321798 
L 112.42029 44.916411 
L 115.090147 43.188821 
L 117.760003 43.418906 
L 120.429859 43.458192 
L 123.099716 43.537997 
L 125.769572 43.215158 
L 128.439429 43.036392 
L 131.109285 43.194205 
L 133.779142 44.678185 
L 136.448998 44.593631 
L 139.118855 43.399031 
L 141.788711 43.606214 
L 144.458568 42.958767 
L 147.128424 41.545354 
L 149.798281 42.304782 
L 152.468137 42.353885 
L 155.137993 42.448166 
L 157.80785 42.850893 
L 160.477706 42.878124 
L 163.147563 42.339143 
L 165.817419 42.674073 
L 168.487276 42.571787 
L 171.157132 43.121677 
L 173.826989 43.017385 
L 176.496845 43.463965 
L 179.166702 43.036932 
L 181.836558 46.408248 
L 184.506414 47.700674 
L 187.176271 48.534859 
L 189.846127 47.290751 
L 192.515984 46.879504 
L 195.18584 42.815088 
L 197.855697 39.774949 
L 200.525553 38.216255 
L 203.19541 38.069772 
L 205.865266 37.666444 
L 208.535123 37.498304 
L 211.204979 37.519819 
L 213.874836 37.450145 
L 216.544692 37.375859 
L 219.214548 38.878546 
L 221.884405 38.944919 
L 224.554261 39.004322 
L 227.224118 39.102337 
L 229.893974 39.084321 
L 232.563831 39.68476 
L 235.233687 39.616887 
L 237.903544 40.691005 
L 240.5734 40.563208 
L 243.243257 40.500474 
L 245.913113 38.600003 
L 248.582969 38.574244 
L 251.252826 37.386752 
L 253.922682 37.355506 
L 256.592539 37.396991 
L 259.262395 37.118938 
L 261.932252 37.15531 
L 264.602108 37.183409 
L 267.271965 37.217103 
L 269.941821 37.696155 
L 272.611678 37.694471 
L 275.281534 37.662013 
L 277.951391 37.636425 
L 280.621247 37.637286 
L 283.291103 37.173928 
L 285.96096 37.205142 
L 288.630816 37.218219 
L 291.300673 37.191881 
L 293.970529 37.188038 
L 296.640386 37.137187 
L 299.310242 37.198194 
L 301.980099 37.202767 
L 304.649955 37.216433 
L 307.319812 37.23833 
L 309.989668 37.251855 
L 312.659525 37.162774 
L 315.329381 38.73734 
L 317.999237 39.592574 
L 320.669094 39.552795 
L 323.33895 39.563216 
L 326.008807 39.553018 
L 326.008807 31.681206 
L 326.008807 31.681206 
L 323.33895 31.65992 
L 320.669094 31.66639 
L 317.999237 31.656627 
L 315.329381 31.799764 
L 312.659525 32.163886 
L 309.989668 32.309886 
L 307.319812 32.30597 
L 304.649955 32.298908 
L 301.980099 32.300265 
L 299.310242 32.29792 
L 296.640386 32.146663 
L 293.970529 32.143348 
L 291.300673 32.149576 
L 288.630816 32.205729 
L 285.96096 32.220162 
L 283.291103 32.232585 
L 280.621247 32.104008 
L 277.951391 32.099918 
L 275.281534 32.043337 
L 272.611678 32.033293 
L 269.941821 32.099028 
L 267.271965 32.288382 
L 264.602108 32.322595 
L 261.932252 32.380824 
L 259.262395 32.460159 
L 256.592539 32.509722 
L 253.922682 32.47713 
L 251.252826 32.503316 
L 248.582969 32.53848 
L 245.913113 32.577981 
L 243.243257 32.152672 
L 240.5734 32.229155 
L 237.903544 32.368862 
L 235.233687 32.462412 
L 232.563831 32.674759 
L 229.893974 33.028797 
L 227.224118 33.066987 
L 224.554261 33.005552 
L 221.884405 32.952894 
L 219.214548 32.745201 
L 216.544692 32.817805 
L 213.874836 32.803884 
L 211.204979 32.945498 
L 208.535123 32.9591 
L 205.865266 32.934258 
L 203.19541 32.827212 
L 200.525553 32.890547 
L 197.855697 32.308973 
L 195.18584 31.339827 
L 192.515984 30.048401 
L 189.846127 29.926434 
L 187.176271 29.878125 
L 184.506414 30.137102 
L 181.836558 31.456701 
L 179.166702 32.59832 
L 176.496845 33.093118 
L 173.826989 33.069503 
L 171.157132 33.043367 
L 168.487276 32.5453 
L 165.817419 32.598344 
L 163.147563 32.320623 
L 160.477706 32.243862 
L 157.80785 32.367572 
L 155.137993 32.401184 
L 152.468137 32.554152 
L 149.798281 32.368791 
L 147.128424 32.32266 
L 144.458568 31.751067 
L 141.788711 31.543849 
L 139.118855 31.445176 
L 136.448998 31.213076 
L 133.779142 31.534627 
L 131.109285 32.072362 
L 128.439429 32.430091 
L 125.769572 32.491379 
L 123.099716 33.071268 
L 120.429859 32.723796 
L 117.760003 32.752011 
L 115.090147 32.833965 
L 112.42029 32.21224 
L 109.750434 32.681167 
L 107.080577 32.399765 
L 104.410721 31.350744 
L 101.740864 30.535325 
L 99.071008 31.434517 
L 96.401151 30.399754 
L 93.731295 30.790951 
L 91.061438 30.694385 
L 88.391582 30.712127 
L 85.721725 31.02416 
L 83.051869 33.588872 
L 80.382013 32.630068 
L 77.712156 36.894434 
L 75.0423 38.157826 
L 72.372443 45.55869 
z
" clip-path="url(#p0d8d2824c0)" style="fill: #2ca02c; fill-opacity: 0.2"/>
   </g>
   <g id="matplotlib.axis_1">
    <g id="xtick_1">
     <g id="line2d_1">
      <defs>
       <path id="meca735a99c" d="M 0 0 
L 0 3.5 
" style="stroke: #000000; stroke-width: 0.8"/>
      </defs>
      <g>
       <use xlink:href="#meca735a99c" x="67.03273" y="188.638125" style="stroke: #000000; stroke-width: 0.8"/>
      </g>
     </g>
     <g id="text_1">
      <!-- 0 -->
      <g transform="translate(63.85148 203.236563) scale(0.1 -0.1)">
       <defs>
        <path id="DejaVuSans-30" d="M 2034 4250 
Q 1547 4250 1301 3770 
Q 1056 3291 1056 2328 
Q 1056 1369 1301 889 
Q 1547 409 2034 409 
Q 2525 409 2770 889 
Q 3016 1369 3016 2328 
Q 3016 3291 2770 3770 
Q 2525 4250 2034 4250 
z
M 2034 4750 
Q 2819 4750 3233 4129 
Q 3647 3509 3647 2328 
Q 3647 1150 3233 529 
Q 2819 -91 2034 -91 
Q 1250 -91 836 529 
Q 422 1150 422 2328 
Q 422 3509 836 4129 
Q 1250 4750 2034 4750 
z
" transform="scale(0.015625)"/>
       </defs>
       <use xlink:href="#DejaVuSans-30"/>
      </g>
     </g>
    </g>
    <g id="xtick_2">
     <g id="line2d_2">
      <g>
       <use xlink:href="#meca735a99c" x="100.405936" y="188.638125" style="stroke: #000000; stroke-width: 0.8"/>
      </g>
     </g>
     <g id="text_2">
      <!-- 200 -->
      <g transform="translate(90.862186 203.236563) scale(0.1 -0.1)">
       <defs>
        <path id="DejaVuSans-32" d="M 1228 531 
L 3431 531 
L 3431 0 
L 469 0 
L 469 531 
Q 828 903 1448 1529 
Q 2069 2156 2228 2338 
Q 2531 2678 2651 2914 
Q 2772 3150 2772 3378 
Q 2772 3750 2511 3984 
Q 2250 4219 1831 4219 
Q 1534 4219 1204 4116 
Q 875 4013 500 3803 
L 500 4441 
Q 881 4594 1212 4672 
Q 1544 4750 1819 4750 
Q 2544 4750 2975 4387 
Q 3406 4025 3406 3419 
Q 3406 3131 3298 2873 
Q 3191 2616 2906 2266 
Q 2828 2175 2409 1742 
Q 1991 1309 1228 531 
z
" transform="scale(0.015625)"/>
       </defs>
       <use xlink:href="#DejaVuSans-32"/>
       <use xlink:href="#DejaVuSans-30" x="63.623047"/>
       <use xlink:href="#DejaVuSans-30" x="127.246094"/>
      </g>
     </g>
    </g>
    <g id="xtick_3">
     <g id="line2d_3">
      <g>
       <use xlink:href="#meca735a99c" x="133.779142" y="188.638125" style="stroke: #000000; stroke-width: 0.8"/>
      </g>
     </g>
     <g id="text_3">
      <!-- 400 -->
      <g transform="translate(124.235392 203.236563) scale(0.1 -0.1)">
       <defs>
        <path id="DejaVuSans-34" d="M 2419 4116 
L 825 1625 
L 2419 1625 
L 2419 4116 
z
M 2253 4666 
L 3047 4666 
L 3047 1625 
L 3713 1625 
L 3713 1100 
L 3047 1100 
L 3047 0 
L 2419 0 
L 2419 1100 
L 313 1100 
L 313 1709 
L 2253 4666 
z
" transform="scale(0.015625)"/>
       </defs>
       <use xlink:href="#DejaVuSans-34"/>
       <use xlink:href="#DejaVuSans-30" x="63.623047"/>
       <use xlink:href="#DejaVuSans-30" x="127.246094"/>
      </g>
     </g>
    </g>
    <g id="xtick_4">
     <g id="line2d_4">
      <g>
       <use xlink:href="#meca735a99c" x="167.152347" y="188.638125" style="stroke: #000000; stroke-width: 0.8"/>
      </g>
     </g>
     <g id="text_4">
      <!-- 600 -->
      <g transform="translate(157.608597 203.236563) scale(0.1 -0.1)">
       <defs>
        <path id="DejaVuSans-36" d="M 2113 2584 
Q 1688 2584 1439 2293 
Q 1191 2003 1191 1497 
Q 1191 994 1439 701 
Q 1688 409 2113 409 
Q 2538 409 2786 701 
Q 3034 994 3034 1497 
Q 3034 2003 2786 2293 
Q 2538 2584 2113 2584 
z
M 3366 4563 
L 3366 3988 
Q 3128 4100 2886 4159 
Q 2644 4219 2406 4219 
Q 1781 4219 1451 3797 
Q 1122 3375 1075 2522 
Q 1259 2794 1537 2939 
Q 1816 3084 2150 3084 
Q 2853 3084 3261 2657 
Q 3669 2231 3669 1497 
Q 3669 778 3244 343 
Q 2819 -91 2113 -91 
Q 1303 -91 875 529 
Q 447 1150 447 2328 
Q 447 3434 972 4092 
Q 1497 4750 2381 4750 
Q 2619 4750 2861 4703 
Q 3103 4656 3366 4563 
z
" transform="scale(0.015625)"/>
       </defs>
       <use xlink:href="#DejaVuSans-36"/>
       <use xlink:href="#DejaVuSans-30" x="63.623047"/>
       <use xlink:href="#DejaVuSans-30" x="127.246094"/>
      </g>
     </g>
    </g>
    <g id="xtick_5">
     <g id="line2d_5">
      <g>
       <use xlink:href="#meca735a99c" x="200.525553" y="188.638125" style="stroke: #000000; stroke-width: 0.8"/>
      </g>
     </g>
     <g id="text_5">
      <!-- 800 -->
      <g transform="translate(190.981803 203.236563) scale(0.1 -0.1)">
       <defs>
        <path id="DejaVuSans-38" d="M 2034 2216 
Q 1584 2216 1326 1975 
Q 1069 1734 1069 1313 
Q 1069 891 1326 650 
Q 1584 409 2034 409 
Q 2484 409 2743 651 
Q 3003 894 3003 1313 
Q 3003 1734 2745 1975 
Q 2488 2216 2034 2216 
z
M 1403 2484 
Q 997 2584 770 2862 
Q 544 3141 544 3541 
Q 544 4100 942 4425 
Q 1341 4750 2034 4750 
Q 2731 4750 3128 4425 
Q 3525 4100 3525 3541 
Q 3525 3141 3298 2862 
Q 3072 2584 2669 2484 
Q 3125 2378 3379 2068 
Q 3634 1759 3634 1313 
Q 3634 634 3220 271 
Q 2806 -91 2034 -91 
Q 1263 -91 848 271 
Q 434 634 434 1313 
Q 434 1759 690 2068 
Q 947 2378 1403 2484 
z
M 1172 3481 
Q 1172 3119 1398 2916 
Q 1625 2713 2034 2713 
Q 2441 2713 2670 2916 
Q 2900 3119 2900 3481 
Q 2900 3844 2670 4047 
Q 2441 4250 2034 4250 
Q 1625 4250 1398 4047 
Q 1172 3844 1172 3481 
z
" transform="scale(0.015625)"/>
       </defs>
       <use xlink:href="#DejaVuSans-38"/>
       <use xlink:href="#DejaVuSans-30" x="63.623047"/>
       <use xlink:href="#DejaVuSans-30" x="127.246094"/>
      </g>
     </g>
    </g>
    <g id="xtick_6">
     <g id="line2d_6">
      <g>
       <use xlink:href="#meca735a99c" x="233.898759" y="188.638125" style="stroke: #000000; stroke-width: 0.8"/>
      </g>
     </g>
     <g id="text_6">
      <!-- 1000 -->
      <g transform="translate(221.173759 203.236563) scale(0.1 -0.1)">
       <defs>
        <path id="DejaVuSans-31" d="M 794 531 
L 1825 531 
L 1825 4091 
L 703 3866 
L 703 4441 
L 1819 4666 
L 2450 4666 
L 2450 531 
L 3481 531 
L 3481 0 
L 794 0 
L 794 531 
z
" transform="scale(0.015625)"/>
       </defs>
       <use xlink:href="#DejaVuSans-31"/>
       <use xlink:href="#DejaVuSans-30" x="63.623047"/>
       <use xlink:href="#DejaVuSans-30" x="127.246094"/>
       <use xlink:href="#DejaVuSans-30" x="190.869141"/>
      </g>
     </g>
    </g>
    <g id="xtick_7">
     <g id="line2d_7">
      <g>
       <use xlink:href="#meca735a99c" x="267.271965" y="188.638125" style="stroke: #000000; stroke-width: 0.8"/>
      </g>
     </g>
     <g id="text_7">
      <!-- 1200 -->
      <g transform="translate(254.546965 203.236563) scale(0.1 -0.1)">
       <use xlink:href="#DejaVuSans-31"/>
       <use xlink:href="#DejaVuSans-32" x="63.623047"/>
       <use xlink:href="#DejaVuSans-30" x="127.246094"/>
       <use xlink:href="#DejaVuSans-30" x="190.869141"/>
      </g>
     </g>
    </g>
    <g id="xtick_8">
     <g id="line2d_8">
      <g>
       <use xlink:href="#meca735a99c" x="300.64517" y="188.638125" style="stroke: #000000; stroke-width: 0.8"/>
      </g>
     </g>
     <g id="text_8">
      <!-- 1400 -->
      <g transform="translate(287.92017 203.236563) scale(0.1 -0.1)">
       <use xlink:href="#DejaVuSans-31"/>
       <use xlink:href="#DejaVuSans-34" x="63.623047"/>
       <use xlink:href="#DejaVuSans-30" x="127.246094"/>
       <use xlink:href="#DejaVuSans-30" x="190.869141"/>
      </g>
     </g>
    </g>
    <g id="xtick_9">
     <g id="line2d_9">
      <g>
       <use xlink:href="#meca735a99c" x="334.018376" y="188.638125" style="stroke: #000000; stroke-width: 0.8"/>
      </g>
     </g>
     <g id="text_9">
      <!-- 1600 -->
      <g transform="translate(321.293376 203.236563) scale(0.1 -0.1)">
       <use xlink:href="#DejaVuSans-31"/>
       <use xlink:href="#DejaVuSans-36" x="63.623047"/>
       <use xlink:href="#DejaVuSans-30" x="127.246094"/>
       <use xlink:href="#DejaVuSans-30" x="190.869141"/>
      </g>
     </g>
    </g>
    <g id="text_10">
     <!-- Episode -->
     <g transform="translate(179.553125 216.914688) scale(0.1 -0.1)">
      <defs>
       <path id="DejaVuSans-45" d="M 628 4666 
L 3578 4666 
L 3578 4134 
L 1259 4134 
L 1259 2753 
L 3481 2753 
L 3481 2222 
L 1259 2222 
L 1259 531 
L 3634 531 
L 3634 0 
L 628 0 
L 628 4666 
z
" transform="scale(0.015625)"/>
       <path id="DejaVuSans-70" d="M 1159 525 
L 1159 -1331 
L 581 -1331 
L 581 3500 
L 1159 3500 
L 1159 2969 
Q 1341 3281 1617 3432 
Q 1894 3584 2278 3584 
Q 2916 3584 3314 3078 
Q 3713 2572 3713 1747 
Q 3713 922 3314 415 
Q 2916 -91 2278 -91 
Q 1894 -91 1617 61 
Q 1341 213 1159 525 
z
M 3116 1747 
Q 3116 2381 2855 2742 
Q 2594 3103 2138 3103 
Q 1681 3103 1420 2742 
Q 1159 2381 1159 1747 
Q 1159 1113 1420 752 
Q 1681 391 2138 391 
Q 2594 391 2855 752 
Q 3116 1113 3116 1747 
z
" transform="scale(0.015625)"/>
       <path id="DejaVuSans-69" d="M 603 3500 
L 1178 3500 
L 1178 0 
L 603 0 
L 603 3500 
z
M 603 4863 
L 1178 4863 
L 1178 4134 
L 603 4134 
L 603 4863 
z
" transform="scale(0.015625)"/>
       <path id="DejaVuSans-73" d="M 2834 3397 
L 2834 2853 
Q 2591 2978 2328 3040 
Q 2066 3103 1784 3103 
Q 1356 3103 1142 2972 
Q 928 2841 928 2578 
Q 928 2378 1081 2264 
Q 1234 2150 1697 2047 
L 1894 2003 
Q 2506 1872 2764 1633 
Q 3022 1394 3022 966 
Q 3022 478 2636 193 
Q 2250 -91 1575 -91 
Q 1294 -91 989 -36 
Q 684 19 347 128 
L 347 722 
Q 666 556 975 473 
Q 1284 391 1588 391 
Q 1994 391 2212 530 
Q 2431 669 2431 922 
Q 2431 1156 2273 1281 
Q 2116 1406 1581 1522 
L 1381 1569 
Q 847 1681 609 1914 
Q 372 2147 372 2553 
Q 372 3047 722 3315 
Q 1072 3584 1716 3584 
Q 2034 3584 2315 3537 
Q 2597 3491 2834 3397 
z
" transform="scale(0.015625)"/>
       <path id="DejaVuSans-6f" d="M 1959 3097 
Q 1497 3097 1228 2736 
Q 959 2375 959 1747 
Q 959 1119 1226 758 
Q 1494 397 1959 397 
Q 2419 397 2687 759 
Q 2956 1122 2956 1747 
Q 2956 2369 2687 2733 
Q 2419 3097 1959 3097 
z
M 1959 3584 
Q 2709 3584 3137 3096 
Q 3566 2609 3566 1747 
Q 3566 888 3137 398 
Q 2709 -91 1959 -91 
Q 1206 -91 779 398 
Q 353 888 353 1747 
Q 353 2609 779 3096 
Q 1206 3584 1959 3584 
z
" transform="scale(0.015625)"/>
       <path id="DejaVuSans-64" d="M 2906 2969 
L 2906 4863 
L 3481 4863 
L 3481 0 
L 2906 0 
L 2906 525 
Q 2725 213 2448 61 
Q 2172 -91 1784 -91 
Q 1150 -91 751 415 
Q 353 922 353 1747 
Q 353 2572 751 3078 
Q 1150 3584 1784 3584 
Q 2172 3584 2448 3432 
Q 2725 3281 2906 2969 
z
M 947 1747 
Q 947 1113 1208 752 
Q 1469 391 1925 391 
Q 2381 391 2643 752 
Q 2906 1113 2906 1747 
Q 2906 2381 2643 2742 
Q 2381 3103 1925 3103 
Q 1469 3103 1208 2742 
Q 947 2381 947 1747 
z
" transform="scale(0.015625)"/>
       <path id="DejaVuSans-65" d="M 3597 1894 
L 3597 1613 
L 953 1613 
Q 991 1019 1311 708 
Q 1631 397 2203 397 
Q 2534 397 2845 478 
Q 3156 559 3463 722 
L 3463 178 
Q 3153 47 2828 -22 
Q 2503 -91 2169 -91 
Q 1331 -91 842 396 
Q 353 884 353 1716 
Q 353 2575 817 3079 
Q 1281 3584 2069 3584 
Q 2775 3584 3186 3129 
Q 3597 2675 3597 1894 
z
M 3022 2063 
Q 3016 2534 2758 2815 
Q 2500 3097 2075 3097 
Q 1594 3097 1305 2825 
Q 1016 2553 972 2059 
L 3022 2063 
z
" transform="scale(0.015625)"/>
      </defs>
      <use xlink:href="#DejaVuSans-45"/>
      <use xlink:href="#DejaVuSans-70" x="63.183594"/>
      <use xlink:href="#DejaVuSans-69" x="126.660156"/>
      <use xlink:href="#DejaVuSans-73" x="154.443359"/>
      <use xlink:href="#DejaVuSans-6f" x="206.542969"/>
      <use xlink:href="#DejaVuSans-64" x="267.724609"/>
      <use xlink:href="#DejaVuSans-65" x="331.201172"/>
     </g>
    </g>
   </g>
   <g id="matplotlib.axis_2">
    <g id="ytick_1">
     <g id="line2d_10">
      <defs>
       <path id="mf6ca5924eb" d="M 0 0 
L -3.5 0 
" style="stroke: #000000; stroke-width: 0.8"/>
      </defs>
      <g>
       <use xlink:href="#mf6ca5924eb" x="59.690625" y="183.300645" style="stroke: #000000; stroke-width: 0.8"/>
      </g>
     </g>
     <g id="text_11">
      <!-- 28000 -->
      <g transform="translate(20.878125 187.099864) scale(0.1 -0.1)">
       <use xlink:href="#DejaVuSans-32"/>
       <use xlink:href="#DejaVuSans-38" x="63.623047"/>
       <use xlink:href="#DejaVuSans-30" x="127.246094"/>
       <use xlink:href="#DejaVuSans-30" x="190.869141"/>
       <use xlink:href="#DejaVuSans-30" x="254.492188"/>
      </g>
     </g>
    </g>
    <g id="ytick_2">
     <g id="line2d_11">
      <g>
       <use xlink:href="#mf6ca5924eb" x="59.690625" y="149.390715" style="stroke: #000000; stroke-width: 0.8"/>
      </g>
     </g>
     <g id="text_12">
      <!-- 30000 -->
      <g transform="translate(20.878125 153.189934) scale(0.1 -0.1)">
       <defs>
        <path id="DejaVuSans-33" d="M 2597 2516 
Q 3050 2419 3304 2112 
Q 3559 1806 3559 1356 
Q 3559 666 3084 287 
Q 2609 -91 1734 -91 
Q 1441 -91 1130 -33 
Q 819 25 488 141 
L 488 750 
Q 750 597 1062 519 
Q 1375 441 1716 441 
Q 2309 441 2620 675 
Q 2931 909 2931 1356 
Q 2931 1769 2642 2001 
Q 2353 2234 1838 2234 
L 1294 2234 
L 1294 2753 
L 1863 2753 
Q 2328 2753 2575 2939 
Q 2822 3125 2822 3475 
Q 2822 3834 2567 4026 
Q 2313 4219 1838 4219 
Q 1578 4219 1281 4162 
Q 984 4106 628 3988 
L 628 4550 
Q 988 4650 1302 4700 
Q 1616 4750 1894 4750 
Q 2613 4750 3031 4423 
Q 3450 4097 3450 3541 
Q 3450 3153 3228 2886 
Q 3006 2619 2597 2516 
z
" transform="scale(0.015625)"/>
       </defs>
       <use xlink:href="#DejaVuSans-33"/>
       <use xlink:href="#DejaVuSans-30" x="63.623047"/>
       <use xlink:href="#DejaVuSans-30" x="127.246094"/>
       <use xlink:href="#DejaVuSans-30" x="190.869141"/>
       <use xlink:href="#DejaVuSans-30" x="254.492188"/>
      </g>
     </g>
    </g>
    <g id="ytick_3">
     <g id="line2d_12">
      <g>
       <use xlink:href="#mf6ca5924eb" x="59.690625" y="115.480785" style="stroke: #000000; stroke-width: 0.8"/>
      </g>
     </g>
     <g id="text_13">
      <!-- 32000 -->
      <g transform="translate(20.878125 119.280004) scale(0.1 -0.1)">
       <use xlink:href="#DejaVuSans-33"/>
       <use xlink:href="#DejaVuSans-32" x="63.623047"/>
       <use xlink:href="#DejaVuSans-30" x="127.246094"/>
       <use xlink:href="#DejaVuSans-30" x="190.869141"/>
       <use xlink:href="#DejaVuSans-30" x="254.492188"/>
      </g>
     </g>
    </g>
    <g id="ytick_4">
     <g id="line2d_13">
      <g>
       <use xlink:href="#mf6ca5924eb" x="59.690625" y="81.570855" style="stroke: #000000; stroke-width: 0.8"/>
      </g>
     </g>
     <g id="text_14">
      <!-- 34000 -->
      <g transform="translate(20.878125 85.370073) scale(0.1 -0.1)">
       <use xlink:href="#DejaVuSans-33"/>
       <use xlink:href="#DejaVuSans-34" x="63.623047"/>
       <use xlink:href="#DejaVuSans-30" x="127.246094"/>
       <use xlink:href="#DejaVuSans-30" x="190.869141"/>
       <use xlink:href="#DejaVuSans-30" x="254.492188"/>
      </g>
     </g>
    </g>
    <g id="ytick_5">
     <g id="line2d_14">
      <g>
       <use xlink:href="#mf6ca5924eb" x="59.690625" y="47.660925" style="stroke: #000000; stroke-width: 0.8"/>
      </g>
     </g>
     <g id="text_15">
      <!-- 36000 -->
      <g transform="translate(20.878125 51.460143) scale(0.1 -0.1)">
       <use xlink:href="#DejaVuSans-33"/>
       <use xlink:href="#DejaVuSans-36" x="63.623047"/>
       <use xlink:href="#DejaVuSans-30" x="127.246094"/>
       <use xlink:href="#DejaVuSans-30" x="190.869141"/>
       <use xlink:href="#DejaVuSans-30" x="254.492188"/>
      </g>
     </g>
    </g>
    <g id="text_16">
     <!-- Performance -->
     <g transform="translate(14.798438 137.160156) rotate(-90) scale(0.1 -0.1)">
      <defs>
       <path id="DejaVuSans-50" d="M 1259 4147 
L 1259 2394 
L 2053 2394 
Q 2494 2394 2734 2622 
Q 2975 2850 2975 3272 
Q 2975 3691 2734 3919 
Q 2494 4147 2053 4147 
L 1259 4147 
z
M 628 4666 
L 2053 4666 
Q 2838 4666 3239 4311 
Q 3641 3956 3641 3272 
Q 3641 2581 3239 2228 
Q 2838 1875 2053 1875 
L 1259 1875 
L 1259 0 
L 628 0 
L 628 4666 
z
" transform="scale(0.015625)"/>
       <path id="DejaVuSans-72" d="M 2631 2963 
Q 2534 3019 2420 3045 
Q 2306 3072 2169 3072 
Q 1681 3072 1420 2755 
Q 1159 2438 1159 1844 
L 1159 0 
L 581 0 
L 581 3500 
L 1159 3500 
L 1159 2956 
Q 1341 3275 1631 3429 
Q 1922 3584 2338 3584 
Q 2397 3584 2469 3576 
Q 2541 3569 2628 3553 
L 2631 2963 
z
" transform="scale(0.015625)"/>
       <path id="DejaVuSans-66" d="M 2375 4863 
L 2375 4384 
L 1825 4384 
Q 1516 4384 1395 4259 
Q 1275 4134 1275 3809 
L 1275 3500 
L 2222 3500 
L 2222 3053 
L 1275 3053 
L 1275 0 
L 697 0 
L 697 3053 
L 147 3053 
L 147 3500 
L 697 3500 
L 697 3744 
Q 697 4328 969 4595 
Q 1241 4863 1831 4863 
L 2375 4863 
z
" transform="scale(0.015625)"/>
       <path id="DejaVuSans-6d" d="M 3328 2828 
Q 3544 3216 3844 3400 
Q 4144 3584 4550 3584 
Q 5097 3584 5394 3201 
Q 5691 2819 5691 2113 
L 5691 0 
L 5113 0 
L 5113 2094 
Q 5113 2597 4934 2840 
Q 4756 3084 4391 3084 
Q 3944 3084 3684 2787 
Q 3425 2491 3425 1978 
L 3425 0 
L 2847 0 
L 2847 2094 
Q 2847 2600 2669 2842 
Q 2491 3084 2119 3084 
Q 1678 3084 1418 2786 
Q 1159 2488 1159 1978 
L 1159 0 
L 581 0 
L 581 3500 
L 1159 3500 
L 1159 2956 
Q 1356 3278 1631 3431 
Q 1906 3584 2284 3584 
Q 2666 3584 2933 3390 
Q 3200 3197 3328 2828 
z
" transform="scale(0.015625)"/>
       <path id="DejaVuSans-61" d="M 2194 1759 
Q 1497 1759 1228 1600 
Q 959 1441 959 1056 
Q 959 750 1161 570 
Q 1363 391 1709 391 
Q 2188 391 2477 730 
Q 2766 1069 2766 1631 
L 2766 1759 
L 2194 1759 
z
M 3341 1997 
L 3341 0 
L 2766 0 
L 2766 531 
Q 2569 213 2275 61 
Q 1981 -91 1556 -91 
Q 1019 -91 701 211 
Q 384 513 384 1019 
Q 384 1609 779 1909 
Q 1175 2209 1959 2209 
L 2766 2209 
L 2766 2266 
Q 2766 2663 2505 2880 
Q 2244 3097 1772 3097 
Q 1472 3097 1187 3025 
Q 903 2953 641 2809 
L 641 3341 
Q 956 3463 1253 3523 
Q 1550 3584 1831 3584 
Q 2591 3584 2966 3190 
Q 3341 2797 3341 1997 
z
" transform="scale(0.015625)"/>
       <path id="DejaVuSans-6e" d="M 3513 2113 
L 3513 0 
L 2938 0 
L 2938 2094 
Q 2938 2591 2744 2837 
Q 2550 3084 2163 3084 
Q 1697 3084 1428 2787 
Q 1159 2491 1159 1978 
L 1159 0 
L 581 0 
L 581 3500 
L 1159 3500 
L 1159 2956 
Q 1366 3272 1645 3428 
Q 1925 3584 2291 3584 
Q 2894 3584 3203 3211 
Q 3513 2838 3513 2113 
z
" transform="scale(0.015625)"/>
       <path id="DejaVuSans-63" d="M 3122 3366 
L 3122 2828 
Q 2878 2963 2633 3030 
Q 2388 3097 2138 3097 
Q 1578 3097 1268 2742 
Q 959 2388 959 1747 
Q 959 1106 1268 751 
Q 1578 397 2138 397 
Q 2388 397 2633 464 
Q 2878 531 3122 666 
L 3122 134 
Q 2881 22 2623 -34 
Q 2366 -91 2075 -91 
Q 1284 -91 818 406 
Q 353 903 353 1747 
Q 353 2603 823 3093 
Q 1294 3584 2113 3584 
Q 2378 3584 2631 3529 
Q 2884 3475 3122 3366 
z
" transform="scale(0.015625)"/>
      </defs>
      <use xlink:href="#DejaVuSans-50"/>
      <use xlink:href="#DejaVuSans-65" x="56.677734"/>
      <use xlink:href="#DejaVuSans-72" x="118.201172"/>
      <use xlink:href="#DejaVuSans-66" x="159.314453"/>
      <use xlink:href="#DejaVuSans-6f" x="194.519531"/>
      <use xlink:href="#DejaVuSans-72" x="255.701172"/>
      <use xlink:href="#DejaVuSans-6d" x="295.064453"/>
      <use xlink:href="#DejaVuSans-61" x="392.476562"/>
      <use xlink:href="#DejaVuSans-6e" x="453.755859"/>
      <use xlink:href="#DejaVuSans-63" x="517.134766"/>
      <use xlink:href="#DejaVuSans-65" x="572.115234"/>
     </g>
    </g>
   </g>
   <g id="line2d_15">
    <path d="M 72.372443 121.90968 
L 75.0423 109.550652 
L 77.712156 100.281439 
L 80.382013 95.050585 
L 83.051869 90.875595 
L 85.721725 86.248747 
L 88.391582 82.282126 
L 91.061438 80.645191 
L 93.731295 79.028656 
L 96.401151 78.114136 
L 99.071008 77.459555 
L 101.740864 76.920634 
L 104.410721 75.936801 
L 107.080577 75.581326 
L 109.750434 75.054465 
L 112.42029 75.299305 
L 115.090147 75.299694 
L 117.760003 76.455976 
L 120.429859 76.33147 
L 123.099716 76.120854 
L 125.769572 75.628072 
L 128.439429 75.355429 
L 131.109285 73.512262 
L 133.779142 72.547549 
L 136.448998 73.668138 
L 139.118855 73.242078 
L 141.788711 72.252123 
L 144.458568 72.051246 
L 147.128424 72.036477 
L 149.798281 69.680302 
L 152.468137 69.041496 
L 155.137993 68.766172 
L 157.80785 68.707402 
L 160.477706 68.529809 
L 163.147563 68.604422 
L 165.817419 68.486966 
L 168.487276 68.462597 
L 171.157132 71.070652 
L 173.826989 72.954398 
L 176.496845 72.719819 
L 179.166702 72.253829 
L 181.836558 71.732966 
L 184.506414 70.046049 
L 187.176271 67.975901 
L 189.846127 67.659603 
L 192.515984 67.399457 
L 195.18584 67.342792 
L 197.855697 65.185591 
L 200.525553 64.484888 
L 203.19541 64.025126 
L 205.865266 63.714553 
L 208.535123 63.561881 
L 211.204979 68.555213 
L 213.874836 71.679932 
L 216.544692 73.483517 
L 219.214548 74.542767 
L 221.884405 75.351332 
L 224.554261 71.899796 
L 227.224118 69.095925 
L 229.893974 67.46882 
L 232.563831 66.718987 
L 235.233687 65.483807 
L 237.903544 63.708085 
L 240.5734 63.4586 
L 243.243257 63.179649 
L 245.913113 62.84979 
L 248.582969 62.920884 
L 251.252826 63.089741 
L 253.922682 62.757057 
L 256.592539 62.677626 
L 259.262395 62.621378 
L 261.932252 64.268108 
L 264.602108 64.684734 
L 267.271965 65.454355 
L 269.941821 66.022322 
L 272.611678 67.255181 
L 275.281534 66.159293 
L 277.951391 65.724243 
L 280.621247 65.544382 
L 283.291103 64.994826 
L 285.96096 63.629061 
L 288.630816 63.263378 
L 291.300673 63.050957 
L 293.970529 62.644532 
L 296.640386 62.511514 
L 299.310242 62.622244 
L 301.980099 62.015429 
L 304.649955 61.600421 
L 307.319812 60.901604 
L 309.989668 60.580078 
L 312.659525 60.720024 
L 315.329381 60.575073 
L 317.999237 61.045573 
L 320.669094 61.056887 
L 323.33895 61.195554 
L 326.008807 60.564066 
" clip-path="url(#p0d8d2824c0)" style="fill: none; stroke: #1f77b4; stroke-width: 2; stroke-linecap: square"/>
   </g>
   <g id="line2d_16">
    <path d="M 72.372443 158.823876 
L 75.0423 150.444268 
L 77.712156 147.236785 
L 80.382013 143.725386 
L 83.051869 140.608255 
L 85.721725 137.233327 
L 88.391582 135.612828 
L 91.061438 132.311911 
L 93.731295 131.522163 
L 96.401151 128.803496 
L 99.071008 128.62693 
L 101.740864 124.938674 
L 104.410721 123.346493 
L 107.080577 122.358742 
L 109.750434 121.628734 
L 112.42029 118.214889 
L 115.090147 116.758034 
L 117.760003 115.308969 
L 120.429859 113.032375 
L 123.099716 111.290001 
L 125.769572 109.994989 
L 128.439429 110.039216 
L 131.109285 107.966257 
L 133.779142 106.44324 
L 136.448998 105.698686 
L 139.118855 105.666991 
L 141.788711 103.429131 
L 144.458568 102.972214 
L 147.128424 102.243801 
L 149.798281 101.262374 
L 152.468137 102.272918 
L 155.137993 101.986029 
L 157.80785 102.415506 
L 160.477706 102.338257 
L 163.147563 102.564004 
L 165.817419 100.44363 
L 168.487276 101.062633 
L 171.157132 101.24521 
L 173.826989 101.536711 
L 176.496845 101.043918 
L 179.166702 100.865283 
L 181.836558 100.240639 
L 184.506414 98.60997 
L 187.176271 97.253245 
L 189.846127 97.265453 
L 192.515984 96.9706 
L 195.18584 96.526075 
L 197.855697 98.278645 
L 200.525553 99.413367 
L 203.19541 98.443283 
L 205.865266 99.007428 
L 208.535123 99.725533 
L 211.204979 99.712116 
L 213.874836 98.944952 
L 216.544692 98.948001 
L 219.214548 98.91475 
L 221.884405 98.345071 
L 224.554261 97.537964 
L 227.224118 96.906007 
L 229.893974 97.427754 
L 232.563831 96.828845 
L 235.233687 97.797296 
L 237.903544 96.810291 
L 240.5734 98.203172 
L 243.243257 97.818391 
L 245.913113 97.905051 
L 248.582969 96.636717 
L 251.252826 97.636029 
L 253.922682 96.329931 
L 256.592539 96.880685 
L 259.262395 96.643855 
L 261.932252 96.473475 
L 264.602108 96.165044 
L 267.271965 95.933177 
L 269.941821 95.302653 
L 272.611678 95.286189 
L 275.281534 95.006732 
L 277.951391 94.17179 
L 280.621247 94.443092 
L 283.291103 94.86099 
L 285.96096 94.712156 
L 288.630816 94.889633 
L 291.300673 94.761145 
L 293.970529 94.707107 
L 296.640386 94.372376 
L 299.310242 94.284061 
L 301.980099 93.846439 
L 304.649955 93.677398 
L 307.319812 92.997716 
L 309.989668 92.990148 
L 312.659525 92.688952 
L 315.329381 92.320144 
L 317.999237 92.656633 
L 320.669094 94.587848 
L 323.33895 94.900309 
L 326.008807 94.932012 
" clip-path="url(#p0d8d2824c0)" style="fill: none; stroke: #ff7f0e; stroke-width: 2; stroke-linecap: square"/>
   </g>
   <g id="line2d_17">
    <path d="M 72.372443 81.07599 
L 75.0423 68.805849 
L 77.712156 64.846895 
L 80.382013 60.341088 
L 83.051869 57.769438 
L 85.721725 55.339718 
L 88.391582 53.969401 
L 91.061438 51.125833 
L 93.731295 49.973695 
L 96.401151 47.749401 
L 99.071008 47.029047 
L 101.740864 44.179152 
L 104.410721 42.092363 
L 107.080577 40.732224 
L 109.750434 40.001482 
L 112.42029 38.564326 
L 115.090147 38.011393 
L 117.760003 38.085458 
L 120.429859 38.090994 
L 123.099716 38.304632 
L 125.769572 37.853268 
L 128.439429 37.733241 
L 131.109285 37.633283 
L 133.779142 38.106406 
L 136.448998 37.903353 
L 139.118855 37.422104 
L 141.788711 37.575032 
L 144.458568 37.354917 
L 147.128424 36.934007 
L 149.798281 37.336786 
L 152.468137 37.454019 
L 155.137993 37.424675 
L 157.80785 37.609233 
L 160.477706 37.560993 
L 163.147563 37.329883 
L 165.817419 37.636208 
L 168.487276 37.558543 
L 171.157132 38.082522 
L 173.826989 38.043444 
L 176.496845 38.278541 
L 179.166702 37.817626 
L 181.836558 38.932475 
L 184.506414 38.918888 
L 187.176271 39.206492 
L 189.846127 38.608592 
L 192.515984 38.463952 
L 195.18584 37.077457 
L 197.855697 36.041961 
L 200.525553 35.553401 
L 203.19541 35.448492 
L 205.865266 35.300351 
L 208.535123 35.228702 
L 211.204979 35.232658 
L 213.874836 35.127015 
L 216.544692 35.096832 
L 219.214548 35.811874 
L 221.884405 35.948907 
L 224.554261 36.004937 
L 227.224118 36.084662 
L 229.893974 36.056559 
L 232.563831 36.17976 
L 235.233687 36.03965 
L 237.903544 36.529933 
L 240.5734 36.396181 
L 243.243257 36.326573 
L 245.913113 35.588992 
L 248.582969 35.556362 
L 251.252826 34.945034 
L 253.922682 34.916318 
L 256.592539 34.953356 
L 259.262395 34.789549 
L 261.932252 34.768067 
L 264.602108 34.753002 
L 267.271965 34.752742 
L 269.941821 34.897591 
L 272.611678 34.863882 
L 275.281534 34.852675 
L 277.951391 34.868172 
L 280.621247 34.870647 
L 283.291103 34.703256 
L 285.96096 34.712652 
L 288.630816 34.711974 
L 291.300673 34.670728 
L 293.970529 34.665693 
L 296.640386 34.641925 
L 299.310242 34.748057 
L 301.980099 34.751516 
L 304.649955 34.75767 
L 307.319812 34.77215 
L 309.989668 34.780871 
L 312.659525 34.66333 
L 315.329381 35.268552 
L 317.999237 35.6246 
L 320.669094 35.609592 
L 323.33895 35.611568 
L 326.008807 35.617112 
" clip-path="url(#p0d8d2824c0)" style="fill: none; stroke: #2ca02c; stroke-width: 2; stroke-linecap: square"/>
   </g>
   <g id="patch_3">
    <path d="M 59.690625 188.638125 
L 59.690625 22.318125 
" style="fill: none; stroke: #000000; stroke-width: 0.8; stroke-linejoin: miter; stroke-linecap: square"/>
   </g>
   <g id="patch_4">
    <path d="M 338.690625 188.638125 
L 338.690625 22.318125 
" style="fill: none; stroke: #000000; stroke-width: 0.8; stroke-linejoin: miter; stroke-linecap: square"/>
   </g>
   <g id="patch_5">
    <path d="M 59.690625 188.638125 
L 338.690625 188.638125 
" style="fill: none; stroke: #000000; stroke-width: 0.8; stroke-linejoin: miter; stroke-linecap: square"/>
   </g>
   <g id="patch_6">
    <path d="M 59.690625 22.318125 
L 338.690625 22.318125 
" style="fill: none; stroke: #000000; stroke-width: 0.8; stroke-linejoin: miter; stroke-linecap: square"/>
   </g>
   <g id="text_17">
    <!-- F3 -->
    <g transform="translate(191.922188 16.318125) scale(0.12 -0.12)">
     <defs>
      <path id="DejaVuSans-46" d="M 628 4666 
L 3309 4666 
L 3309 4134 
L 1259 4134 
L 1259 2759 
L 3109 2759 
L 3109 2228 
L 1259 2228 
L 1259 0 
L 628 0 
L 628 4666 
z
" transform="scale(0.015625)"/>
     </defs>
     <use xlink:href="#DejaVuSans-46"/>
     <use xlink:href="#DejaVuSans-33" x="57.519531"/>
    </g>
   </g>
   <g id="legend_1">
    <g id="patch_7">
     <path d="M 255.807813 183.638125 
L 331.690625 183.638125 
Q 333.690625 183.638125 333.690625 181.638125 
L 333.690625 138.60375 
Q 333.690625 136.60375 331.690625 136.60375 
L 255.807813 136.60375 
Q 253.807813 136.60375 253.807813 138.60375 
L 253.807813 181.638125 
Q 253.807813 183.638125 255.807813 183.638125 
z
" style="fill: #ffffff; opacity: 0.8; stroke: #cccccc; stroke-linejoin: miter"/>
    </g>
    <g id="line2d_18">
     <path d="M 257.807813 144.702188 
L 267.807813 144.702188 
L 277.807813 144.702188 
" style="fill: none; stroke: #1f77b4; stroke-width: 2; stroke-linecap: square"/>
    </g>
    <g id="text_18">
     <!-- FE5000 -->
     <g transform="translate(285.807813 148.202188) scale(0.1 -0.1)">
      <defs>
       <path id="DejaVuSans-35" d="M 691 4666 
L 3169 4666 
L 3169 4134 
L 1269 4134 
L 1269 2991 
Q 1406 3038 1543 3061 
Q 1681 3084 1819 3084 
Q 2600 3084 3056 2656 
Q 3513 2228 3513 1497 
Q 3513 744 3044 326 
Q 2575 -91 1722 -91 
Q 1428 -91 1123 -41 
Q 819 9 494 109 
L 494 744 
Q 775 591 1075 516 
Q 1375 441 1709 441 
Q 2250 441 2565 725 
Q 2881 1009 2881 1497 
Q 2881 1984 2565 2268 
Q 2250 2553 1709 2553 
Q 1456 2553 1204 2497 
Q 953 2441 691 2322 
L 691 4666 
z
" transform="scale(0.015625)"/>
      </defs>
      <use xlink:href="#DejaVuSans-46"/>
      <use xlink:href="#DejaVuSans-45" x="57.519531"/>
      <use xlink:href="#DejaVuSans-35" x="120.703125"/>
      <use xlink:href="#DejaVuSans-30" x="184.326172"/>
      <use xlink:href="#DejaVuSans-30" x="247.949219"/>
      <use xlink:href="#DejaVuSans-30" x="311.572266"/>
     </g>
    </g>
    <g id="line2d_19">
     <path d="M 257.807813 159.380313 
L 267.807813 159.380313 
L 277.807813 159.380313 
" style="fill: none; stroke: #ff7f0e; stroke-width: 2; stroke-linecap: square"/>
    </g>
    <g id="text_19">
     <!-- FE3000 -->
     <g transform="translate(285.807813 162.880313) scale(0.1 -0.1)">
      <use xlink:href="#DejaVuSans-46"/>
      <use xlink:href="#DejaVuSans-45" x="57.519531"/>
      <use xlink:href="#DejaVuSans-33" x="120.703125"/>
      <use xlink:href="#DejaVuSans-30" x="184.326172"/>
      <use xlink:href="#DejaVuSans-30" x="247.949219"/>
      <use xlink:href="#DejaVuSans-30" x="311.572266"/>
     </g>
    </g>
    <g id="line2d_20">
     <path d="M 257.807813 174.058438 
L 267.807813 174.058438 
L 277.807813 174.058438 
" style="fill: none; stroke: #2ca02c; stroke-width: 2; stroke-linecap: square"/>
    </g>
    <g id="text_20">
     <!-- FE10000 -->
     <g transform="translate(285.807813 177.558438) scale(0.1 -0.1)">
      <use xlink:href="#DejaVuSans-46"/>
      <use xlink:href="#DejaVuSans-45" x="57.519531"/>
      <use xlink:href="#DejaVuSans-31" x="120.703125"/>
      <use xlink:href="#DejaVuSans-30" x="184.326172"/>
      <use xlink:href="#DejaVuSans-30" x="247.949219"/>
      <use xlink:href="#DejaVuSans-30" x="311.572266"/>
      <use xlink:href="#DejaVuSans-30" x="375.195312"/>
     </g>
    </g>
   </g>
  </g>
 </g>
 <defs>
  <clipPath id="p0d8d2824c0">
   <rect x="59.690625" y="22.318125" width="279" height="166.32"/>
  </clipPath>
 </defs>
</svg>
